<ttFont>
<head>
    <!-- Most of this table will be recalculated by the compiler -->
    <tableVersion value="1.0"/>
    <fontRevision value="1.002"/>
    <checkSumAdjustment value="0x2f13bf3c"/>
    <magicNumber value="0x5f0f3cf5"/>
    <flags value="00000000 00001111"/>
    <unitsPerEm value="1000"/>
    <created value="Sun Jun 13 15:20:27 2021"/>
    <modified value="Mon Jun 14 15:25:30 2021"/>
    <xMin value="-154"/>
    <yMin value="-265"/>
    <xMax value="1219"/>
    <yMax value="1231"/>
    <macStyle value="00000000 00000000"/>
    <lowestRecPPEM value="6"/>
    <fontDirectionHint value="2"/>
    <indexToLocFormat value="0"/>
    <glyphDataFormat value="0"/>
  </head>
    <TTGlyph name=".notdef" xMin="50" yMin="-265" xMax="450" yMax="1000">
      <contour>
        <pt x="50" y="-265" on="1"/>
        <pt x="50" y="1000" on="1"/>
        <pt x="450" y="1000" on="1"/>
        <pt x="450" y="-265" on="1"/>
      </contour>
      <contour>
        <pt x="100" y="-215" on="1"/>
        <pt x="400" y="-215" on="1"/>
        <pt x="400" y="950" on="1"/>
        <pt x="100" y="950" on="1"/>
      </contour>
    </TTGlyph>
    <TTGlyph name="A" xMin="25" yMin="0" xMax="755" yMax="740">
      <contour>
        <pt x="25" y="0" on="1"/>
        <pt x="274" y="740" on="1"/>
        <pt x="506" y="740" on="1"/>
        <pt x="755" y="0" on="1"/>
        <pt x="574" y="0" on="1"/>
        <pt x="531" y="135" on="1"/>
        <pt x="249" y="135" on="1"/>
        <pt x="206" y="0" on="1"/>
      </contour>
      <contour>
        <pt x="297" y="283" on="1"/>
        <pt x="484" y="283" on="1"/>
        <pt x="390" y="574" on="1"/>
      </contour>
    </TTGlyph>
    <TTGlyph name="AE" xMin="25" yMin="0" xMax="992" yMax="740">
      <contour>
        <pt x="25" y="0" on="1"/>
        <pt x="346" y="740" on="1"/>
        <pt x="987" y="740" on="1"/>
        <pt x="987" y="590" on="1"/>
        <pt x="637" y="590" on="1"/>
        <pt x="637" y="447" on="1"/>
        <pt x="942" y="447" on="1"/>
        <pt x="942" y="304" on="1"/>
        <pt x="637" y="304" on="1"/>
        <pt x="637" y="150" on="1"/>
        <pt x="992" y="150" on="1"/>
        <pt x="992" y="0" on="1"/>
        <pt x="464" y="0" on="1"/>
        <pt x="464" y="135" on="1"/>
        <pt x="264" y="135" on="1"/>
        <pt x="206" y="0" on="1"/>
      </contour>
      <contour>
        <pt x="328" y="281" on="1"/>
        <pt x="464" y="281" on="1"/>
        <pt x="464" y="593" on="1"/>
      </contour>
    </TTGlyph>
    <TTGlyph name="Aacute" xMin="25" yMin="0" xMax="755" yMax="991">
      <contour>
        <pt x="453" y="811" on="1"/>
        <pt x="330" y="812" on="1"/>
        <pt x="409" y="991" on="1"/>
        <pt x="565" y="991" on="1"/>
      </contour>
      <contour>
        <pt x="25" y="0" on="1"/>
        <pt x="274" y="740" on="1"/>
        <pt x="506" y="740" on="1"/>
        <pt x="755" y="0" on="1"/>
        <pt x="574" y="0" on="1"/>
        <pt x="531" y="135" on="1"/>
        <pt x="249" y="135" on="1"/>
        <pt x="206" y="0" on="1"/>
      </contour>
      <contour>
        <pt x="296" y="283" on="1"/>
        <pt x="484" y="283" on="1"/>
        <pt x="390" y="574" on="1"/>
      </contour>
    </TTGlyph>
    <TTGlyph name="Abreve" xMin="25" yMin="0" xMax="755" yMax="966">
      <contour>
        <pt x="390" y="805" on="1"/>
        <pt x="333" y="805" on="0"/>
        <pt x="261" y="837" on="0"/>
        <pt x="222" y="885" on="0"/>
        <pt x="206" y="933" on="0"/>
        <pt x="203" y="966" on="0"/>
        <pt x="203" y="966" on="1"/>
        <pt x="313" y="966" on="1"/>
        <pt x="313" y="966" on="0"/>
        <pt x="316" y="946" on="0"/>
        <pt x="330" y="919" on="0"/>
        <pt x="362" y="899" on="0"/>
        <pt x="390" y="899" on="1"/>
        <pt x="419" y="899" on="0"/>
        <pt x="451" y="919" on="0"/>
        <pt x="465" y="946" on="0"/>
        <pt x="468" y="966" on="0"/>
        <pt x="468" y="966" on="1"/>
        <pt x="578" y="966" on="1"/>
        <pt x="578" y="966" on="0"/>
        <pt x="575" y="933" on="0"/>
        <pt x="559" y="885" on="0"/>
        <pt x="520" y="837" on="0"/>
        <pt x="448" y="805" on="0"/>
      </contour>
      <contour>
        <pt x="25" y="0" on="1"/>
        <pt x="274" y="740" on="1"/>
        <pt x="506" y="740" on="1"/>
        <pt x="755" y="0" on="1"/>
        <pt x="574" y="0" on="1"/>
        <pt x="531" y="135" on="1"/>
        <pt x="249" y="135" on="1"/>
        <pt x="206" y="0" on="1"/>
      </contour>
      <contour>
        <pt x="296" y="283" on="1"/>
        <pt x="484" y="283" on="1"/>
        <pt x="390" y="574" on="1"/>
      </contour>
    </TTGlyph>
    <TTGlyph name="Acircumflex" xMin="25" yMin="0" xMax="755" yMax="959">
      <contour>
        <pt x="192" y="802" on="1"/>
        <pt x="324" y="959" on="1"/>
        <pt x="458" y="959" on="1"/>
        <pt x="590" y="802" on="1"/>
        <pt x="460" y="802" on="1"/>
        <pt x="391" y="886" on="1"/>
        <pt x="322" y="802" on="1"/>
      </contour>
      <contour>
        <pt x="25" y="0" on="1"/>
        <pt x="274" y="740" on="1"/>
        <pt x="506" y="740" on="1"/>
        <pt x="755" y="0" on="1"/>
        <pt x="574" y="0" on="1"/>
        <pt x="531" y="135" on="1"/>
        <pt x="249" y="135" on="1"/>
        <pt x="206" y="0" on="1"/>
      </contour>
      <contour>
        <pt x="296" y="283" on="1"/>
        <pt x="484" y="283" on="1"/>
        <pt x="390" y="574" on="1"/>
      </contour>
    </TTGlyph>
    <TTGlyph name="Adieresis" xMin="25" yMin="0" xMax="755" yMax="975">
      <contour>
        <pt x="509" y="794" on="1"/>
        <pt x="468" y="794" on="0"/>
        <pt x="415" y="848" on="0"/>
        <pt x="415" y="885" on="1"/>
        <pt x="415" y="922" on="0"/>
        <pt x="468" y="975" on="0"/>
        <pt x="509" y="975" on="1"/>
        <pt x="550" y="975" on="0"/>
        <pt x="604" y="922" on="0"/>
        <pt x="604" y="885" on="1"/>
        <pt x="604" y="848" on="0"/>
        <pt x="550" y="794" on="0"/>
      </contour>
      <contour>
        <pt x="271" y="794" on="1"/>
        <pt x="229" y="794" on="0"/>
        <pt x="176" y="848" on="0"/>
        <pt x="176" y="885" on="1"/>
        <pt x="176" y="922" on="0"/>
        <pt x="229" y="975" on="0"/>
        <pt x="271" y="975" on="1"/>
        <pt x="311" y="975" on="0"/>
        <pt x="365" y="922" on="0"/>
        <pt x="365" y="885" on="1"/>
        <pt x="365" y="848" on="0"/>
        <pt x="311" y="794" on="0"/>
      </contour>
      <contour>
        <pt x="25" y="0" on="1"/>
        <pt x="274" y="740" on="1"/>
        <pt x="506" y="740" on="1"/>
        <pt x="755" y="0" on="1"/>
        <pt x="574" y="0" on="1"/>
        <pt x="531" y="135" on="1"/>
        <pt x="249" y="135" on="1"/>
        <pt x="206" y="0" on="1"/>
      </contour>
      <contour>
        <pt x="296" y="283" on="1"/>
        <pt x="484" y="283" on="1"/>
        <pt x="390" y="574" on="1"/>
      </contour>
    </TTGlyph>
    <TTGlyph name="Agrave" xMin="25" yMin="0" xMax="755" yMax="991">
      <contour>
        <pt x="331" y="811" on="1"/>
        <pt x="219" y="991" on="1"/>
        <pt x="375" y="991" on="1"/>
        <pt x="454" y="812" on="1"/>
      </contour>
      <contour>
        <pt x="25" y="0" on="1"/>
        <pt x="274" y="740" on="1"/>
        <pt x="506" y="740" on="1"/>
        <pt x="755" y="0" on="1"/>
        <pt x="574" y="0" on="1"/>
        <pt x="531" y="135" on="1"/>
        <pt x="249" y="135" on="1"/>
        <pt x="206" y="0" on="1"/>
      </contour>
      <contour>
        <pt x="296" y="283" on="1"/>
        <pt x="484" y="283" on="1"/>
        <pt x="390" y="574" on="1"/>
      </contour>
    </TTGlyph>
    <TTGlyph name="Amacron" xMin="25" yMin="0" xMax="755" yMax="918">
      <contour>
        <pt x="224" y="822" on="1"/>
        <pt x="224" y="918" on="1"/>
        <pt x="557" y="918" on="1"/>
        <pt x="557" y="822" on="1"/>
      </contour>
      <contour>
        <pt x="25" y="0" on="1"/>
        <pt x="274" y="740" on="1"/>
        <pt x="506" y="740" on="1"/>
        <pt x="755" y="0" on="1"/>
        <pt x="574" y="0" on="1"/>
        <pt x="531" y="135" on="1"/>
        <pt x="249" y="135" on="1"/>
        <pt x="206" y="0" on="1"/>
      </contour>
      <contour>
        <pt x="296" y="283" on="1"/>
        <pt x="484" y="283" on="1"/>
        <pt x="390" y="574" on="1"/>
      </contour>
    </TTGlyph>
    <TTGlyph name="Aogonek" xMin="25" yMin="-189" xMax="791" yMax="740">
      <contour>
        <pt x="25" y="0" on="1"/>
        <pt x="274" y="740" on="1"/>
        <pt x="506" y="740" on="1"/>
        <pt x="755" y="0" on="1"/>
        <pt x="755" y="0" on="0"/>
        <pt x="730" y="-13" on="0"/>
        <pt x="705" y="-38" on="0"/>
        <pt x="705" y="-57" on="1"/>
        <pt x="705" y="-71" on="0"/>
        <pt x="730" y="-93" on="0"/>
        <pt x="758" y="-93" on="1"/>
        <pt x="770" y="-93" on="0"/>
        <pt x="791" y="-90" on="0"/>
        <pt x="791" y="-90" on="1"/>
        <pt x="791" y="-184" on="1"/>
        <pt x="791" y="-184" on="0"/>
        <pt x="757" y="-189" on="0"/>
        <pt x="732" y="-189" on="1"/>
        <pt x="654" y="-189" on="0"/>
        <pt x="585" y="-127" on="0"/>
        <pt x="585" y="-86" on="1"/>
        <pt x="585" y="-55" on="0"/>
        <pt x="614" y="-13" on="0"/>
        <pt x="634" y="0" on="1"/>
        <pt x="574" y="0" on="1"/>
        <pt x="531" y="135" on="1"/>
        <pt x="249" y="135" on="1"/>
        <pt x="206" y="0" on="1"/>
      </contour>
      <contour>
        <pt x="296" y="283" on="1"/>
        <pt x="484" y="283" on="1"/>
        <pt x="390" y="574" on="1"/>
      </contour>
    </TTGlyph>
    <TTGlyph name="Aring" xMin="25" yMin="0" xMax="755" yMax="1069">
      <contour>
        <pt x="390" y="793" on="1"/>
        <pt x="352" y="793" on="0"/>
        <pt x="289" y="830" on="0"/>
        <pt x="252" y="893" on="0"/>
        <pt x="252" y="931" on="1"/>
        <pt x="252" y="969" on="0"/>
        <pt x="289" y="1032" on="0"/>
        <pt x="352" y="1069" on="0"/>
        <pt x="390" y="1069" on="1"/>
        <pt x="429" y="1069" on="0"/>
        <pt x="491" y="1032" on="0"/>
        <pt x="529" y="969" on="0"/>
        <pt x="529" y="931" on="1"/>
        <pt x="529" y="893" on="0"/>
        <pt x="491" y="830" on="0"/>
        <pt x="429" y="793" on="0"/>
      </contour>
      <contour>
        <pt x="390" y="878" on="1"/>
        <pt x="412" y="878" on="0"/>
        <pt x="443" y="909" on="0"/>
        <pt x="443" y="931" on="1"/>
        <pt x="443" y="953" on="0"/>
        <pt x="412" y="983" on="0"/>
        <pt x="390" y="983" on="1"/>
        <pt x="368" y="983" on="0"/>
        <pt x="337" y="953" on="0"/>
        <pt x="337" y="931" on="1"/>
        <pt x="337" y="909" on="0"/>
        <pt x="368" y="878" on="0"/>
      </contour>
      <contour>
        <pt x="25" y="0" on="1"/>
        <pt x="274" y="740" on="1"/>
        <pt x="506" y="740" on="1"/>
        <pt x="755" y="0" on="1"/>
        <pt x="574" y="0" on="1"/>
        <pt x="531" y="135" on="1"/>
        <pt x="249" y="135" on="1"/>
        <pt x="206" y="0" on="1"/>
      </contour>
      <contour>
        <pt x="296" y="283" on="1"/>
        <pt x="484" y="283" on="1"/>
        <pt x="390" y="574" on="1"/>
      </contour>
    </TTGlyph>
    <TTGlyph name="Atilde" xMin="25" yMin="0" xMax="755" yMax="982">
      <contour>
        <pt x="466" y="823" on="1"/>
        <pt x="439" y="823" on="0"/>
        <pt x="400" y="841" on="0"/>
        <pt x="370" y="865" on="0"/>
        <pt x="344" y="883" on="0"/>
        <pt x="330" y="883" on="1"/>
        <pt x="315" y="883" on="0"/>
        <pt x="303" y="855" on="0"/>
        <pt x="303" y="829" on="1"/>
        <pt x="216" y="829" on="1"/>
        <pt x="216" y="863" on="0"/>
        <pt x="232" y="934" on="0"/>
        <pt x="277" y="982" on="0"/>
        <pt x="320" y="982" on="1"/>
        <pt x="348" y="982" on="0"/>
        <pt x="388" y="964" on="0"/>
        <pt x="419" y="940" on="0"/>
        <pt x="444" y="922" on="0"/>
        <pt x="457" y="922" on="1"/>
        <pt x="483" y="922" on="0"/>
        <pt x="483" y="976" on="1"/>
        <pt x="571" y="976" on="1"/>
        <pt x="571" y="942" on="0"/>
        <pt x="555" y="871" on="0"/>
        <pt x="510" y="823" on="0"/>
      </contour>
      <contour>
        <pt x="25" y="0" on="1"/>
        <pt x="274" y="740" on="1"/>
        <pt x="506" y="740" on="1"/>
        <pt x="755" y="0" on="1"/>
        <pt x="574" y="0" on="1"/>
        <pt x="531" y="135" on="1"/>
        <pt x="249" y="135" on="1"/>
        <pt x="206" y="0" on="1"/>
      </contour>
      <contour>
        <pt x="296" y="283" on="1"/>
        <pt x="484" y="283" on="1"/>
        <pt x="390" y="574" on="1"/>
      </contour>
    </TTGlyph>
    <TTGlyph name="B" xMin="64" yMin="0" xMax="678" yMax="740">
      <contour>
        <pt x="64" y="0" on="1"/>
        <pt x="64" y="740" on="1"/>
        <pt x="425" y="740" on="1"/>
        <pt x="497" y="740" on="0"/>
        <pt x="596" y="691" on="0"/>
        <pt x="647" y="608" on="0"/>
        <pt x="647" y="558" on="1"/>
        <pt x="647" y="511" on="0"/>
        <pt x="613" y="447" on="0"/>
        <pt x="561" y="407" on="0"/>
        <pt x="534" y="400" on="1"/>
        <pt x="534" y="391" on="1"/>
        <pt x="562" y="385" on="0"/>
        <pt x="629" y="345" on="0"/>
        <pt x="678" y="270" on="0"/>
        <pt x="678" y="211" on="1"/>
        <pt x="678" y="158" on="0"/>
        <pt x="629" y="62" on="0"/>
        <pt x="521" y="0" on="0"/>
        <pt x="433" y="0" on="1"/>
      </contour>
      <contour>
        <pt x="392" y="596" on="1"/>
        <pt x="237" y="596" on="1"/>
        <pt x="237" y="445" on="1"/>
        <pt x="392" y="445" on="1"/>
        <pt x="437" y="445" on="0"/>
        <pt x="480" y="488" on="0"/>
        <pt x="480" y="521" on="1"/>
        <pt x="480" y="553" on="0"/>
        <pt x="437" y="596" on="0"/>
      </contour>
      <contour>
        <pt x="405" y="315" on="1"/>
        <pt x="237" y="315" on="1"/>
        <pt x="237" y="144" on="1"/>
        <pt x="405" y="144" on="1"/>
        <pt x="456" y="144" on="0"/>
        <pt x="504" y="193" on="0"/>
        <pt x="504" y="231" on="1"/>
        <pt x="504" y="267" on="0"/>
        <pt x="456" y="315" on="0"/>
      </contour>
    </TTGlyph>
    <TTGlyph name="C" xMin="35" yMin="-10" xMax="746" yMax="750">
      <contour>
        <pt x="407" y="-10" on="1"/>
        <pt x="315" y="-10" on="0"/>
        <pt x="175" y="55" on="0"/>
        <pt x="82" y="164" on="0"/>
        <pt x="35" y="300" on="0"/>
        <pt x="35" y="371" on="1"/>
        <pt x="35" y="441" on="0"/>
        <pt x="82" y="577" on="0"/>
        <pt x="175" y="685" on="0"/>
        <pt x="315" y="750" on="0"/>
        <pt x="407" y="750" on="1"/>
        <pt x="486" y="750" on="0"/>
        <pt x="597" y="711" on="0"/>
        <pt x="672" y="648" on="0"/>
        <pt x="717" y="579" on="0"/>
        <pt x="739" y="517" on="0"/>
        <pt x="746" y="477" on="0"/>
        <pt x="746" y="477" on="1"/>
        <pt x="575" y="477" on="1"/>
        <pt x="575" y="477" on="0"/>
        <pt x="564" y="513" on="0"/>
        <pt x="531" y="560" on="0"/>
        <pt x="465" y="596" on="0"/>
        <pt x="409" y="596" on="1"/>
        <pt x="344" y="596" on="0"/>
        <pt x="257" y="530" on="0"/>
        <pt x="214" y="427" on="0"/>
        <pt x="214" y="371" on="1"/>
        <pt x="214" y="315" on="0"/>
        <pt x="257" y="211" on="0"/>
        <pt x="344" y="145" on="0"/>
        <pt x="409" y="145" on="1"/>
        <pt x="465" y="145" on="0"/>
        <pt x="531" y="181" on="0"/>
        <pt x="564" y="227" on="0"/>
        <pt x="575" y="263" on="0"/>
        <pt x="575" y="263" on="1"/>
        <pt x="746" y="263" on="1"/>
        <pt x="746" y="263" on="0"/>
        <pt x="739" y="224" on="0"/>
        <pt x="717" y="161" on="0"/>
        <pt x="672" y="92" on="0"/>
        <pt x="597" y="29" on="0"/>
        <pt x="486" y="-10" on="0"/>
      </contour>
    </TTGlyph>
    <TTGlyph name="Cacute" xMin="35" yMin="-10" xMax="746" yMax="990">
      <contour>
        <pt x="470" y="810" on="1"/>
        <pt x="347" y="811" on="1"/>
        <pt x="426" y="990" on="1"/>
        <pt x="582" y="990" on="1"/>
      </contour>
      <contour>
        <pt x="407" y="-10" on="1"/>
        <pt x="315" y="-10" on="0"/>
        <pt x="175" y="55" on="0"/>
        <pt x="82" y="164" on="0"/>
        <pt x="35" y="300" on="0"/>
        <pt x="35" y="371" on="1"/>
        <pt x="35" y="441" on="0"/>
        <pt x="82" y="577" on="0"/>
        <pt x="175" y="685" on="0"/>
        <pt x="315" y="750" on="0"/>
        <pt x="407" y="750" on="1"/>
        <pt x="486" y="750" on="0"/>
        <pt x="597" y="711" on="0"/>
        <pt x="672" y="648" on="0"/>
        <pt x="717" y="579" on="0"/>
        <pt x="739" y="517" on="0"/>
        <pt x="746" y="477" on="0"/>
        <pt x="746" y="477" on="1"/>
        <pt x="575" y="477" on="1"/>
        <pt x="575" y="477" on="0"/>
        <pt x="564" y="513" on="0"/>
        <pt x="531" y="560" on="0"/>
        <pt x="465" y="596" on="0"/>
        <pt x="409" y="596" on="1"/>
        <pt x="344" y="596" on="0"/>
        <pt x="257" y="530" on="0"/>
        <pt x="214" y="427" on="0"/>
        <pt x="214" y="371" on="1"/>
        <pt x="214" y="315" on="0"/>
        <pt x="257" y="211" on="0"/>
        <pt x="344" y="145" on="0"/>
        <pt x="409" y="145" on="1"/>
        <pt x="465" y="145" on="0"/>
        <pt x="531" y="181" on="0"/>
        <pt x="564" y="227" on="0"/>
        <pt x="575" y="263" on="0"/>
        <pt x="575" y="263" on="1"/>
        <pt x="746" y="263" on="1"/>
        <pt x="746" y="263" on="0"/>
        <pt x="739" y="224" on="0"/>
        <pt x="717" y="161" on="0"/>
        <pt x="672" y="92" on="0"/>
        <pt x="597" y="29" on="0"/>
        <pt x="486" y="-10" on="0"/>
      </contour>
    </TTGlyph>
    <TTGlyph name="Ccaron" xMin="35" yMin="-10" xMax="746" yMax="984">
      <contour>
        <pt x="340" y="799" on="1"/>
        <pt x="208" y="984" on="1"/>
        <pt x="338" y="984" on="1"/>
        <pt x="408" y="881" on="1"/>
        <pt x="476" y="984" on="1"/>
        <pt x="606" y="984" on="1"/>
        <pt x="474" y="799" on="1"/>
      </contour>
      <contour>
        <pt x="407" y="-10" on="1"/>
        <pt x="315" y="-10" on="0"/>
        <pt x="175" y="55" on="0"/>
        <pt x="82" y="164" on="0"/>
        <pt x="35" y="300" on="0"/>
        <pt x="35" y="371" on="1"/>
        <pt x="35" y="441" on="0"/>
        <pt x="82" y="577" on="0"/>
        <pt x="175" y="685" on="0"/>
        <pt x="315" y="750" on="0"/>
        <pt x="407" y="750" on="1"/>
        <pt x="486" y="750" on="0"/>
        <pt x="597" y="711" on="0"/>
        <pt x="672" y="648" on="0"/>
        <pt x="717" y="579" on="0"/>
        <pt x="739" y="517" on="0"/>
        <pt x="746" y="477" on="0"/>
        <pt x="746" y="477" on="1"/>
        <pt x="575" y="477" on="1"/>
        <pt x="575" y="477" on="0"/>
        <pt x="564" y="513" on="0"/>
        <pt x="531" y="560" on="0"/>
        <pt x="465" y="596" on="0"/>
        <pt x="409" y="596" on="1"/>
        <pt x="344" y="596" on="0"/>
        <pt x="257" y="530" on="0"/>
        <pt x="214" y="427" on="0"/>
        <pt x="214" y="371" on="1"/>
        <pt x="214" y="315" on="0"/>
        <pt x="257" y="211" on="0"/>
        <pt x="344" y="145" on="0"/>
        <pt x="409" y="145" on="1"/>
        <pt x="465" y="145" on="0"/>
        <pt x="531" y="181" on="0"/>
        <pt x="564" y="227" on="0"/>
        <pt x="575" y="263" on="0"/>
        <pt x="575" y="263" on="1"/>
        <pt x="746" y="263" on="1"/>
        <pt x="746" y="263" on="0"/>
        <pt x="739" y="224" on="0"/>
        <pt x="717" y="161" on="0"/>
        <pt x="672" y="92" on="0"/>
        <pt x="597" y="29" on="0"/>
        <pt x="486" y="-10" on="0"/>
      </contour>
    </TTGlyph>
    <TTGlyph name="Ccedilla" xMin="35" yMin="-262" xMax="746" yMax="750">
      <contour>
        <pt x="385" y="-262" on="1"/>
        <pt x="365" y="-262" on="0"/>
        <pt x="326" y="-258" on="0"/>
        <pt x="300" y="-255" on="0"/>
        <pt x="300" y="-255" on="1"/>
        <pt x="300" y="-169" on="1"/>
        <pt x="300" y="-169" on="0"/>
        <pt x="325" y="-172" on="0"/>
        <pt x="361" y="-175" on="0"/>
        <pt x="376" y="-175" on="1"/>
        <pt x="419" y="-175" on="0"/>
        <pt x="448" y="-150" on="0"/>
        <pt x="448" y="-137" on="1"/>
        <pt x="448" y="-124" on="0"/>
        <pt x="428" y="-108" on="0"/>
        <pt x="410" y="-108" on="1"/>
        <pt x="388" y="-108" on="0"/>
        <pt x="355" y="-127" on="0"/>
        <pt x="355" y="-127" on="1"/>
        <pt x="297" y="-67" on="1"/>
        <pt x="341" y="-5" on="1"/>
        <pt x="265" y="7" on="0"/>
        <pt x="150" y="78" on="0"/>
        <pt x="73" y="182" on="0"/>
        <pt x="35" y="306" on="0"/>
        <pt x="35" y="371" on="1"/>
        <pt x="35" y="441" on="0"/>
        <pt x="82" y="577" on="0"/>
        <pt x="175" y="685" on="0"/>
        <pt x="315" y="750" on="0"/>
        <pt x="407" y="750" on="1"/>
        <pt x="486" y="750" on="0"/>
        <pt x="597" y="711" on="0"/>
        <pt x="672" y="648" on="0"/>
        <pt x="717" y="579" on="0"/>
        <pt x="739" y="517" on="0"/>
        <pt x="746" y="477" on="0"/>
        <pt x="746" y="477" on="1"/>
        <pt x="575" y="477" on="1"/>
        <pt x="575" y="477" on="0"/>
        <pt x="564" y="513" on="0"/>
        <pt x="531" y="560" on="0"/>
        <pt x="465" y="596" on="0"/>
        <pt x="409" y="596" on="1"/>
        <pt x="344" y="596" on="0"/>
        <pt x="257" y="530" on="0"/>
        <pt x="214" y="427" on="0"/>
        <pt x="214" y="371" on="1"/>
        <pt x="214" y="315" on="0"/>
        <pt x="257" y="211" on="0"/>
        <pt x="344" y="145" on="0"/>
        <pt x="409" y="145" on="1"/>
        <pt x="465" y="145" on="0"/>
        <pt x="531" y="181" on="0"/>
        <pt x="564" y="227" on="0"/>
        <pt x="575" y="263" on="0"/>
        <pt x="575" y="263" on="1"/>
        <pt x="746" y="263" on="1"/>
        <pt x="746" y="263" on="0"/>
        <pt x="740" y="226" on="0"/>
        <pt x="720" y="168" on="0"/>
        <pt x="679" y="101" on="0"/>
        <pt x="613" y="39" on="0"/>
        <pt x="513" y="-4" on="0"/>
        <pt x="443" y="-9" on="1"/>
        <pt x="421" y="-38" on="1"/>
        <pt x="431" y="-36" on="0"/>
        <pt x="443" y="-36" on="1"/>
        <pt x="492" y="-36" on="0"/>
        <pt x="550" y="-94" on="0"/>
        <pt x="550" y="-139" on="1"/>
        <pt x="550" y="-171" on="0"/>
        <pt x="515" y="-227" on="0"/>
        <pt x="442" y="-262" on="0"/>
      </contour>
    </TTGlyph>
    <TTGlyph name="Cdotaccent" xMin="35" yMin="-10" xMax="746" yMax="992">
      <contour>
        <pt x="408" y="801" on="1"/>
        <pt x="364" y="801" on="0"/>
        <pt x="308" y="857" on="0"/>
        <pt x="308" y="896" on="1"/>
        <pt x="308" y="936" on="0"/>
        <pt x="364" y="992" on="0"/>
        <pt x="408" y="992" on="1"/>
        <pt x="451" y="992" on="0"/>
        <pt x="507" y="936" on="0"/>
        <pt x="507" y="896" on="1"/>
        <pt x="507" y="857" on="0"/>
        <pt x="451" y="801" on="0"/>
      </contour>
      <contour>
        <pt x="407" y="-10" on="1"/>
        <pt x="315" y="-10" on="0"/>
        <pt x="175" y="55" on="0"/>
        <pt x="82" y="164" on="0"/>
        <pt x="35" y="300" on="0"/>
        <pt x="35" y="371" on="1"/>
        <pt x="35" y="441" on="0"/>
        <pt x="82" y="577" on="0"/>
        <pt x="175" y="685" on="0"/>
        <pt x="315" y="750" on="0"/>
        <pt x="407" y="750" on="1"/>
        <pt x="486" y="750" on="0"/>
        <pt x="597" y="711" on="0"/>
        <pt x="672" y="648" on="0"/>
        <pt x="717" y="579" on="0"/>
        <pt x="739" y="517" on="0"/>
        <pt x="746" y="477" on="0"/>
        <pt x="746" y="477" on="1"/>
        <pt x="575" y="477" on="1"/>
        <pt x="575" y="477" on="0"/>
        <pt x="564" y="513" on="0"/>
        <pt x="531" y="560" on="0"/>
        <pt x="465" y="596" on="0"/>
        <pt x="409" y="596" on="1"/>
        <pt x="344" y="596" on="0"/>
        <pt x="257" y="530" on="0"/>
        <pt x="214" y="427" on="0"/>
        <pt x="214" y="371" on="1"/>
        <pt x="214" y="315" on="0"/>
        <pt x="257" y="211" on="0"/>
        <pt x="344" y="145" on="0"/>
        <pt x="409" y="145" on="1"/>
        <pt x="465" y="145" on="0"/>
        <pt x="531" y="181" on="0"/>
        <pt x="564" y="227" on="0"/>
        <pt x="575" y="263" on="0"/>
        <pt x="575" y="263" on="1"/>
        <pt x="746" y="263" on="1"/>
        <pt x="746" y="263" on="0"/>
        <pt x="739" y="224" on="0"/>
        <pt x="717" y="161" on="0"/>
        <pt x="672" y="92" on="0"/>
        <pt x="597" y="29" on="0"/>
        <pt x="486" y="-10" on="0"/>
      </contour>
    </TTGlyph>
    <TTGlyph name="D" xMin="64" yMin="0" xMax="723" yMax="740">
      <contour>
        <pt x="64" y="0" on="1"/>
        <pt x="64" y="740" on="1"/>
        <pt x="357" y="740" on="1"/>
        <pt x="448" y="740" on="0"/>
        <pt x="586" y="677" on="0"/>
        <pt x="677" y="571" on="0"/>
        <pt x="723" y="439" on="0"/>
        <pt x="723" y="370" on="1"/>
        <pt x="723" y="301" on="0"/>
        <pt x="677" y="169" on="0"/>
        <pt x="586" y="63" on="0"/>
        <pt x="448" y="0" on="0"/>
        <pt x="357" y="0" on="1"/>
      </contour>
      <contour>
        <pt x="349" y="588" on="1"/>
        <pt x="237" y="588" on="1"/>
        <pt x="237" y="154" on="1"/>
        <pt x="349" y="154" on="1"/>
        <pt x="418" y="154" on="0"/>
        <pt x="507" y="218" on="0"/>
        <pt x="549" y="317" on="0"/>
        <pt x="549" y="372" on="1"/>
        <pt x="549" y="425" on="0"/>
        <pt x="507" y="525" on="0"/>
        <pt x="418" y="588" on="0"/>
      </contour>
    </TTGlyph>
    <TTGlyph name="Dcaron" xMin="66" yMin="0" xMax="725" yMax="986">
      <contour>
        <pt x="292" y="801" on="1"/>
        <pt x="159" y="986" on="1"/>
        <pt x="289" y="986" on="1"/>
        <pt x="359" y="883" on="1"/>
        <pt x="428" y="986" on="1"/>
        <pt x="558" y="986" on="1"/>
        <pt x="425" y="801" on="1"/>
      </contour>
      <contour>
        <pt x="66" y="0" on="1"/>
        <pt x="66" y="740" on="1"/>
        <pt x="359" y="740" on="1"/>
        <pt x="450" y="740" on="0"/>
        <pt x="588" y="677" on="0"/>
        <pt x="679" y="571" on="0"/>
        <pt x="725" y="439" on="0"/>
        <pt x="725" y="370" on="1"/>
        <pt x="725" y="301" on="0"/>
        <pt x="679" y="169" on="0"/>
        <pt x="588" y="63" on="0"/>
        <pt x="450" y="0" on="0"/>
        <pt x="359" y="0" on="1"/>
      </contour>
      <contour>
        <pt x="351" y="588" on="1"/>
        <pt x="239" y="588" on="1"/>
        <pt x="239" y="154" on="1"/>
        <pt x="351" y="154" on="1"/>
        <pt x="420" y="154" on="0"/>
        <pt x="509" y="218" on="0"/>
        <pt x="551" y="317" on="0"/>
        <pt x="551" y="372" on="1"/>
        <pt x="551" y="425" on="0"/>
        <pt x="509" y="525" on="0"/>
        <pt x="420" y="588" on="0"/>
      </contour>
    </TTGlyph>
    <TTGlyph name="Dcroat" xMin="12" yMin="0" xMax="748" yMax="740">
      <contour>
        <pt x="89" y="0" on="1"/>
        <pt x="89" y="302" on="1"/>
        <pt x="12" y="302" on="1"/>
        <pt x="12" y="438" on="1"/>
        <pt x="89" y="438" on="1"/>
        <pt x="89" y="740" on="1"/>
        <pt x="382" y="740" on="1"/>
        <pt x="473" y="740" on="0"/>
        <pt x="611" y="677" on="0"/>
        <pt x="702" y="571" on="0"/>
        <pt x="748" y="439" on="0"/>
        <pt x="748" y="370" on="1"/>
        <pt x="748" y="301" on="0"/>
        <pt x="702" y="169" on="0"/>
        <pt x="611" y="63" on="0"/>
        <pt x="473" y="0" on="0"/>
        <pt x="382" y="0" on="1"/>
      </contour>
      <contour>
        <pt x="395" y="302" on="1"/>
        <pt x="262" y="302" on="1"/>
        <pt x="262" y="154" on="1"/>
        <pt x="374" y="154" on="1"/>
        <pt x="442" y="154" on="0"/>
        <pt x="531" y="218" on="0"/>
        <pt x="574" y="317" on="0"/>
        <pt x="574" y="372" on="1"/>
        <pt x="574" y="425" on="0"/>
        <pt x="531" y="525" on="0"/>
        <pt x="442" y="588" on="0"/>
        <pt x="374" y="588" on="1"/>
        <pt x="262" y="588" on="1"/>
        <pt x="262" y="438" on="1"/>
        <pt x="395" y="438" on="1"/>
      </contour>
    </TTGlyph>
    <TTGlyph name="E" xMin="64" yMin="0" xMax="592" yMax="740">
      <contour>
        <pt x="64" y="0" on="1"/>
        <pt x="64" y="740" on="1"/>
        <pt x="587" y="740" on="1"/>
        <pt x="587" y="590" on="1"/>
        <pt x="237" y="590" on="1"/>
        <pt x="237" y="447" on="1"/>
        <pt x="542" y="447" on="1"/>
        <pt x="542" y="304" on="1"/>
        <pt x="237" y="304" on="1"/>
        <pt x="237" y="150" on="1"/>
        <pt x="592" y="150" on="1"/>
        <pt x="592" y="0" on="1"/>
      </contour>
    </TTGlyph>
    <TTGlyph name="Eacute" xMin="66" yMin="0" xMax="594" yMax="991">
      <contour>
        <pt x="392" y="811" on="1"/>
        <pt x="269" y="812" on="1"/>
        <pt x="348" y="991" on="1"/>
        <pt x="504" y="991" on="1"/>
      </contour>
      <contour>
        <pt x="66" y="0" on="1"/>
        <pt x="66" y="740" on="1"/>
        <pt x="589" y="740" on="1"/>
        <pt x="589" y="590" on="1"/>
        <pt x="239" y="590" on="1"/>
        <pt x="239" y="447" on="1"/>
        <pt x="544" y="447" on="1"/>
        <pt x="544" y="304" on="1"/>
        <pt x="239" y="304" on="1"/>
        <pt x="239" y="150" on="1"/>
        <pt x="594" y="150" on="1"/>
        <pt x="594" y="0" on="1"/>
      </contour>
    </TTGlyph>
    <TTGlyph name="Ecaron" xMin="66" yMin="0" xMax="594" yMax="986">
      <contour>
        <pt x="262" y="801" on="1"/>
        <pt x="130" y="986" on="1"/>
        <pt x="260" y="986" on="1"/>
        <pt x="330" y="883" on="1"/>
        <pt x="398" y="986" on="1"/>
        <pt x="528" y="986" on="1"/>
        <pt x="396" y="801" on="1"/>
      </contour>
      <contour>
        <pt x="66" y="0" on="1"/>
        <pt x="66" y="740" on="1"/>
        <pt x="589" y="740" on="1"/>
        <pt x="589" y="590" on="1"/>
        <pt x="239" y="590" on="1"/>
        <pt x="239" y="447" on="1"/>
        <pt x="544" y="447" on="1"/>
        <pt x="544" y="304" on="1"/>
        <pt x="239" y="304" on="1"/>
        <pt x="239" y="150" on="1"/>
        <pt x="594" y="150" on="1"/>
        <pt x="594" y="0" on="1"/>
      </contour>
    </TTGlyph>
    <TTGlyph name="Ecircumflex" xMin="66" yMin="0" xMax="594" yMax="959">
      <contour>
        <pt x="131" y="802" on="1"/>
        <pt x="263" y="959" on="1"/>
        <pt x="397" y="959" on="1"/>
        <pt x="529" y="802" on="1"/>
        <pt x="399" y="802" on="1"/>
        <pt x="330" y="886" on="1"/>
        <pt x="261" y="802" on="1"/>
      </contour>
      <contour>
        <pt x="66" y="0" on="1"/>
        <pt x="66" y="740" on="1"/>
        <pt x="589" y="740" on="1"/>
        <pt x="589" y="590" on="1"/>
        <pt x="239" y="590" on="1"/>
        <pt x="239" y="447" on="1"/>
        <pt x="544" y="447" on="1"/>
        <pt x="544" y="304" on="1"/>
        <pt x="239" y="304" on="1"/>
        <pt x="239" y="150" on="1"/>
        <pt x="594" y="150" on="1"/>
        <pt x="594" y="0" on="1"/>
      </contour>
    </TTGlyph>
    <TTGlyph name="Edieresis" xMin="66" yMin="0" xMax="594" yMax="975">
      <contour>
        <pt x="448" y="794" on="1"/>
        <pt x="407" y="794" on="0"/>
        <pt x="354" y="848" on="0"/>
        <pt x="354" y="885" on="1"/>
        <pt x="354" y="922" on="0"/>
        <pt x="407" y="975" on="0"/>
        <pt x="448" y="975" on="1"/>
        <pt x="489" y="975" on="0"/>
        <pt x="543" y="922" on="0"/>
        <pt x="543" y="885" on="1"/>
        <pt x="543" y="848" on="0"/>
        <pt x="489" y="794" on="0"/>
      </contour>
      <contour>
        <pt x="210" y="794" on="1"/>
        <pt x="168" y="794" on="0"/>
        <pt x="115" y="848" on="0"/>
        <pt x="115" y="885" on="1"/>
        <pt x="115" y="922" on="0"/>
        <pt x="168" y="975" on="0"/>
        <pt x="210" y="975" on="1"/>
        <pt x="250" y="975" on="0"/>
        <pt x="304" y="922" on="0"/>
        <pt x="304" y="885" on="1"/>
        <pt x="304" y="848" on="0"/>
        <pt x="250" y="794" on="0"/>
      </contour>
      <contour>
        <pt x="66" y="0" on="1"/>
        <pt x="66" y="740" on="1"/>
        <pt x="589" y="740" on="1"/>
        <pt x="589" y="590" on="1"/>
        <pt x="239" y="590" on="1"/>
        <pt x="239" y="447" on="1"/>
        <pt x="544" y="447" on="1"/>
        <pt x="544" y="304" on="1"/>
        <pt x="239" y="304" on="1"/>
        <pt x="239" y="150" on="1"/>
        <pt x="594" y="150" on="1"/>
        <pt x="594" y="0" on="1"/>
      </contour>
    </TTGlyph>
    <TTGlyph name="Edotaccent" xMin="66" yMin="0" xMax="594" yMax="993">
      <contour>
        <pt x="330" y="802" on="1"/>
        <pt x="286" y="802" on="0"/>
        <pt x="230" y="859" on="0"/>
        <pt x="230" y="898" on="1"/>
        <pt x="230" y="937" on="0"/>
        <pt x="286" y="993" on="0"/>
        <pt x="330" y="993" on="1"/>
        <pt x="373" y="993" on="0"/>
        <pt x="429" y="937" on="0"/>
        <pt x="429" y="898" on="1"/>
        <pt x="429" y="858" on="0"/>
        <pt x="373" y="802" on="0"/>
      </contour>
      <contour>
        <pt x="66" y="0" on="1"/>
        <pt x="66" y="740" on="1"/>
        <pt x="589" y="740" on="1"/>
        <pt x="589" y="590" on="1"/>
        <pt x="239" y="590" on="1"/>
        <pt x="239" y="447" on="1"/>
        <pt x="544" y="447" on="1"/>
        <pt x="544" y="304" on="1"/>
        <pt x="239" y="304" on="1"/>
        <pt x="239" y="150" on="1"/>
        <pt x="594" y="150" on="1"/>
        <pt x="594" y="0" on="1"/>
      </contour>
    </TTGlyph>
    <TTGlyph name="Egrave" xMin="66" yMin="0" xMax="594" yMax="991">
      <contour>
        <pt x="270" y="811" on="1"/>
        <pt x="158" y="991" on="1"/>
        <pt x="314" y="991" on="1"/>
        <pt x="393" y="812" on="1"/>
      </contour>
      <contour>
        <pt x="66" y="0" on="1"/>
        <pt x="66" y="740" on="1"/>
        <pt x="589" y="740" on="1"/>
        <pt x="589" y="590" on="1"/>
        <pt x="239" y="590" on="1"/>
        <pt x="239" y="447" on="1"/>
        <pt x="544" y="447" on="1"/>
        <pt x="544" y="304" on="1"/>
        <pt x="239" y="304" on="1"/>
        <pt x="239" y="150" on="1"/>
        <pt x="594" y="150" on="1"/>
        <pt x="594" y="0" on="1"/>
      </contour>
    </TTGlyph>
    <TTGlyph name="Emacron" xMin="66" yMin="0" xMax="594" yMax="918">
      <contour>
        <pt x="163" y="822" on="1"/>
        <pt x="163" y="918" on="1"/>
        <pt x="496" y="918" on="1"/>
        <pt x="496" y="822" on="1"/>
      </contour>
      <contour>
        <pt x="66" y="0" on="1"/>
        <pt x="66" y="740" on="1"/>
        <pt x="589" y="740" on="1"/>
        <pt x="589" y="590" on="1"/>
        <pt x="239" y="590" on="1"/>
        <pt x="239" y="447" on="1"/>
        <pt x="544" y="447" on="1"/>
        <pt x="544" y="304" on="1"/>
        <pt x="239" y="304" on="1"/>
        <pt x="239" y="150" on="1"/>
        <pt x="594" y="150" on="1"/>
        <pt x="594" y="0" on="1"/>
      </contour>
    </TTGlyph>
    <TTGlyph name="Eogonek" xMin="66" yMin="-189" xMax="630" yMax="740">
      <contour>
        <pt x="66" y="0" on="1"/>
        <pt x="66" y="740" on="1"/>
        <pt x="589" y="740" on="1"/>
        <pt x="589" y="590" on="1"/>
        <pt x="239" y="590" on="1"/>
        <pt x="239" y="447" on="1"/>
        <pt x="544" y="447" on="1"/>
        <pt x="544" y="304" on="1"/>
        <pt x="239" y="304" on="1"/>
        <pt x="239" y="150" on="1"/>
        <pt x="594" y="150" on="1"/>
        <pt x="594" y="0" on="1"/>
        <pt x="594" y="0" on="0"/>
        <pt x="569" y="-13" on="0"/>
        <pt x="544" y="-38" on="0"/>
        <pt x="544" y="-57" on="1"/>
        <pt x="544" y="-71" on="0"/>
        <pt x="568" y="-93" on="0"/>
        <pt x="597" y="-93" on="1"/>
        <pt x="609" y="-93" on="0"/>
        <pt x="630" y="-90" on="0"/>
        <pt x="630" y="-90" on="1"/>
        <pt x="630" y="-184" on="1"/>
        <pt x="630" y="-184" on="0"/>
        <pt x="596" y="-189" on="0"/>
        <pt x="570" y="-189" on="1"/>
        <pt x="493" y="-189" on="0"/>
        <pt x="423" y="-127" on="0"/>
        <pt x="423" y="-86" on="1"/>
        <pt x="423" y="-55" on="0"/>
        <pt x="453" y="-13" on="0"/>
        <pt x="472" y="0" on="1"/>
      </contour>
    </TTGlyph>
    <TTGlyph name="Eth" xMin="12" yMin="0" xMax="748" yMax="740">
      <contour>
        <pt x="89" y="0" on="1"/>
        <pt x="89" y="302" on="1"/>
        <pt x="12" y="302" on="1"/>
        <pt x="12" y="438" on="1"/>
        <pt x="89" y="438" on="1"/>
        <pt x="89" y="740" on="1"/>
        <pt x="382" y="740" on="1"/>
        <pt x="473" y="740" on="0"/>
        <pt x="611" y="677" on="0"/>
        <pt x="702" y="571" on="0"/>
        <pt x="748" y="439" on="0"/>
        <pt x="748" y="370" on="1"/>
        <pt x="748" y="301" on="0"/>
        <pt x="702" y="169" on="0"/>
        <pt x="611" y="63" on="0"/>
        <pt x="473" y="0" on="0"/>
        <pt x="382" y="0" on="1"/>
      </contour>
      <contour>
        <pt x="395" y="302" on="1"/>
        <pt x="262" y="302" on="1"/>
        <pt x="262" y="154" on="1"/>
        <pt x="374" y="154" on="1"/>
        <pt x="442" y="154" on="0"/>
        <pt x="531" y="218" on="0"/>
        <pt x="574" y="317" on="0"/>
        <pt x="574" y="372" on="1"/>
        <pt x="574" y="425" on="0"/>
        <pt x="531" y="525" on="0"/>
        <pt x="442" y="588" on="0"/>
        <pt x="374" y="588" on="1"/>
        <pt x="262" y="588" on="1"/>
        <pt x="262" y="438" on="1"/>
        <pt x="395" y="438" on="1"/>
      </contour>
    </TTGlyph>
    <TTGlyph name="Euro" xMin="24" yMin="-10" xMax="640" yMax="750">
      <contour>
        <pt x="24" y="268" on="1"/>
        <pt x="24" y="347" on="1"/>
        <pt x="100" y="347" on="1"/>
        <pt x="99" y="358" on="0"/>
        <pt x="99" y="370" on="1"/>
        <pt x="99" y="381" on="0"/>
        <pt x="100" y="392" on="1"/>
        <pt x="24" y="392" on="1"/>
        <pt x="24" y="471" on="1"/>
        <pt x="111" y="471" on="1"/>
        <pt x="130" y="546" on="0"/>
        <pt x="225" y="673" on="0"/>
        <pt x="381" y="750" on="0"/>
        <pt x="491" y="750" on="1"/>
        <pt x="526" y="750" on="0"/>
        <pt x="595" y="742" on="0"/>
        <pt x="640" y="734" on="0"/>
        <pt x="640" y="734" on="1"/>
        <pt x="640" y="584" on="1"/>
        <pt x="640" y="584" on="0"/>
        <pt x="596" y="592" on="0"/>
        <pt x="533" y="601" on="0"/>
        <pt x="502" y="601" on="1"/>
        <pt x="420" y="601" on="0"/>
        <pt x="318" y="526" on="0"/>
        <pt x="294" y="471" on="1"/>
        <pt x="540" y="471" on="1"/>
        <pt x="540" y="392" on="1"/>
        <pt x="276" y="392" on="1"/>
        <pt x="275" y="381" on="0"/>
        <pt x="275" y="370" on="1"/>
        <pt x="275" y="358" on="0"/>
        <pt x="276" y="347" on="1"/>
        <pt x="540" y="347" on="1"/>
        <pt x="540" y="268" on="1"/>
        <pt x="295" y="268" on="1"/>
        <pt x="318" y="214" on="0"/>
        <pt x="420" y="139" on="0"/>
        <pt x="502" y="139" on="1"/>
        <pt x="533" y="139" on="0"/>
        <pt x="596" y="148" on="0"/>
        <pt x="640" y="156" on="0"/>
        <pt x="640" y="156" on="1"/>
        <pt x="640" y="6" on="1"/>
        <pt x="640" y="6" on="0"/>
        <pt x="595" y="-2" on="0"/>
        <pt x="526" y="-10" on="0"/>
        <pt x="491" y="-10" on="1"/>
        <pt x="381" y="-10" on="0"/>
        <pt x="225" y="66" on="0"/>
        <pt x="130" y="193" on="0"/>
        <pt x="111" y="268" on="1"/>
      </contour>
    </TTGlyph>
    <TTGlyph name="F" xMin="64" yMin="0" xMax="590" yMax="740">
      <contour>
        <pt x="64" y="0" on="1"/>
        <pt x="64" y="740" on="1"/>
        <pt x="590" y="740" on="1"/>
        <pt x="590" y="590" on="1"/>
        <pt x="237" y="590" on="1"/>
        <pt x="237" y="413" on="1"/>
        <pt x="545" y="413" on="1"/>
        <pt x="545" y="269" on="1"/>
        <pt x="237" y="269" on="1"/>
        <pt x="237" y="0" on="1"/>
      </contour>
    </TTGlyph>
    <TTGlyph name="G" xMin="35" yMin="-10" xMax="758" yMax="750">
      <contour>
        <pt x="413" y="-10" on="1"/>
        <pt x="319" y="-10" on="0"/>
        <pt x="177" y="54" on="0"/>
        <pt x="82" y="163" on="0"/>
        <pt x="35" y="298" on="0"/>
        <pt x="35" y="369" on="1"/>
        <pt x="35" y="440" on="0"/>
        <pt x="83" y="576" on="0"/>
        <pt x="178" y="685" on="0"/>
        <pt x="322" y="750" on="0"/>
        <pt x="418" y="750" on="1"/>
        <pt x="494" y="750" on="0"/>
        <pt x="602" y="712" on="0"/>
        <pt x="675" y="652" on="0"/>
        <pt x="720" y="585" on="0"/>
        <pt x="743" y="526" on="0"/>
        <pt x="750" y="488" on="0"/>
        <pt x="750" y="488" on="1"/>
        <pt x="578" y="488" on="1"/>
        <pt x="578" y="488" on="0"/>
        <pt x="567" y="521" on="0"/>
        <pt x="534" y="565" on="0"/>
        <pt x="470" y="598" on="0"/>
        <pt x="418" y="598" on="1"/>
        <pt x="350" y="598" on="0"/>
        <pt x="259" y="532" on="0"/>
        <pt x="213" y="428" on="0"/>
        <pt x="213" y="372" on="1"/>
        <pt x="213" y="314" on="0"/>
        <pt x="260" y="209" on="0"/>
        <pt x="352" y="141" on="0"/>
        <pt x="420" y="141" on="1"/>
        <pt x="492" y="141" on="0"/>
        <pt x="577" y="211" on="0"/>
        <pt x="587" y="269" on="1"/>
        <pt x="404" y="269" on="1"/>
        <pt x="404" y="404" on="1"/>
        <pt x="758" y="404" on="1"/>
        <pt x="758" y="345" on="1"/>
        <pt x="758" y="228" on="0"/>
        <pt x="669" y="70" on="0"/>
        <pt x="513" y="-10" on="0"/>
      </contour>
    </TTGlyph>
    <TTGlyph name="Gbreve" xMin="35" yMin="-10" xMax="758" yMax="984">
      <contour>
        <pt x="418" y="805" on="1"/>
        <pt x="360" y="805" on="0"/>
        <pt x="288" y="841" on="0"/>
        <pt x="249" y="894" on="0"/>
        <pt x="233" y="948" on="0"/>
        <pt x="231" y="984" on="0"/>
        <pt x="231" y="984" on="1"/>
        <pt x="340" y="984" on="1"/>
        <pt x="340" y="984" on="0"/>
        <pt x="343" y="959" on="0"/>
        <pt x="357" y="926" on="0"/>
        <pt x="389" y="901" on="0"/>
        <pt x="418" y="901" on="1"/>
        <pt x="447" y="901" on="0"/>
        <pt x="479" y="926" on="0"/>
        <pt x="492" y="959" on="0"/>
        <pt x="496" y="984" on="0"/>
        <pt x="496" y="984" on="1"/>
        <pt x="605" y="984" on="1"/>
        <pt x="605" y="984" on="0"/>
        <pt x="602" y="948" on="0"/>
        <pt x="586" y="894" on="0"/>
        <pt x="547" y="841" on="0"/>
        <pt x="475" y="805" on="0"/>
      </contour>
      <contour>
        <pt x="413" y="-10" on="1"/>
        <pt x="319" y="-10" on="0"/>
        <pt x="177" y="54" on="0"/>
        <pt x="82" y="163" on="0"/>
        <pt x="35" y="298" on="0"/>
        <pt x="35" y="369" on="1"/>
        <pt x="35" y="440" on="0"/>
        <pt x="83" y="576" on="0"/>
        <pt x="178" y="685" on="0"/>
        <pt x="322" y="750" on="0"/>
        <pt x="418" y="750" on="1"/>
        <pt x="494" y="750" on="0"/>
        <pt x="602" y="712" on="0"/>
        <pt x="675" y="652" on="0"/>
        <pt x="720" y="585" on="0"/>
        <pt x="743" y="526" on="0"/>
        <pt x="750" y="488" on="0"/>
        <pt x="750" y="488" on="1"/>
        <pt x="578" y="488" on="1"/>
        <pt x="578" y="488" on="0"/>
        <pt x="567" y="521" on="0"/>
        <pt x="534" y="565" on="0"/>
        <pt x="470" y="598" on="0"/>
        <pt x="418" y="598" on="1"/>
        <pt x="350" y="598" on="0"/>
        <pt x="259" y="532" on="0"/>
        <pt x="213" y="428" on="0"/>
        <pt x="213" y="372" on="1"/>
        <pt x="213" y="314" on="0"/>
        <pt x="260" y="209" on="0"/>
        <pt x="352" y="141" on="0"/>
        <pt x="420" y="141" on="1"/>
        <pt x="492" y="141" on="0"/>
        <pt x="577" y="211" on="0"/>
        <pt x="587" y="269" on="1"/>
        <pt x="404" y="269" on="1"/>
        <pt x="404" y="404" on="1"/>
        <pt x="758" y="404" on="1"/>
        <pt x="758" y="345" on="1"/>
        <pt x="758" y="228" on="0"/>
        <pt x="669" y="70" on="0"/>
        <pt x="513" y="-10" on="0"/>
      </contour>
    </TTGlyph>
    <TTGlyph name="Gcaron" xMin="35" yMin="-10" xMax="758" yMax="986">
      <contour>
        <pt x="351" y="801" on="1"/>
        <pt x="218" y="986" on="1"/>
        <pt x="348" y="986" on="1"/>
        <pt x="418" y="883" on="1"/>
        <pt x="487" y="986" on="1"/>
        <pt x="617" y="986" on="1"/>
        <pt x="484" y="801" on="1"/>
      </contour>
      <contour>
        <pt x="413" y="-10" on="1"/>
        <pt x="319" y="-10" on="0"/>
        <pt x="177" y="54" on="0"/>
        <pt x="82" y="163" on="0"/>
        <pt x="35" y="298" on="0"/>
        <pt x="35" y="369" on="1"/>
        <pt x="35" y="440" on="0"/>
        <pt x="83" y="576" on="0"/>
        <pt x="178" y="685" on="0"/>
        <pt x="322" y="750" on="0"/>
        <pt x="418" y="750" on="1"/>
        <pt x="494" y="750" on="0"/>
        <pt x="602" y="712" on="0"/>
        <pt x="675" y="652" on="0"/>
        <pt x="720" y="585" on="0"/>
        <pt x="743" y="526" on="0"/>
        <pt x="750" y="488" on="0"/>
        <pt x="750" y="488" on="1"/>
        <pt x="578" y="488" on="1"/>
        <pt x="578" y="488" on="0"/>
        <pt x="567" y="521" on="0"/>
        <pt x="534" y="565" on="0"/>
        <pt x="470" y="598" on="0"/>
        <pt x="418" y="598" on="1"/>
        <pt x="350" y="598" on="0"/>
        <pt x="259" y="532" on="0"/>
        <pt x="213" y="428" on="0"/>
        <pt x="213" y="372" on="1"/>
        <pt x="213" y="314" on="0"/>
        <pt x="260" y="209" on="0"/>
        <pt x="352" y="141" on="0"/>
        <pt x="420" y="141" on="1"/>
        <pt x="492" y="141" on="0"/>
        <pt x="577" y="211" on="0"/>
        <pt x="587" y="269" on="1"/>
        <pt x="404" y="269" on="1"/>
        <pt x="404" y="404" on="1"/>
        <pt x="758" y="404" on="1"/>
        <pt x="758" y="345" on="1"/>
        <pt x="758" y="228" on="0"/>
        <pt x="669" y="70" on="0"/>
        <pt x="513" y="-10" on="0"/>
      </contour>
    </TTGlyph>
    <TTGlyph name="Gdotaccent" xMin="35" yMin="-10" xMax="758" yMax="993">
      <contour>
        <pt x="418" y="802" on="1"/>
        <pt x="374" y="802" on="0"/>
        <pt x="319" y="859" on="0"/>
        <pt x="319" y="898" on="1"/>
        <pt x="319" y="937" on="0"/>
        <pt x="374" y="993" on="0"/>
        <pt x="418" y="993" on="1"/>
        <pt x="461" y="993" on="0"/>
        <pt x="518" y="937" on="0"/>
        <pt x="518" y="898" on="1"/>
        <pt x="518" y="858" on="0"/>
        <pt x="461" y="802" on="0"/>
      </contour>
      <contour>
        <pt x="413" y="-10" on="1"/>
        <pt x="319" y="-10" on="0"/>
        <pt x="177" y="54" on="0"/>
        <pt x="82" y="163" on="0"/>
        <pt x="35" y="298" on="0"/>
        <pt x="35" y="369" on="1"/>
        <pt x="35" y="440" on="0"/>
        <pt x="83" y="576" on="0"/>
        <pt x="178" y="685" on="0"/>
        <pt x="322" y="750" on="0"/>
        <pt x="418" y="750" on="1"/>
        <pt x="494" y="750" on="0"/>
        <pt x="602" y="712" on="0"/>
        <pt x="675" y="652" on="0"/>
        <pt x="720" y="585" on="0"/>
        <pt x="743" y="526" on="0"/>
        <pt x="750" y="488" on="0"/>
        <pt x="750" y="488" on="1"/>
        <pt x="578" y="488" on="1"/>
        <pt x="578" y="488" on="0"/>
        <pt x="567" y="521" on="0"/>
        <pt x="534" y="565" on="0"/>
        <pt x="470" y="598" on="0"/>
        <pt x="418" y="598" on="1"/>
        <pt x="350" y="598" on="0"/>
        <pt x="259" y="532" on="0"/>
        <pt x="213" y="428" on="0"/>
        <pt x="213" y="372" on="1"/>
        <pt x="213" y="314" on="0"/>
        <pt x="260" y="209" on="0"/>
        <pt x="352" y="141" on="0"/>
        <pt x="420" y="141" on="1"/>
        <pt x="492" y="141" on="0"/>
        <pt x="577" y="211" on="0"/>
        <pt x="587" y="269" on="1"/>
        <pt x="404" y="269" on="1"/>
        <pt x="404" y="404" on="1"/>
        <pt x="758" y="404" on="1"/>
        <pt x="758" y="345" on="1"/>
        <pt x="758" y="228" on="0"/>
        <pt x="669" y="70" on="0"/>
        <pt x="513" y="-10" on="0"/>
      </contour>
    </TTGlyph>
    <TTGlyph name="H" xMin="64" yMin="0" xMax="676" yMax="740">
      <contour>
        <pt x="64" y="0" on="1"/>
        <pt x="64" y="740" on="1"/>
        <pt x="237" y="740" on="1"/>
        <pt x="237" y="453" on="1"/>
        <pt x="503" y="453" on="1"/>
        <pt x="503" y="740" on="1"/>
        <pt x="676" y="740" on="1"/>
        <pt x="676" y="0" on="1"/>
        <pt x="503" y="0" on="1"/>
        <pt x="503" y="305" on="1"/>
        <pt x="237" y="305" on="1"/>
        <pt x="237" y="0" on="1"/>
      </contour>
    </TTGlyph>
    <TTGlyph name="Hbar" xMin="14" yMin="0" xMax="774" yMax="740">
      <contour>
        <pt x="90" y="0" on="1"/>
        <pt x="90" y="537" on="1"/>
        <pt x="14" y="537" on="1"/>
        <pt x="14" y="660" on="1"/>
        <pt x="90" y="660" on="1"/>
        <pt x="90" y="740" on="1"/>
        <pt x="263" y="740" on="1"/>
        <pt x="263" y="660" on="1"/>
        <pt x="529" y="660" on="1"/>
        <pt x="529" y="740" on="1"/>
        <pt x="702" y="740" on="1"/>
        <pt x="702" y="660" on="1"/>
        <pt x="774" y="660" on="1"/>
        <pt x="774" y="537" on="1"/>
        <pt x="702" y="537" on="1"/>
        <pt x="702" y="0" on="1"/>
        <pt x="529" y="0" on="1"/>
        <pt x="529" y="305" on="1"/>
        <pt x="263" y="305" on="1"/>
        <pt x="263" y="0" on="1"/>
      </contour>
      <contour>
        <pt x="263" y="453" on="1"/>
        <pt x="529" y="453" on="1"/>
        <pt x="529" y="537" on="1"/>
        <pt x="263" y="537" on="1"/>
      </contour>
    </TTGlyph>
    <TTGlyph name="I" xMin="64" yMin="0" xMax="237" yMax="740">
      <contour>
        <pt x="64" y="0" on="1"/>
        <pt x="64" y="740" on="1"/>
        <pt x="237" y="740" on="1"/>
        <pt x="237" y="0" on="1"/>
      </contour>
    </TTGlyph>
    <TTGlyph name="Iacute" xMin="66" yMin="0" xMax="327" yMax="991">
      <contour>
        <pt x="215" y="811" on="1"/>
        <pt x="92" y="812" on="1"/>
        <pt x="171" y="991" on="1"/>
        <pt x="327" y="991" on="1"/>
      </contour>
      <contour>
        <pt x="66" y="0" on="1"/>
        <pt x="66" y="740" on="1"/>
        <pt x="239" y="740" on="1"/>
        <pt x="239" y="0" on="1"/>
      </contour>
    </TTGlyph>
    <TTGlyph name="Icircumflex" xMin="-46" yMin="0" xMax="352" yMax="987">
      <contour>
        <pt x="-46" y="802" on="1"/>
        <pt x="86" y="987" on="1"/>
        <pt x="220" y="987" on="1"/>
        <pt x="352" y="802" on="1"/>
        <pt x="222" y="802" on="1"/>
        <pt x="153" y="905" on="1"/>
        <pt x="84" y="802" on="1"/>
      </contour>
      <contour>
        <pt x="66" y="0" on="1"/>
        <pt x="66" y="740" on="1"/>
        <pt x="239" y="740" on="1"/>
        <pt x="239" y="0" on="1"/>
      </contour>
    </TTGlyph>
    <TTGlyph name="Idieresis" xMin="-61" yMin="0" xMax="366" yMax="975">
      <contour>
        <pt x="272" y="794" on="1"/>
        <pt x="230" y="794" on="0"/>
        <pt x="177" y="848" on="0"/>
        <pt x="177" y="885" on="1"/>
        <pt x="177" y="922" on="0"/>
        <pt x="230" y="975" on="0"/>
        <pt x="272" y="975" on="1"/>
        <pt x="312" y="975" on="0"/>
        <pt x="366" y="922" on="0"/>
        <pt x="366" y="885" on="1"/>
        <pt x="366" y="848" on="0"/>
        <pt x="312" y="794" on="0"/>
      </contour>
      <contour>
        <pt x="33" y="794" on="1"/>
        <pt x="-9" y="794" on="0"/>
        <pt x="-61" y="848" on="0"/>
        <pt x="-61" y="885" on="1"/>
        <pt x="-61" y="922" on="0"/>
        <pt x="-9" y="975" on="0"/>
        <pt x="33" y="975" on="1"/>
        <pt x="73" y="975" on="0"/>
        <pt x="127" y="922" on="0"/>
        <pt x="127" y="885" on="1"/>
        <pt x="127" y="848" on="0"/>
        <pt x="73" y="794" on="0"/>
      </contour>
      <contour>
        <pt x="66" y="0" on="1"/>
        <pt x="66" y="740" on="1"/>
        <pt x="239" y="740" on="1"/>
        <pt x="239" y="0" on="1"/>
      </contour>
    </TTGlyph>
    <TTGlyph name="Idotaccent" xMin="53" yMin="0" xMax="252" yMax="993">
      <contour>
        <pt x="153" y="802" on="1"/>
        <pt x="109" y="802" on="0"/>
        <pt x="53" y="859" on="0"/>
        <pt x="53" y="898" on="1"/>
        <pt x="53" y="937" on="0"/>
        <pt x="109" y="993" on="0"/>
        <pt x="153" y="993" on="1"/>
        <pt x="196" y="993" on="0"/>
        <pt x="252" y="937" on="0"/>
        <pt x="252" y="898" on="1"/>
        <pt x="252" y="858" on="0"/>
        <pt x="196" y="802" on="0"/>
      </contour>
      <contour>
        <pt x="66" y="0" on="1"/>
        <pt x="66" y="740" on="1"/>
        <pt x="239" y="740" on="1"/>
        <pt x="239" y="0" on="1"/>
      </contour>
    </TTGlyph>
    <TTGlyph name="Igrave" xMin="-18" yMin="0" xMax="239" yMax="991">
      <contour>
        <pt x="93" y="811" on="1"/>
        <pt x="-18" y="991" on="1"/>
        <pt x="137" y="991" on="1"/>
        <pt x="216" y="812" on="1"/>
      </contour>
      <contour>
        <pt x="66" y="0" on="1"/>
        <pt x="66" y="740" on="1"/>
        <pt x="239" y="740" on="1"/>
        <pt x="239" y="0" on="1"/>
      </contour>
    </TTGlyph>
    <TTGlyph name="Imacron" xMin="-14" yMin="0" xMax="319" yMax="918">
      <contour>
        <pt x="-14" y="822" on="1"/>
        <pt x="-14" y="918" on="1"/>
        <pt x="319" y="918" on="1"/>
        <pt x="319" y="822" on="1"/>
      </contour>
      <contour>
        <pt x="66" y="0" on="1"/>
        <pt x="66" y="740" on="1"/>
        <pt x="239" y="740" on="1"/>
        <pt x="239" y="0" on="1"/>
      </contour>
    </TTGlyph>
    <TTGlyph name="Iogonek" xMin="66" yMin="-189" xMax="275" yMax="740">
      <contour>
        <pt x="66" y="0" on="1"/>
        <pt x="66" y="740" on="1"/>
        <pt x="239" y="740" on="1"/>
        <pt x="239" y="0" on="1"/>
        <pt x="239" y="0" on="0"/>
        <pt x="214" y="-13" on="0"/>
        <pt x="189" y="-38" on="0"/>
        <pt x="189" y="-57" on="1"/>
        <pt x="189" y="-71" on="0"/>
        <pt x="214" y="-93" on="0"/>
        <pt x="242" y="-93" on="1"/>
        <pt x="255" y="-93" on="0"/>
        <pt x="275" y="-90" on="0"/>
        <pt x="275" y="-90" on="1"/>
        <pt x="275" y="-184" on="1"/>
        <pt x="275" y="-184" on="0"/>
        <pt x="241" y="-189" on="0"/>
        <pt x="216" y="-189" on="1"/>
        <pt x="138" y="-189" on="0"/>
        <pt x="69" y="-127" on="0"/>
        <pt x="69" y="-86" on="1"/>
        <pt x="69" y="-55" on="0"/>
        <pt x="98" y="-13" on="0"/>
        <pt x="118" y="0" on="1"/>
      </contour>
    </TTGlyph>
    <TTGlyph name="Itilde" xMin="-22" yMin="0" xMax="333" yMax="982">
      <contour>
        <pt x="229" y="823" on="1"/>
        <pt x="201" y="823" on="0"/>
        <pt x="162" y="841" on="0"/>
        <pt x="132" y="865" on="0"/>
        <pt x="106" y="883" on="0"/>
        <pt x="92" y="883" on="1"/>
        <pt x="77" y="883" on="0"/>
        <pt x="65" y="855" on="0"/>
        <pt x="65" y="829" on="1"/>
        <pt x="-22" y="829" on="1"/>
        <pt x="-22" y="863" on="0"/>
        <pt x="-6" y="934" on="0"/>
        <pt x="39" y="982" on="0"/>
        <pt x="82" y="982" on="1"/>
        <pt x="110" y="982" on="0"/>
        <pt x="150" y="964" on="0"/>
        <pt x="181" y="940" on="0"/>
        <pt x="207" y="922" on="0"/>
        <pt x="219" y="922" on="1"/>
        <pt x="246" y="922" on="0"/>
        <pt x="246" y="976" on="1"/>
        <pt x="333" y="976" on="1"/>
        <pt x="333" y="942" on="0"/>
        <pt x="317" y="871" on="0"/>
        <pt x="272" y="823" on="0"/>
      </contour>
      <contour>
        <pt x="66" y="0" on="1"/>
        <pt x="66" y="740" on="1"/>
        <pt x="239" y="740" on="1"/>
        <pt x="239" y="0" on="1"/>
      </contour>
    </TTGlyph>
    <TTGlyph name="J" xMin="40" yMin="-10" xMax="435" yMax="740">
      <contour>
        <pt x="153" y="-10" on="1"/>
        <pt x="106" y="-10" on="0"/>
        <pt x="40" y="-1" on="0"/>
        <pt x="40" y="-1" on="1"/>
        <pt x="40" y="142" on="1"/>
        <pt x="40" y="142" on="0"/>
        <pt x="89" y="137" on="0"/>
        <pt x="119" y="137" on="1"/>
        <pt x="185" y="137" on="0"/>
        <pt x="264" y="201" on="0"/>
        <pt x="264" y="282" on="1"/>
        <pt x="264" y="740" on="1"/>
        <pt x="435" y="740" on="1"/>
        <pt x="435" y="278" on="1"/>
        <pt x="435" y="200" on="0"/>
        <pt x="380" y="69" on="0"/>
        <pt x="256" y="-10" on="0"/>
      </contour>
    </TTGlyph>
    <TTGlyph name="K" xMin="64" yMin="0" xMax="704" yMax="740">
      <contour>
        <pt x="64" y="0" on="1"/>
        <pt x="64" y="740" on="1"/>
        <pt x="237" y="740" on="1"/>
        <pt x="237" y="435" on="1"/>
        <pt x="483" y="740" on="1"/>
        <pt x="694" y="740" on="1"/>
        <pt x="397" y="386" on="1"/>
        <pt x="704" y="0" on="1"/>
        <pt x="485" y="0" on="1"/>
        <pt x="237" y="319" on="1"/>
        <pt x="237" y="0" on="1"/>
      </contour>
    </TTGlyph>
    <TTGlyph name="L" xMin="64" yMin="0" xMax="593" yMax="740">
      <contour>
        <pt x="64" y="0" on="1"/>
        <pt x="64" y="740" on="1"/>
        <pt x="237" y="740" on="1"/>
        <pt x="237" y="150" on="1"/>
        <pt x="593" y="150" on="1"/>
        <pt x="593" y="0" on="1"/>
      </contour>
    </TTGlyph>
    <TTGlyph name="Lacute" xMin="66" yMin="0" xMax="595" yMax="991">
      <contour>
        <pt x="217" y="811" on="1"/>
        <pt x="94" y="812" on="1"/>
        <pt x="173" y="991" on="1"/>
        <pt x="329" y="991" on="1"/>
      </contour>
      <contour>
        <pt x="66" y="0" on="1"/>
        <pt x="66" y="740" on="1"/>
        <pt x="239" y="740" on="1"/>
        <pt x="239" y="150" on="1"/>
        <pt x="595" y="150" on="1"/>
        <pt x="595" y="0" on="1"/>
      </contour>
    </TTGlyph>
    <TTGlyph name="Lcaron" xMin="-45" yMin="0" xMax="595" yMax="986">
      <contour>
        <pt x="87" y="801" on="1"/>
        <pt x="-45" y="986" on="1"/>
        <pt x="85" y="986" on="1"/>
        <pt x="155" y="883" on="1"/>
        <pt x="223" y="986" on="1"/>
        <pt x="353" y="986" on="1"/>
        <pt x="221" y="801" on="1"/>
      </contour>
      <contour>
        <pt x="66" y="0" on="1"/>
        <pt x="66" y="740" on="1"/>
        <pt x="239" y="740" on="1"/>
        <pt x="239" y="150" on="1"/>
        <pt x="595" y="150" on="1"/>
        <pt x="595" y="0" on="1"/>
      </contour>
    </TTGlyph>
    <TTGlyph name="Lslash" xMin="-5" yMin="0" xMax="606" yMax="740">
      <contour>
        <pt x="78" y="0" on="1"/>
        <pt x="78" y="279" on="1"/>
        <pt x="-5" y="242" on="1"/>
        <pt x="-5" y="365" on="1"/>
        <pt x="78" y="403" on="1"/>
        <pt x="78" y="740" on="1"/>
        <pt x="251" y="740" on="1"/>
        <pt x="251" y="482" on="1"/>
        <pt x="379" y="540" on="1"/>
        <pt x="379" y="416" on="1"/>
        <pt x="251" y="358" on="1"/>
        <pt x="251" y="150" on="1"/>
        <pt x="606" y="150" on="1"/>
        <pt x="606" y="0" on="1"/>
      </contour>
    </TTGlyph>
    <TTGlyph name="M" xMin="64" yMin="0" xMax="836" yMax="740">
      <contour>
        <pt x="64" y="0" on="1"/>
        <pt x="64" y="740" on="1"/>
        <pt x="298" y="740" on="1"/>
        <pt x="451" y="380" on="1"/>
        <pt x="610" y="740" on="1"/>
        <pt x="836" y="740" on="1"/>
        <pt x="836" y="0" on="1"/>
        <pt x="665" y="0" on="1"/>
        <pt x="665" y="473" on="1"/>
        <pt x="530" y="168" on="1"/>
        <pt x="370" y="168" on="1"/>
        <pt x="235" y="475" on="1"/>
        <pt x="235" y="0" on="1"/>
      </contour>
    </TTGlyph>
    <TTGlyph name="N" xMin="64" yMin="0" xMax="690" yMax="740">
      <contour>
        <pt x="64" y="0" on="1"/>
        <pt x="64" y="740" on="1"/>
        <pt x="223" y="740" on="1"/>
        <pt x="519" y="299" on="1"/>
        <pt x="519" y="740" on="1"/>
        <pt x="690" y="740" on="1"/>
        <pt x="690" y="0" on="1"/>
        <pt x="530" y="0" on="1"/>
        <pt x="236" y="424" on="1"/>
        <pt x="236" y="0" on="1"/>
      </contour>
    </TTGlyph>
    <TTGlyph name="Nacute" xMin="66" yMin="0" xMax="692" yMax="991">
      <contour>
        <pt x="438" y="811" on="1"/>
        <pt x="315" y="812" on="1"/>
        <pt x="394" y="991" on="1"/>
        <pt x="550" y="991" on="1"/>
      </contour>
      <contour>
        <pt x="66" y="0" on="1"/>
        <pt x="66" y="740" on="1"/>
        <pt x="225" y="740" on="1"/>
        <pt x="521" y="299" on="1"/>
        <pt x="521" y="740" on="1"/>
        <pt x="692" y="740" on="1"/>
        <pt x="692" y="0" on="1"/>
        <pt x="532" y="0" on="1"/>
        <pt x="238" y="424" on="1"/>
        <pt x="238" y="0" on="1"/>
      </contour>
    </TTGlyph>
    <TTGlyph name="Ncaron" xMin="66" yMin="0" xMax="692" yMax="986">
      <contour>
        <pt x="308" y="801" on="1"/>
        <pt x="176" y="986" on="1"/>
        <pt x="306" y="986" on="1"/>
        <pt x="376" y="883" on="1"/>
        <pt x="444" y="986" on="1"/>
        <pt x="574" y="986" on="1"/>
        <pt x="442" y="801" on="1"/>
      </contour>
      <contour>
        <pt x="66" y="0" on="1"/>
        <pt x="66" y="740" on="1"/>
        <pt x="225" y="740" on="1"/>
        <pt x="521" y="299" on="1"/>
        <pt x="521" y="740" on="1"/>
        <pt x="692" y="740" on="1"/>
        <pt x="692" y="0" on="1"/>
        <pt x="532" y="0" on="1"/>
        <pt x="238" y="424" on="1"/>
        <pt x="238" y="0" on="1"/>
      </contour>
    </TTGlyph>
    <TTGlyph name="Ntilde" xMin="66" yMin="0" xMax="692" yMax="982">
      <contour>
        <pt x="452" y="823" on="1"/>
        <pt x="424" y="823" on="0"/>
        <pt x="385" y="841" on="0"/>
        <pt x="355" y="865" on="0"/>
        <pt x="329" y="883" on="0"/>
        <pt x="315" y="883" on="1"/>
        <pt x="300" y="883" on="0"/>
        <pt x="288" y="855" on="0"/>
        <pt x="288" y="829" on="1"/>
        <pt x="201" y="829" on="1"/>
        <pt x="201" y="863" on="0"/>
        <pt x="217" y="934" on="0"/>
        <pt x="262" y="982" on="0"/>
        <pt x="305" y="982" on="1"/>
        <pt x="333" y="982" on="0"/>
        <pt x="373" y="964" on="0"/>
        <pt x="404" y="940" on="0"/>
        <pt x="429" y="922" on="0"/>
        <pt x="442" y="922" on="1"/>
        <pt x="469" y="922" on="0"/>
        <pt x="469" y="976" on="1"/>
        <pt x="556" y="976" on="1"/>
        <pt x="556" y="942" on="0"/>
        <pt x="540" y="871" on="0"/>
        <pt x="495" y="823" on="0"/>
      </contour>
      <contour>
        <pt x="66" y="0" on="1"/>
        <pt x="66" y="740" on="1"/>
        <pt x="225" y="740" on="1"/>
        <pt x="521" y="299" on="1"/>
        <pt x="521" y="740" on="1"/>
        <pt x="692" y="740" on="1"/>
        <pt x="692" y="0" on="1"/>
        <pt x="532" y="0" on="1"/>
        <pt x="238" y="424" on="1"/>
        <pt x="238" y="0" on="1"/>
      </contour>
    </TTGlyph>
    <TTGlyph name="O" xMin="35" yMin="-10" xMax="794" yMax="750">
      <contour>
        <pt x="415" y="-10" on="1"/>
        <pt x="320" y="-10" on="0"/>
        <pt x="178" y="55" on="0"/>
        <pt x="83" y="164" on="0"/>
        <pt x="35" y="300" on="0"/>
        <pt x="35" y="371" on="1"/>
        <pt x="35" y="442" on="0"/>
        <pt x="83" y="577" on="0"/>
        <pt x="178" y="685" on="0"/>
        <pt x="320" y="750" on="0"/>
        <pt x="415" y="750" on="1"/>
        <pt x="509" y="750" on="0"/>
        <pt x="651" y="685" on="0"/>
        <pt x="746" y="577" on="0"/>
        <pt x="794" y="442" on="0"/>
        <pt x="794" y="371" on="1"/>
        <pt x="794" y="300" on="0"/>
        <pt x="746" y="164" on="0"/>
        <pt x="651" y="55" on="0"/>
        <pt x="509" y="-10" on="0"/>
      </contour>
      <contour>
        <pt x="415" y="145" on="1"/>
        <pt x="480" y="145" on="0"/>
        <pt x="569" y="211" on="0"/>
        <pt x="614" y="314" on="0"/>
        <pt x="614" y="371" on="1"/>
        <pt x="614" y="427" on="0"/>
        <pt x="569" y="530" on="0"/>
        <pt x="480" y="596" on="0"/>
        <pt x="415" y="596" on="1"/>
        <pt x="349" y="596" on="0"/>
        <pt x="260" y="530" on="0"/>
        <pt x="216" y="427" on="0"/>
        <pt x="216" y="371" on="1"/>
        <pt x="216" y="314" on="0"/>
        <pt x="260" y="211" on="0"/>
        <pt x="349" y="145" on="0"/>
      </contour>
    </TTGlyph>
    <TTGlyph name="OE" xMin="35" yMin="0" xMax="999" yMax="740">
      <contour>
        <pt x="994" y="740" on="1"/>
        <pt x="994" y="590" on="1"/>
        <pt x="646" y="590" on="1"/>
        <pt x="646" y="447" on="1"/>
        <pt x="949" y="447" on="1"/>
        <pt x="949" y="304" on="1"/>
        <pt x="646" y="304" on="1"/>
        <pt x="646" y="150" on="1"/>
        <pt x="999" y="150" on="1"/>
        <pt x="999" y="0" on="1"/>
        <pt x="429" y="0" on="1"/>
        <pt x="327" y="0" on="0"/>
        <pt x="178" y="63" on="0"/>
        <pt x="82" y="169" on="0"/>
        <pt x="35" y="301" on="0"/>
        <pt x="35" y="370" on="1"/>
        <pt x="35" y="439" on="0"/>
        <pt x="82" y="571" on="0"/>
        <pt x="178" y="677" on="0"/>
        <pt x="327" y="740" on="0"/>
        <pt x="429" y="740" on="1"/>
      </contour>
      <contour>
        <pt x="209" y="368" on="1"/>
        <pt x="209" y="315" on="0"/>
        <pt x="254" y="215" on="0"/>
        <pt x="351" y="152" on="0"/>
        <pt x="430" y="152" on="1"/>
        <pt x="473" y="152" on="1"/>
        <pt x="473" y="586" on="1"/>
        <pt x="430" y="586" on="1"/>
        <pt x="351" y="586" on="0"/>
        <pt x="254" y="522" on="0"/>
        <pt x="209" y="423" on="0"/>
      </contour>
    </TTGlyph>
    <TTGlyph name="Oacute" xMin="35" yMin="-10" xMax="794" yMax="1001">
      <contour>
        <pt x="477" y="821" on="1"/>
        <pt x="354" y="822" on="1"/>
        <pt x="433" y="1001" on="1"/>
        <pt x="589" y="1001" on="1"/>
      </contour>
      <contour>
        <pt x="415" y="-10" on="1"/>
        <pt x="320" y="-10" on="0"/>
        <pt x="178" y="55" on="0"/>
        <pt x="83" y="164" on="0"/>
        <pt x="35" y="300" on="0"/>
        <pt x="35" y="371" on="1"/>
        <pt x="35" y="442" on="0"/>
        <pt x="83" y="577" on="0"/>
        <pt x="178" y="685" on="0"/>
        <pt x="320" y="750" on="0"/>
        <pt x="415" y="750" on="1"/>
        <pt x="509" y="750" on="0"/>
        <pt x="651" y="685" on="0"/>
        <pt x="746" y="577" on="0"/>
        <pt x="794" y="442" on="0"/>
        <pt x="794" y="371" on="1"/>
        <pt x="794" y="300" on="0"/>
        <pt x="746" y="164" on="0"/>
        <pt x="651" y="55" on="0"/>
        <pt x="509" y="-10" on="0"/>
      </contour>
      <contour>
        <pt x="415" y="145" on="1"/>
        <pt x="480" y="145" on="0"/>
        <pt x="569" y="211" on="0"/>
        <pt x="614" y="314" on="0"/>
        <pt x="614" y="371" on="1"/>
        <pt x="614" y="427" on="0"/>
        <pt x="569" y="530" on="0"/>
        <pt x="480" y="596" on="0"/>
        <pt x="415" y="596" on="1"/>
        <pt x="349" y="596" on="0"/>
        <pt x="260" y="530" on="0"/>
        <pt x="216" y="427" on="0"/>
        <pt x="216" y="371" on="1"/>
        <pt x="216" y="314" on="0"/>
        <pt x="260" y="211" on="0"/>
        <pt x="349" y="145" on="0"/>
      </contour>
    </TTGlyph>
    <TTGlyph name="Ocircumflex" xMin="35" yMin="-10" xMax="794" yMax="969">
      <contour>
        <pt x="216" y="812" on="1"/>
        <pt x="348" y="969" on="1"/>
        <pt x="482" y="969" on="1"/>
        <pt x="614" y="812" on="1"/>
        <pt x="484" y="812" on="1"/>
        <pt x="415" y="896" on="1"/>
        <pt x="346" y="812" on="1"/>
      </contour>
      <contour>
        <pt x="415" y="-10" on="1"/>
        <pt x="320" y="-10" on="0"/>
        <pt x="178" y="55" on="0"/>
        <pt x="83" y="164" on="0"/>
        <pt x="35" y="300" on="0"/>
        <pt x="35" y="371" on="1"/>
        <pt x="35" y="442" on="0"/>
        <pt x="83" y="577" on="0"/>
        <pt x="178" y="685" on="0"/>
        <pt x="320" y="750" on="0"/>
        <pt x="415" y="750" on="1"/>
        <pt x="509" y="750" on="0"/>
        <pt x="651" y="685" on="0"/>
        <pt x="746" y="577" on="0"/>
        <pt x="794" y="442" on="0"/>
        <pt x="794" y="371" on="1"/>
        <pt x="794" y="300" on="0"/>
        <pt x="746" y="164" on="0"/>
        <pt x="651" y="55" on="0"/>
        <pt x="509" y="-10" on="0"/>
      </contour>
      <contour>
        <pt x="415" y="145" on="1"/>
        <pt x="480" y="145" on="0"/>
        <pt x="569" y="211" on="0"/>
        <pt x="614" y="314" on="0"/>
        <pt x="614" y="371" on="1"/>
        <pt x="614" y="427" on="0"/>
        <pt x="569" y="530" on="0"/>
        <pt x="480" y="596" on="0"/>
        <pt x="415" y="596" on="1"/>
        <pt x="349" y="596" on="0"/>
        <pt x="260" y="530" on="0"/>
        <pt x="216" y="427" on="0"/>
        <pt x="216" y="371" on="1"/>
        <pt x="216" y="314" on="0"/>
        <pt x="260" y="211" on="0"/>
        <pt x="349" y="145" on="0"/>
      </contour>
    </TTGlyph>
    <TTGlyph name="Odieresis" xMin="35" yMin="-10" xMax="794" yMax="985">
      <contour>
        <pt x="534" y="804" on="1"/>
        <pt x="492" y="804" on="0"/>
        <pt x="439" y="858" on="0"/>
        <pt x="439" y="895" on="1"/>
        <pt x="439" y="932" on="0"/>
        <pt x="492" y="985" on="0"/>
        <pt x="534" y="985" on="1"/>
        <pt x="574" y="985" on="0"/>
        <pt x="628" y="932" on="0"/>
        <pt x="628" y="895" on="1"/>
        <pt x="628" y="858" on="0"/>
        <pt x="574" y="804" on="0"/>
      </contour>
      <contour>
        <pt x="295" y="804" on="1"/>
        <pt x="253" y="804" on="0"/>
        <pt x="201" y="858" on="0"/>
        <pt x="201" y="895" on="1"/>
        <pt x="201" y="932" on="0"/>
        <pt x="253" y="985" on="0"/>
        <pt x="295" y="985" on="1"/>
        <pt x="335" y="985" on="0"/>
        <pt x="389" y="932" on="0"/>
        <pt x="389" y="895" on="1"/>
        <pt x="389" y="858" on="0"/>
        <pt x="335" y="804" on="0"/>
      </contour>
      <contour>
        <pt x="415" y="-10" on="1"/>
        <pt x="320" y="-10" on="0"/>
        <pt x="178" y="55" on="0"/>
        <pt x="83" y="164" on="0"/>
        <pt x="35" y="300" on="0"/>
        <pt x="35" y="371" on="1"/>
        <pt x="35" y="442" on="0"/>
        <pt x="83" y="577" on="0"/>
        <pt x="178" y="685" on="0"/>
        <pt x="320" y="750" on="0"/>
        <pt x="415" y="750" on="1"/>
        <pt x="509" y="750" on="0"/>
        <pt x="651" y="685" on="0"/>
        <pt x="746" y="577" on="0"/>
        <pt x="794" y="442" on="0"/>
        <pt x="794" y="371" on="1"/>
        <pt x="794" y="300" on="0"/>
        <pt x="746" y="164" on="0"/>
        <pt x="651" y="55" on="0"/>
        <pt x="509" y="-10" on="0"/>
      </contour>
      <contour>
        <pt x="415" y="145" on="1"/>
        <pt x="480" y="145" on="0"/>
        <pt x="569" y="211" on="0"/>
        <pt x="614" y="314" on="0"/>
        <pt x="614" y="371" on="1"/>
        <pt x="614" y="427" on="0"/>
        <pt x="569" y="530" on="0"/>
        <pt x="480" y="596" on="0"/>
        <pt x="415" y="596" on="1"/>
        <pt x="349" y="596" on="0"/>
        <pt x="260" y="530" on="0"/>
        <pt x="216" y="427" on="0"/>
        <pt x="216" y="371" on="1"/>
        <pt x="216" y="314" on="0"/>
        <pt x="260" y="211" on="0"/>
        <pt x="349" y="145" on="0"/>
      </contour>
    </TTGlyph>
    <TTGlyph name="Ograve" xMin="35" yMin="-10" xMax="794" yMax="1001">
      <contour>
        <pt x="355" y="821" on="1"/>
        <pt x="244" y="1001" on="1"/>
        <pt x="399" y="1001" on="1"/>
        <pt x="478" y="822" on="1"/>
      </contour>
      <contour>
        <pt x="415" y="-10" on="1"/>
        <pt x="320" y="-10" on="0"/>
        <pt x="178" y="55" on="0"/>
        <pt x="83" y="164" on="0"/>
        <pt x="35" y="300" on="0"/>
        <pt x="35" y="371" on="1"/>
        <pt x="35" y="442" on="0"/>
        <pt x="83" y="577" on="0"/>
        <pt x="178" y="685" on="0"/>
        <pt x="320" y="750" on="0"/>
        <pt x="415" y="750" on="1"/>
        <pt x="509" y="750" on="0"/>
        <pt x="651" y="685" on="0"/>
        <pt x="746" y="577" on="0"/>
        <pt x="794" y="442" on="0"/>
        <pt x="794" y="371" on="1"/>
        <pt x="794" y="300" on="0"/>
        <pt x="746" y="164" on="0"/>
        <pt x="651" y="55" on="0"/>
        <pt x="509" y="-10" on="0"/>
      </contour>
      <contour>
        <pt x="415" y="145" on="1"/>
        <pt x="480" y="145" on="0"/>
        <pt x="569" y="211" on="0"/>
        <pt x="614" y="314" on="0"/>
        <pt x="614" y="371" on="1"/>
        <pt x="614" y="427" on="0"/>
        <pt x="569" y="530" on="0"/>
        <pt x="480" y="596" on="0"/>
        <pt x="415" y="596" on="1"/>
        <pt x="349" y="596" on="0"/>
        <pt x="260" y="530" on="0"/>
        <pt x="216" y="427" on="0"/>
        <pt x="216" y="371" on="1"/>
        <pt x="216" y="314" on="0"/>
        <pt x="260" y="211" on="0"/>
        <pt x="349" y="145" on="0"/>
      </contour>
    </TTGlyph>
    <TTGlyph name="Ohorn" xMin="35" yMin="-10" xMax="794" yMax="864">
      <contour>
        <pt x="415" y="-10" on="1"/>
        <pt x="320" y="-10" on="0"/>
        <pt x="178" y="55" on="0"/>
        <pt x="83" y="164" on="0"/>
        <pt x="35" y="300" on="0"/>
        <pt x="35" y="371" on="1"/>
        <pt x="35" y="442" on="0"/>
        <pt x="83" y="577" on="0"/>
        <pt x="178" y="685" on="0"/>
        <pt x="320" y="750" on="0"/>
        <pt x="415" y="750" on="1"/>
        <pt x="429" y="750" on="0"/>
        <pt x="442" y="749" on="1"/>
        <pt x="573" y="749" on="1"/>
        <pt x="630" y="749" on="0"/>
        <pt x="630" y="807" on="1"/>
        <pt x="630" y="864" on="1"/>
        <pt x="774" y="864" on="1"/>
        <pt x="774" y="788" on="1"/>
        <pt x="774" y="729" on="0"/>
        <pt x="724" y="666" on="0"/>
        <pt x="670" y="660" on="1"/>
        <pt x="732" y="605" on="0"/>
        <pt x="794" y="451" on="0"/>
        <pt x="794" y="371" on="1"/>
        <pt x="794" y="300" on="0"/>
        <pt x="746" y="164" on="0"/>
        <pt x="651" y="55" on="0"/>
        <pt x="509" y="-10" on="0"/>
      </contour>
      <contour>
        <pt x="415" y="145" on="1"/>
        <pt x="480" y="145" on="0"/>
        <pt x="569" y="211" on="0"/>
        <pt x="614" y="314" on="0"/>
        <pt x="614" y="371" on="1"/>
        <pt x="614" y="427" on="0"/>
        <pt x="569" y="530" on="0"/>
        <pt x="480" y="596" on="0"/>
        <pt x="415" y="596" on="1"/>
        <pt x="349" y="596" on="0"/>
        <pt x="260" y="530" on="0"/>
        <pt x="216" y="427" on="0"/>
        <pt x="216" y="371" on="1"/>
        <pt x="216" y="314" on="0"/>
        <pt x="260" y="211" on="0"/>
        <pt x="349" y="145" on="0"/>
      </contour>
    </TTGlyph>
    <TTGlyph name="Ohungarumlaut" xMin="35" yMin="-10" xMax="794" yMax="1001">
      <contour>
        <pt x="373" y="821" on="1"/>
        <pt x="259" y="822" on="1"/>
        <pt x="306" y="1001" on="1"/>
        <pt x="453" y="1001" on="1"/>
      </contour>
      <contour>
        <pt x="567" y="821" on="1"/>
        <pt x="452" y="822" on="1"/>
        <pt x="499" y="1001" on="1"/>
        <pt x="646" y="1001" on="1"/>
      </contour>
      <contour>
        <pt x="415" y="-10" on="1"/>
        <pt x="320" y="-10" on="0"/>
        <pt x="178" y="55" on="0"/>
        <pt x="83" y="164" on="0"/>
        <pt x="35" y="300" on="0"/>
        <pt x="35" y="371" on="1"/>
        <pt x="35" y="442" on="0"/>
        <pt x="83" y="577" on="0"/>
        <pt x="178" y="685" on="0"/>
        <pt x="320" y="750" on="0"/>
        <pt x="415" y="750" on="1"/>
        <pt x="509" y="750" on="0"/>
        <pt x="651" y="685" on="0"/>
        <pt x="746" y="577" on="0"/>
        <pt x="794" y="442" on="0"/>
        <pt x="794" y="371" on="1"/>
        <pt x="794" y="300" on="0"/>
        <pt x="746" y="164" on="0"/>
        <pt x="651" y="55" on="0"/>
        <pt x="509" y="-10" on="0"/>
      </contour>
      <contour>
        <pt x="415" y="145" on="1"/>
        <pt x="480" y="145" on="0"/>
        <pt x="569" y="211" on="0"/>
        <pt x="614" y="314" on="0"/>
        <pt x="614" y="371" on="1"/>
        <pt x="614" y="427" on="0"/>
        <pt x="569" y="530" on="0"/>
        <pt x="480" y="596" on="0"/>
        <pt x="415" y="596" on="1"/>
        <pt x="349" y="596" on="0"/>
        <pt x="260" y="530" on="0"/>
        <pt x="216" y="427" on="0"/>
        <pt x="216" y="371" on="1"/>
        <pt x="216" y="314" on="0"/>
        <pt x="260" y="211" on="0"/>
        <pt x="349" y="145" on="0"/>
      </contour>
    </TTGlyph>
    <TTGlyph name="Omacron" xMin="35" yMin="-10" xMax="794" yMax="928">
      <contour>
        <pt x="248" y="832" on="1"/>
        <pt x="248" y="928" on="1"/>
        <pt x="581" y="928" on="1"/>
        <pt x="581" y="832" on="1"/>
      </contour>
      <contour>
        <pt x="415" y="-10" on="1"/>
        <pt x="320" y="-10" on="0"/>
        <pt x="178" y="55" on="0"/>
        <pt x="83" y="164" on="0"/>
        <pt x="35" y="300" on="0"/>
        <pt x="35" y="371" on="1"/>
        <pt x="35" y="442" on="0"/>
        <pt x="83" y="577" on="0"/>
        <pt x="178" y="685" on="0"/>
        <pt x="320" y="750" on="0"/>
        <pt x="415" y="750" on="1"/>
        <pt x="509" y="750" on="0"/>
        <pt x="651" y="685" on="0"/>
        <pt x="746" y="577" on="0"/>
        <pt x="794" y="442" on="0"/>
        <pt x="794" y="371" on="1"/>
        <pt x="794" y="300" on="0"/>
        <pt x="746" y="164" on="0"/>
        <pt x="651" y="55" on="0"/>
        <pt x="509" y="-10" on="0"/>
      </contour>
      <contour>
        <pt x="415" y="145" on="1"/>
        <pt x="480" y="145" on="0"/>
        <pt x="569" y="211" on="0"/>
        <pt x="614" y="314" on="0"/>
        <pt x="614" y="371" on="1"/>
        <pt x="614" y="427" on="0"/>
        <pt x="569" y="530" on="0"/>
        <pt x="480" y="596" on="0"/>
        <pt x="415" y="596" on="1"/>
        <pt x="349" y="596" on="0"/>
        <pt x="260" y="530" on="0"/>
        <pt x="216" y="427" on="0"/>
        <pt x="216" y="371" on="1"/>
        <pt x="216" y="314" on="0"/>
        <pt x="260" y="211" on="0"/>
        <pt x="349" y="145" on="0"/>
      </contour>
    </TTGlyph>
    <TTGlyph name="Oslash" xMin="35" yMin="-24" xMax="794" yMax="763">
      <contour>
        <pt x="83" y="-24" on="1"/>
        <pt x="153" y="86" on="1"/>
        <pt x="94" y="141" on="0"/>
        <pt x="35" y="292" on="0"/>
        <pt x="35" y="371" on="1"/>
        <pt x="35" y="442" on="0"/>
        <pt x="83" y="577" on="0"/>
        <pt x="178" y="685" on="0"/>
        <pt x="320" y="750" on="0"/>
        <pt x="415" y="750" on="1"/>
        <pt x="456" y="750" on="0"/>
        <pt x="530" y="737" on="0"/>
        <pt x="562" y="724" on="1"/>
        <pt x="587" y="763" on="1"/>
        <pt x="745" y="763" on="1"/>
        <pt x="676" y="655" on="1"/>
        <pt x="735" y="600" on="0"/>
        <pt x="794" y="450" on="0"/>
        <pt x="794" y="371" on="1"/>
        <pt x="794" y="300" on="0"/>
        <pt x="746" y="164" on="0"/>
        <pt x="651" y="55" on="0"/>
        <pt x="509" y="-10" on="0"/>
        <pt x="415" y="-10" on="1"/>
        <pt x="373" y="-10" on="0"/>
        <pt x="299" y="3" on="0"/>
        <pt x="267" y="16" on="1"/>
        <pt x="241" y="-24" on="1"/>
      </contour>
      <contour>
        <pt x="216" y="371" on="1"/>
        <pt x="216" y="335" on="0"/>
        <pt x="233" y="267" on="0"/>
        <pt x="251" y="238" on="1"/>
        <pt x="474" y="587" on="1"/>
        <pt x="446" y="596" on="0"/>
        <pt x="415" y="596" on="1"/>
        <pt x="349" y="596" on="0"/>
        <pt x="260" y="530" on="0"/>
        <pt x="216" y="427" on="0"/>
      </contour>
      <contour>
        <pt x="415" y="145" on="1"/>
        <pt x="480" y="145" on="0"/>
        <pt x="569" y="211" on="0"/>
        <pt x="614" y="314" on="0"/>
        <pt x="614" y="371" on="1"/>
        <pt x="614" y="406" on="0"/>
        <pt x="597" y="475" on="0"/>
        <pt x="579" y="504" on="1"/>
        <pt x="355" y="154" on="1"/>
        <pt x="383" y="145" on="0"/>
      </contour>
    </TTGlyph>
    <TTGlyph name="Otilde" xMin="35" yMin="-10" xMax="794" yMax="992">
      <contour>
        <pt x="491" y="833" on="1"/>
        <pt x="463" y="833" on="0"/>
        <pt x="424" y="851" on="0"/>
        <pt x="394" y="875" on="0"/>
        <pt x="368" y="893" on="0"/>
        <pt x="354" y="893" on="1"/>
        <pt x="339" y="893" on="0"/>
        <pt x="327" y="865" on="0"/>
        <pt x="327" y="839" on="1"/>
        <pt x="240" y="839" on="1"/>
        <pt x="240" y="873" on="0"/>
        <pt x="256" y="944" on="0"/>
        <pt x="301" y="992" on="0"/>
        <pt x="344" y="992" on="1"/>
        <pt x="372" y="992" on="0"/>
        <pt x="412" y="974" on="0"/>
        <pt x="443" y="950" on="0"/>
        <pt x="468" y="932" on="0"/>
        <pt x="481" y="932" on="1"/>
        <pt x="508" y="932" on="0"/>
        <pt x="508" y="986" on="1"/>
        <pt x="595" y="986" on="1"/>
        <pt x="595" y="952" on="0"/>
        <pt x="579" y="881" on="0"/>
        <pt x="534" y="833" on="0"/>
      </contour>
      <contour>
        <pt x="415" y="-10" on="1"/>
        <pt x="320" y="-10" on="0"/>
        <pt x="178" y="55" on="0"/>
        <pt x="83" y="164" on="0"/>
        <pt x="35" y="300" on="0"/>
        <pt x="35" y="371" on="1"/>
        <pt x="35" y="442" on="0"/>
        <pt x="83" y="577" on="0"/>
        <pt x="178" y="685" on="0"/>
        <pt x="320" y="750" on="0"/>
        <pt x="415" y="750" on="1"/>
        <pt x="509" y="750" on="0"/>
        <pt x="651" y="685" on="0"/>
        <pt x="746" y="577" on="0"/>
        <pt x="794" y="442" on="0"/>
        <pt x="794" y="371" on="1"/>
        <pt x="794" y="300" on="0"/>
        <pt x="746" y="164" on="0"/>
        <pt x="651" y="55" on="0"/>
        <pt x="509" y="-10" on="0"/>
      </contour>
      <contour>
        <pt x="415" y="145" on="1"/>
        <pt x="480" y="145" on="0"/>
        <pt x="569" y="211" on="0"/>
        <pt x="614" y="314" on="0"/>
        <pt x="614" y="371" on="1"/>
        <pt x="614" y="427" on="0"/>
        <pt x="569" y="530" on="0"/>
        <pt x="480" y="596" on="0"/>
        <pt x="415" y="596" on="1"/>
        <pt x="349" y="596" on="0"/>
        <pt x="260" y="530" on="0"/>
        <pt x="216" y="427" on="0"/>
        <pt x="216" y="371" on="1"/>
        <pt x="216" y="314" on="0"/>
        <pt x="260" y="211" on="0"/>
        <pt x="349" y="145" on="0"/>
      </contour>
    </TTGlyph>
    <TTGlyph name="P" xMin="64" yMin="0" xMax="661" yMax="740">
      <contour>
        <pt x="64" y="0" on="1"/>
        <pt x="64" y="740" on="1"/>
        <pt x="383" y="740" on="1"/>
        <pt x="476" y="740" on="0"/>
        <pt x="600" y="668" on="0"/>
        <pt x="661" y="554" on="0"/>
        <pt x="661" y="492" on="1"/>
        <pt x="661" y="429" on="0"/>
        <pt x="600" y="315" on="0"/>
        <pt x="476" y="242" on="0"/>
        <pt x="383" y="242" on="1"/>
        <pt x="237" y="242" on="1"/>
        <pt x="237" y="0" on="1"/>
      </contour>
      <contour>
        <pt x="382" y="589" on="1"/>
        <pt x="237" y="589" on="1"/>
        <pt x="237" y="392" on="1"/>
        <pt x="382" y="392" on="1"/>
        <pt x="435" y="392" on="0"/>
        <pt x="487" y="454" on="0"/>
        <pt x="487" y="491" on="1"/>
        <pt x="487" y="528" on="0"/>
        <pt x="435" y="589" on="0"/>
      </contour>
    </TTGlyph>
    <TTGlyph name="Q" xMin="35" yMin="-10" xMax="806" yMax="750">
      <contour>
        <pt x="415" y="-10" on="1"/>
        <pt x="320" y="-10" on="0"/>
        <pt x="178" y="55" on="0"/>
        <pt x="83" y="164" on="0"/>
        <pt x="35" y="300" on="0"/>
        <pt x="35" y="371" on="1"/>
        <pt x="35" y="442" on="0"/>
        <pt x="83" y="577" on="0"/>
        <pt x="178" y="685" on="0"/>
        <pt x="320" y="750" on="0"/>
        <pt x="415" y="750" on="1"/>
        <pt x="509" y="750" on="0"/>
        <pt x="651" y="685" on="0"/>
        <pt x="746" y="577" on="0"/>
        <pt x="794" y="442" on="0"/>
        <pt x="794" y="371" on="1"/>
        <pt x="794" y="302" on="0"/>
        <pt x="749" y="169" on="0"/>
        <pt x="705" y="116" on="1"/>
        <pt x="806" y="0" on="1"/>
        <pt x="628" y="0" on="1"/>
        <pt x="600" y="32" on="1"/>
        <pt x="561" y="12" on="0"/>
        <pt x="468" y="-10" on="0"/>
      </contour>
      <contour>
        <pt x="415" y="145" on="1"/>
        <pt x="454" y="145" on="0"/>
        <pt x="488" y="158" on="1"/>
        <pt x="376" y="284" on="1"/>
        <pt x="484" y="371" on="1"/>
        <pt x="587" y="252" on="1"/>
        <pt x="614" y="306" on="0"/>
        <pt x="614" y="371" on="1"/>
        <pt x="614" y="427" on="0"/>
        <pt x="569" y="530" on="0"/>
        <pt x="480" y="596" on="0"/>
        <pt x="415" y="596" on="1"/>
        <pt x="349" y="596" on="0"/>
        <pt x="260" y="530" on="0"/>
        <pt x="216" y="427" on="0"/>
        <pt x="216" y="371" on="1"/>
        <pt x="216" y="314" on="0"/>
        <pt x="260" y="211" on="0"/>
        <pt x="349" y="145" on="0"/>
      </contour>
    </TTGlyph>
    <TTGlyph name="R" xMin="64" yMin="0" xMax="665" yMax="740">
      <contour>
        <pt x="64" y="0" on="1"/>
        <pt x="64" y="740" on="1"/>
        <pt x="377" y="740" on="1"/>
        <pt x="459" y="740" on="0"/>
        <pt x="581" y="684" on="0"/>
        <pt x="647" y="580" on="0"/>
        <pt x="647" y="508" on="1"/>
        <pt x="647" y="434" on="0"/>
        <pt x="576" y="328" on="0"/>
        <pt x="512" y="301" on="1"/>
        <pt x="665" y="0" on="1"/>
        <pt x="474" y="0" on="1"/>
        <pt x="337" y="277" on="1"/>
        <pt x="237" y="277" on="1"/>
        <pt x="237" y="0" on="1"/>
      </contour>
      <contour>
        <pt x="375" y="591" on="1"/>
        <pt x="237" y="591" on="1"/>
        <pt x="237" y="416" on="1"/>
        <pt x="375" y="416" on="1"/>
        <pt x="420" y="416" on="0"/>
        <pt x="474" y="464" on="0"/>
        <pt x="474" y="503" on="1"/>
        <pt x="474" y="543" on="0"/>
        <pt x="420" y="591" on="0"/>
      </contour>
    </TTGlyph>
    <TTGlyph name="Racute" xMin="66" yMin="0" xMax="667" yMax="991">
      <contour>
        <pt x="356" y="811" on="1"/>
        <pt x="234" y="812" on="1"/>
        <pt x="313" y="991" on="1"/>
        <pt x="468" y="991" on="1"/>
      </contour>
      <contour>
        <pt x="66" y="0" on="1"/>
        <pt x="66" y="740" on="1"/>
        <pt x="379" y="740" on="1"/>
        <pt x="461" y="740" on="0"/>
        <pt x="583" y="684" on="0"/>
        <pt x="649" y="580" on="0"/>
        <pt x="649" y="508" on="1"/>
        <pt x="649" y="434" on="0"/>
        <pt x="578" y="328" on="0"/>
        <pt x="514" y="301" on="1"/>
        <pt x="667" y="0" on="1"/>
        <pt x="476" y="0" on="1"/>
        <pt x="339" y="277" on="1"/>
        <pt x="239" y="277" on="1"/>
        <pt x="239" y="0" on="1"/>
      </contour>
      <contour>
        <pt x="377" y="591" on="1"/>
        <pt x="239" y="591" on="1"/>
        <pt x="239" y="416" on="1"/>
        <pt x="377" y="416" on="1"/>
        <pt x="422" y="416" on="0"/>
        <pt x="476" y="464" on="0"/>
        <pt x="476" y="503" on="1"/>
        <pt x="476" y="543" on="0"/>
        <pt x="422" y="591" on="0"/>
      </contour>
    </TTGlyph>
    <TTGlyph name="Rcaron" xMin="66" yMin="0" xMax="667" yMax="986">
      <contour>
        <pt x="227" y="801" on="1"/>
        <pt x="95" y="986" on="1"/>
        <pt x="225" y="986" on="1"/>
        <pt x="294" y="883" on="1"/>
        <pt x="363" y="986" on="1"/>
        <pt x="493" y="986" on="1"/>
        <pt x="361" y="801" on="1"/>
      </contour>
      <contour>
        <pt x="66" y="0" on="1"/>
        <pt x="66" y="740" on="1"/>
        <pt x="379" y="740" on="1"/>
        <pt x="461" y="740" on="0"/>
        <pt x="583" y="684" on="0"/>
        <pt x="649" y="580" on="0"/>
        <pt x="649" y="508" on="1"/>
        <pt x="649" y="434" on="0"/>
        <pt x="578" y="328" on="0"/>
        <pt x="514" y="301" on="1"/>
        <pt x="667" y="0" on="1"/>
        <pt x="476" y="0" on="1"/>
        <pt x="339" y="277" on="1"/>
        <pt x="239" y="277" on="1"/>
        <pt x="239" y="0" on="1"/>
      </contour>
      <contour>
        <pt x="377" y="591" on="1"/>
        <pt x="239" y="591" on="1"/>
        <pt x="239" y="416" on="1"/>
        <pt x="377" y="416" on="1"/>
        <pt x="422" y="416" on="0"/>
        <pt x="476" y="464" on="0"/>
        <pt x="476" y="503" on="1"/>
        <pt x="476" y="543" on="0"/>
        <pt x="422" y="591" on="0"/>
      </contour>
    </TTGlyph>
    <TTGlyph name="S" xMin="35" yMin="-10" xMax="646" yMax="750">
      <contour>
        <pt x="350" y="-10" on="1"/>
        <pt x="275" y="-10" on="0"/>
        <pt x="170" y="25" on="0"/>
        <pt x="101" y="81" on="0"/>
        <pt x="60" y="143" on="0"/>
        <pt x="41" y="199" on="0"/>
        <pt x="35" y="234" on="0"/>
        <pt x="35" y="234" on="1"/>
        <pt x="210" y="234" on="1"/>
        <pt x="210" y="234" on="0"/>
        <pt x="218" y="203" on="0"/>
        <pt x="247" y="163" on="0"/>
        <pt x="306" y="132" on="0"/>
        <pt x="356" y="132" on="1"/>
        <pt x="418" y="132" on="0"/>
        <pt x="473" y="182" on="0"/>
        <pt x="473" y="214" on="1"/>
        <pt x="473" y="243" on="0"/>
        <pt x="432" y="277" on="0"/>
        <pt x="386" y="286" on="1"/>
        <pt x="287" y="303" on="1"/>
        <pt x="225" y="314" on="0"/>
        <pt x="116" y="362" on="0"/>
        <pt x="49" y="450" on="0"/>
        <pt x="49" y="520" on="1"/>
        <pt x="49" y="589" on="0"/>
        <pt x="118" y="692" on="0"/>
        <pt x="246" y="750" on="0"/>
        <pt x="333" y="750" on="1"/>
        <pt x="401" y="750" on="0"/>
        <pt x="497" y="717" on="0"/>
        <pt x="561" y="666" on="0"/>
        <pt x="600" y="609" on="0"/>
        <pt x="619" y="557" on="0"/>
        <pt x="625" y="525" on="0"/>
        <pt x="625" y="525" on="1"/>
        <pt x="454" y="525" on="1"/>
        <pt x="454" y="525" on="0"/>
        <pt x="447" y="550" on="0"/>
        <pt x="422" y="583" on="0"/>
        <pt x="372" y="609" on="0"/>
        <pt x="329" y="609" on="1"/>
        <pt x="269" y="609" on="0"/>
        <pt x="219" y="558" on="0"/>
        <pt x="219" y="530" on="1"/>
        <pt x="219" y="499" on="0"/>
        <pt x="274" y="467" on="0"/>
        <pt x="316" y="459" on="1"/>
        <pt x="421" y="441" on="1"/>
        <pt x="482" y="430" on="0"/>
        <pt x="584" y="378" on="0"/>
        <pt x="646" y="290" on="0"/>
        <pt x="646" y="225" on="1"/>
        <pt x="646" y="158" on="0"/>
        <pt x="577" y="51" on="0"/>
        <pt x="445" y="-10" on="0"/>
      </contour>
    </TTGlyph>
    <TTGlyph name="Sacute" xMin="35" yMin="-10" xMax="646" yMax="991">
      <contour>
        <pt x="401" y="811" on="1"/>
        <pt x="279" y="812" on="1"/>
        <pt x="357" y="991" on="1"/>
        <pt x="513" y="991" on="1"/>
      </contour>
      <contour>
        <pt x="350" y="-10" on="1"/>
        <pt x="275" y="-10" on="0"/>
        <pt x="170" y="25" on="0"/>
        <pt x="101" y="81" on="0"/>
        <pt x="60" y="143" on="0"/>
        <pt x="41" y="199" on="0"/>
        <pt x="35" y="234" on="0"/>
        <pt x="35" y="234" on="1"/>
        <pt x="210" y="234" on="1"/>
        <pt x="210" y="234" on="0"/>
        <pt x="218" y="203" on="0"/>
        <pt x="247" y="163" on="0"/>
        <pt x="306" y="132" on="0"/>
        <pt x="356" y="132" on="1"/>
        <pt x="418" y="132" on="0"/>
        <pt x="473" y="182" on="0"/>
        <pt x="473" y="214" on="1"/>
        <pt x="473" y="243" on="0"/>
        <pt x="432" y="277" on="0"/>
        <pt x="386" y="286" on="1"/>
        <pt x="287" y="303" on="1"/>
        <pt x="225" y="314" on="0"/>
        <pt x="116" y="362" on="0"/>
        <pt x="49" y="450" on="0"/>
        <pt x="49" y="520" on="1"/>
        <pt x="49" y="589" on="0"/>
        <pt x="118" y="692" on="0"/>
        <pt x="246" y="750" on="0"/>
        <pt x="333" y="750" on="1"/>
        <pt x="401" y="750" on="0"/>
        <pt x="497" y="717" on="0"/>
        <pt x="561" y="666" on="0"/>
        <pt x="600" y="609" on="0"/>
        <pt x="619" y="557" on="0"/>
        <pt x="625" y="525" on="0"/>
        <pt x="625" y="525" on="1"/>
        <pt x="454" y="525" on="1"/>
        <pt x="454" y="525" on="0"/>
        <pt x="447" y="550" on="0"/>
        <pt x="422" y="583" on="0"/>
        <pt x="372" y="609" on="0"/>
        <pt x="329" y="609" on="1"/>
        <pt x="269" y="609" on="0"/>
        <pt x="219" y="558" on="0"/>
        <pt x="219" y="530" on="1"/>
        <pt x="219" y="499" on="0"/>
        <pt x="274" y="467" on="0"/>
        <pt x="316" y="459" on="1"/>
        <pt x="421" y="441" on="1"/>
        <pt x="482" y="430" on="0"/>
        <pt x="584" y="378" on="0"/>
        <pt x="646" y="290" on="0"/>
        <pt x="646" y="225" on="1"/>
        <pt x="646" y="158" on="0"/>
        <pt x="577" y="51" on="0"/>
        <pt x="445" y="-10" on="0"/>
      </contour>
    </TTGlyph>
    <TTGlyph name="Scaron" xMin="35" yMin="-10" xMax="646" yMax="986">
      <contour>
        <pt x="272" y="801" on="1"/>
        <pt x="139" y="986" on="1"/>
        <pt x="269" y="986" on="1"/>
        <pt x="339" y="883" on="1"/>
        <pt x="408" y="986" on="1"/>
        <pt x="538" y="986" on="1"/>
        <pt x="405" y="801" on="1"/>
      </contour>
      <contour>
        <pt x="350" y="-10" on="1"/>
        <pt x="275" y="-10" on="0"/>
        <pt x="170" y="25" on="0"/>
        <pt x="101" y="81" on="0"/>
        <pt x="60" y="143" on="0"/>
        <pt x="41" y="199" on="0"/>
        <pt x="35" y="234" on="0"/>
        <pt x="35" y="234" on="1"/>
        <pt x="210" y="234" on="1"/>
        <pt x="210" y="234" on="0"/>
        <pt x="218" y="203" on="0"/>
        <pt x="247" y="163" on="0"/>
        <pt x="306" y="132" on="0"/>
        <pt x="356" y="132" on="1"/>
        <pt x="418" y="132" on="0"/>
        <pt x="473" y="182" on="0"/>
        <pt x="473" y="214" on="1"/>
        <pt x="473" y="243" on="0"/>
        <pt x="432" y="277" on="0"/>
        <pt x="386" y="286" on="1"/>
        <pt x="287" y="303" on="1"/>
        <pt x="225" y="314" on="0"/>
        <pt x="116" y="362" on="0"/>
        <pt x="49" y="450" on="0"/>
        <pt x="49" y="520" on="1"/>
        <pt x="49" y="589" on="0"/>
        <pt x="118" y="692" on="0"/>
        <pt x="246" y="750" on="0"/>
        <pt x="333" y="750" on="1"/>
        <pt x="401" y="750" on="0"/>
        <pt x="497" y="717" on="0"/>
        <pt x="561" y="666" on="0"/>
        <pt x="600" y="609" on="0"/>
        <pt x="619" y="557" on="0"/>
        <pt x="625" y="525" on="0"/>
        <pt x="625" y="525" on="1"/>
        <pt x="454" y="525" on="1"/>
        <pt x="454" y="525" on="0"/>
        <pt x="447" y="550" on="0"/>
        <pt x="422" y="583" on="0"/>
        <pt x="372" y="609" on="0"/>
        <pt x="329" y="609" on="1"/>
        <pt x="269" y="609" on="0"/>
        <pt x="219" y="558" on="0"/>
        <pt x="219" y="530" on="1"/>
        <pt x="219" y="499" on="0"/>
        <pt x="274" y="467" on="0"/>
        <pt x="316" y="459" on="1"/>
        <pt x="421" y="441" on="1"/>
        <pt x="482" y="430" on="0"/>
        <pt x="584" y="378" on="0"/>
        <pt x="646" y="290" on="0"/>
        <pt x="646" y="225" on="1"/>
        <pt x="646" y="158" on="0"/>
        <pt x="577" y="51" on="0"/>
        <pt x="445" y="-10" on="0"/>
      </contour>
    </TTGlyph>
    <TTGlyph name="Scedilla" xMin="35" yMin="-262" xMax="646" yMax="750">
      <contour>
        <pt x="314" y="-262" on="1"/>
        <pt x="294" y="-262" on="0"/>
        <pt x="255" y="-258" on="0"/>
        <pt x="229" y="-255" on="0"/>
        <pt x="229" y="-255" on="1"/>
        <pt x="229" y="-169" on="1"/>
        <pt x="229" y="-169" on="0"/>
        <pt x="254" y="-172" on="0"/>
        <pt x="290" y="-175" on="0"/>
        <pt x="305" y="-175" on="1"/>
        <pt x="349" y="-175" on="0"/>
        <pt x="378" y="-150" on="0"/>
        <pt x="378" y="-137" on="1"/>
        <pt x="378" y="-124" on="0"/>
        <pt x="357" y="-108" on="0"/>
        <pt x="339" y="-108" on="1"/>
        <pt x="317" y="-108" on="0"/>
        <pt x="285" y="-127" on="0"/>
        <pt x="285" y="-127" on="1"/>
        <pt x="226" y="-67" on="1"/>
        <pt x="271" y="-4" on="1"/>
        <pt x="204" y="8" on="0"/>
        <pt x="117" y="63" on="0"/>
        <pt x="66" y="130" on="0"/>
        <pt x="42" y="193" on="0"/>
        <pt x="35" y="234" on="0"/>
        <pt x="35" y="234" on="1"/>
        <pt x="210" y="234" on="1"/>
        <pt x="210" y="234" on="0"/>
        <pt x="218" y="203" on="0"/>
        <pt x="247" y="163" on="0"/>
        <pt x="306" y="132" on="0"/>
        <pt x="356" y="132" on="1"/>
        <pt x="418" y="132" on="0"/>
        <pt x="473" y="182" on="0"/>
        <pt x="473" y="214" on="1"/>
        <pt x="473" y="243" on="0"/>
        <pt x="432" y="277" on="0"/>
        <pt x="386" y="286" on="1"/>
        <pt x="287" y="303" on="1"/>
        <pt x="225" y="314" on="0"/>
        <pt x="116" y="362" on="0"/>
        <pt x="49" y="450" on="0"/>
        <pt x="49" y="520" on="1"/>
        <pt x="49" y="589" on="0"/>
        <pt x="118" y="692" on="0"/>
        <pt x="246" y="750" on="0"/>
        <pt x="333" y="750" on="1"/>
        <pt x="401" y="750" on="0"/>
        <pt x="497" y="717" on="0"/>
        <pt x="561" y="666" on="0"/>
        <pt x="600" y="609" on="0"/>
        <pt x="619" y="557" on="0"/>
        <pt x="625" y="525" on="0"/>
        <pt x="625" y="525" on="1"/>
        <pt x="454" y="525" on="1"/>
        <pt x="454" y="525" on="0"/>
        <pt x="447" y="550" on="0"/>
        <pt x="422" y="583" on="0"/>
        <pt x="372" y="609" on="0"/>
        <pt x="329" y="609" on="1"/>
        <pt x="269" y="609" on="0"/>
        <pt x="219" y="558" on="0"/>
        <pt x="219" y="530" on="1"/>
        <pt x="219" y="499" on="0"/>
        <pt x="274" y="467" on="0"/>
        <pt x="316" y="459" on="1"/>
        <pt x="421" y="441" on="1"/>
        <pt x="482" y="430" on="0"/>
        <pt x="584" y="378" on="0"/>
        <pt x="646" y="290" on="0"/>
        <pt x="646" y="225" on="1"/>
        <pt x="646" y="160" on="0"/>
        <pt x="582" y="57" on="0"/>
        <pt x="459" y="-6" on="0"/>
        <pt x="371" y="-10" on="1"/>
        <pt x="353" y="-34" on="1"/>
        <pt x="362" y="-33" on="0"/>
        <pt x="372" y="-33" on="1"/>
        <pt x="422" y="-33" on="0"/>
        <pt x="480" y="-94" on="0"/>
        <pt x="480" y="-139" on="1"/>
        <pt x="480" y="-171" on="0"/>
        <pt x="444" y="-227" on="0"/>
        <pt x="371" y="-262" on="0"/>
      </contour>
    </TTGlyph>
    <TTGlyph name="T" xMin="37" yMin="0" xMax="661" yMax="740">
      <contour>
        <pt x="262" y="0" on="1"/>
        <pt x="262" y="590" on="1"/>
        <pt x="37" y="590" on="1"/>
        <pt x="37" y="740" on="1"/>
        <pt x="661" y="740" on="1"/>
        <pt x="661" y="590" on="1"/>
        <pt x="436" y="590" on="1"/>
        <pt x="436" y="0" on="1"/>
      </contour>
    </TTGlyph>
    <TTGlyph name="Tbar" xMin="37" yMin="0" xMax="661" yMax="740">
      <contour>
        <pt x="262" y="0" on="1"/>
        <pt x="262" y="316" on="1"/>
        <pt x="76" y="316" on="1"/>
        <pt x="76" y="425" on="1"/>
        <pt x="262" y="425" on="1"/>
        <pt x="262" y="590" on="1"/>
        <pt x="37" y="590" on="1"/>
        <pt x="37" y="740" on="1"/>
        <pt x="661" y="740" on="1"/>
        <pt x="661" y="590" on="1"/>
        <pt x="436" y="590" on="1"/>
        <pt x="436" y="425" on="1"/>
        <pt x="622" y="425" on="1"/>
        <pt x="622" y="316" on="1"/>
        <pt x="436" y="316" on="1"/>
        <pt x="436" y="0" on="1"/>
      </contour>
    </TTGlyph>
    <TTGlyph name="Tcaron" xMin="37" yMin="0" xMax="661" yMax="985">
      <contour>
        <pt x="282" y="800" on="1"/>
        <pt x="150" y="985" on="1"/>
        <pt x="280" y="985" on="1"/>
        <pt x="349" y="882" on="1"/>
        <pt x="418" y="985" on="1"/>
        <pt x="548" y="985" on="1"/>
        <pt x="416" y="800" on="1"/>
      </contour>
      <contour>
        <pt x="262" y="0" on="1"/>
        <pt x="262" y="590" on="1"/>
        <pt x="37" y="590" on="1"/>
        <pt x="37" y="740" on="1"/>
        <pt x="661" y="740" on="1"/>
        <pt x="661" y="590" on="1"/>
        <pt x="436" y="590" on="1"/>
        <pt x="436" y="0" on="1"/>
      </contour>
    </TTGlyph>
    <TTGlyph name="Thorn" xMin="64" yMin="0" xMax="661" yMax="740">
      <contour>
        <pt x="64" y="0" on="1"/>
        <pt x="64" y="740" on="1"/>
        <pt x="237" y="740" on="1"/>
        <pt x="237" y="618" on="1"/>
        <pt x="383" y="618" on="1"/>
        <pt x="476" y="618" on="0"/>
        <pt x="600" y="546" on="0"/>
        <pt x="661" y="432" on="0"/>
        <pt x="661" y="370" on="1"/>
        <pt x="661" y="308" on="0"/>
        <pt x="600" y="193" on="0"/>
        <pt x="476" y="121" on="0"/>
        <pt x="383" y="121" on="1"/>
        <pt x="237" y="121" on="1"/>
        <pt x="237" y="0" on="1"/>
      </contour>
      <contour>
        <pt x="382" y="468" on="1"/>
        <pt x="237" y="468" on="1"/>
        <pt x="237" y="271" on="1"/>
        <pt x="382" y="271" on="1"/>
        <pt x="435" y="271" on="0"/>
        <pt x="487" y="332" on="0"/>
        <pt x="487" y="369" on="1"/>
        <pt x="487" y="406" on="0"/>
        <pt x="435" y="468" on="0"/>
      </contour>
    </TTGlyph>
    <TTGlyph name="U" xMin="64" yMin="-10" xMax="678" yMax="740">
      <contour>
        <pt x="371" y="-10" on="1"/>
        <pt x="312" y="-10" on="0"/>
        <pt x="202" y="23" on="0"/>
        <pt x="115" y="95" on="0"/>
        <pt x="64" y="211" on="0"/>
        <pt x="64" y="293" on="1"/>
        <pt x="64" y="740" on="1"/>
        <pt x="237" y="740" on="1"/>
        <pt x="237" y="293" on="1"/>
        <pt x="237" y="234" on="0"/>
        <pt x="302" y="153" on="0"/>
        <pt x="371" y="153" on="1"/>
        <pt x="440" y="153" on="0"/>
        <pt x="505" y="234" on="0"/>
        <pt x="505" y="293" on="1"/>
        <pt x="505" y="740" on="1"/>
        <pt x="678" y="740" on="1"/>
        <pt x="678" y="293" on="1"/>
        <pt x="678" y="211" on="0"/>
        <pt x="627" y="95" on="0"/>
        <pt x="540" y="23" on="0"/>
        <pt x="430" y="-10" on="0"/>
      </contour>
    </TTGlyph>
    <TTGlyph name="Uacute" xMin="66" yMin="-10" xMax="680" yMax="991">
      <contour>
        <pt x="434" y="811" on="1"/>
        <pt x="312" y="812" on="1"/>
        <pt x="391" y="991" on="1"/>
        <pt x="546" y="991" on="1"/>
      </contour>
      <contour>
        <pt x="373" y="-10" on="1"/>
        <pt x="314" y="-10" on="0"/>
        <pt x="204" y="23" on="0"/>
        <pt x="117" y="95" on="0"/>
        <pt x="66" y="211" on="0"/>
        <pt x="66" y="293" on="1"/>
        <pt x="66" y="740" on="1"/>
        <pt x="239" y="740" on="1"/>
        <pt x="239" y="293" on="1"/>
        <pt x="239" y="234" on="0"/>
        <pt x="304" y="153" on="0"/>
        <pt x="373" y="153" on="1"/>
        <pt x="442" y="153" on="0"/>
        <pt x="507" y="234" on="0"/>
        <pt x="507" y="293" on="1"/>
        <pt x="507" y="740" on="1"/>
        <pt x="680" y="740" on="1"/>
        <pt x="680" y="293" on="1"/>
        <pt x="680" y="211" on="0"/>
        <pt x="629" y="95" on="0"/>
        <pt x="542" y="23" on="0"/>
        <pt x="432" y="-10" on="0"/>
      </contour>
    </TTGlyph>
    <TTGlyph name="Ucircumflex" xMin="66" yMin="-10" xMax="680" yMax="987">
      <contour>
        <pt x="173" y="802" on="1"/>
        <pt x="306" y="987" on="1"/>
        <pt x="439" y="987" on="1"/>
        <pt x="572" y="802" on="1"/>
        <pt x="442" y="802" on="1"/>
        <pt x="373" y="905" on="1"/>
        <pt x="303" y="802" on="1"/>
      </contour>
      <contour>
        <pt x="373" y="-10" on="1"/>
        <pt x="314" y="-10" on="0"/>
        <pt x="204" y="23" on="0"/>
        <pt x="117" y="95" on="0"/>
        <pt x="66" y="211" on="0"/>
        <pt x="66" y="293" on="1"/>
        <pt x="66" y="740" on="1"/>
        <pt x="239" y="740" on="1"/>
        <pt x="239" y="293" on="1"/>
        <pt x="239" y="234" on="0"/>
        <pt x="304" y="153" on="0"/>
        <pt x="373" y="153" on="1"/>
        <pt x="442" y="153" on="0"/>
        <pt x="507" y="234" on="0"/>
        <pt x="507" y="293" on="1"/>
        <pt x="507" y="740" on="1"/>
        <pt x="680" y="740" on="1"/>
        <pt x="680" y="293" on="1"/>
        <pt x="680" y="211" on="0"/>
        <pt x="629" y="95" on="0"/>
        <pt x="542" y="23" on="0"/>
        <pt x="432" y="-10" on="0"/>
      </contour>
    </TTGlyph>
    <TTGlyph name="Udieresis" xMin="66" yMin="-10" xMax="680" yMax="975">
      <contour>
        <pt x="491" y="794" on="1"/>
        <pt x="450" y="794" on="0"/>
        <pt x="397" y="848" on="0"/>
        <pt x="397" y="885" on="1"/>
        <pt x="397" y="922" on="0"/>
        <pt x="450" y="975" on="0"/>
        <pt x="491" y="975" on="1"/>
        <pt x="532" y="975" on="0"/>
        <pt x="585" y="922" on="0"/>
        <pt x="585" y="885" on="1"/>
        <pt x="585" y="848" on="0"/>
        <pt x="532" y="794" on="0"/>
      </contour>
      <contour>
        <pt x="252" y="794" on="1"/>
        <pt x="211" y="794" on="0"/>
        <pt x="158" y="848" on="0"/>
        <pt x="158" y="885" on="1"/>
        <pt x="158" y="922" on="0"/>
        <pt x="211" y="975" on="0"/>
        <pt x="252" y="975" on="1"/>
        <pt x="293" y="975" on="0"/>
        <pt x="346" y="922" on="0"/>
        <pt x="346" y="885" on="1"/>
        <pt x="346" y="848" on="0"/>
        <pt x="293" y="794" on="0"/>
      </contour>
      <contour>
        <pt x="373" y="-10" on="1"/>
        <pt x="314" y="-10" on="0"/>
        <pt x="204" y="23" on="0"/>
        <pt x="117" y="95" on="0"/>
        <pt x="66" y="211" on="0"/>
        <pt x="66" y="293" on="1"/>
        <pt x="66" y="740" on="1"/>
        <pt x="239" y="740" on="1"/>
        <pt x="239" y="293" on="1"/>
        <pt x="239" y="234" on="0"/>
        <pt x="304" y="153" on="0"/>
        <pt x="373" y="153" on="1"/>
        <pt x="442" y="153" on="0"/>
        <pt x="507" y="234" on="0"/>
        <pt x="507" y="293" on="1"/>
        <pt x="507" y="740" on="1"/>
        <pt x="680" y="740" on="1"/>
        <pt x="680" y="293" on="1"/>
        <pt x="680" y="211" on="0"/>
        <pt x="629" y="95" on="0"/>
        <pt x="542" y="23" on="0"/>
        <pt x="432" y="-10" on="0"/>
      </contour>
    </TTGlyph>
    <TTGlyph name="Ugrave" xMin="66" yMin="-10" xMax="680" yMax="991">
      <contour>
        <pt x="313" y="811" on="1"/>
        <pt x="201" y="991" on="1"/>
        <pt x="357" y="991" on="1"/>
        <pt x="435" y="812" on="1"/>
      </contour>
      <contour>
        <pt x="373" y="-10" on="1"/>
        <pt x="314" y="-10" on="0"/>
        <pt x="204" y="23" on="0"/>
        <pt x="117" y="95" on="0"/>
        <pt x="66" y="211" on="0"/>
        <pt x="66" y="293" on="1"/>
        <pt x="66" y="740" on="1"/>
        <pt x="239" y="740" on="1"/>
        <pt x="239" y="293" on="1"/>
        <pt x="239" y="234" on="0"/>
        <pt x="304" y="153" on="0"/>
        <pt x="373" y="153" on="1"/>
        <pt x="442" y="153" on="0"/>
        <pt x="507" y="234" on="0"/>
        <pt x="507" y="293" on="1"/>
        <pt x="507" y="740" on="1"/>
        <pt x="680" y="740" on="1"/>
        <pt x="680" y="293" on="1"/>
        <pt x="680" y="211" on="0"/>
        <pt x="629" y="95" on="0"/>
        <pt x="542" y="23" on="0"/>
        <pt x="432" y="-10" on="0"/>
      </contour>
    </TTGlyph>
    <TTGlyph name="Uhorn" xMin="66" yMin="-10" xMax="796" yMax="855">
      <contour>
        <pt x="373" y="-10" on="1"/>
        <pt x="314" y="-10" on="0"/>
        <pt x="204" y="23" on="0"/>
        <pt x="117" y="95" on="0"/>
        <pt x="66" y="211" on="0"/>
        <pt x="66" y="293" on="1"/>
        <pt x="66" y="740" on="1"/>
        <pt x="239" y="740" on="1"/>
        <pt x="239" y="293" on="1"/>
        <pt x="239" y="234" on="0"/>
        <pt x="304" y="153" on="0"/>
        <pt x="373" y="153" on="1"/>
        <pt x="442" y="153" on="0"/>
        <pt x="507" y="234" on="0"/>
        <pt x="507" y="293" on="1"/>
        <pt x="507" y="740" on="1"/>
        <pt x="621" y="740" on="1"/>
        <pt x="660" y="740" on="0"/>
        <pt x="660" y="780" on="1"/>
        <pt x="660" y="855" on="1"/>
        <pt x="796" y="855" on="1"/>
        <pt x="796" y="773" on="1"/>
        <pt x="796" y="718" on="0"/>
        <pt x="737" y="657" on="0"/>
        <pt x="681" y="657" on="1"/>
        <pt x="680" y="657" on="1"/>
        <pt x="680" y="293" on="1"/>
        <pt x="680" y="211" on="0"/>
        <pt x="629" y="95" on="0"/>
        <pt x="542" y="23" on="0"/>
        <pt x="432" y="-10" on="0"/>
      </contour>
    </TTGlyph>
    <TTGlyph name="Uhungarumlaut" xMin="66" yMin="-10" xMax="680" yMax="991">
      <contour>
        <pt x="331" y="811" on="1"/>
        <pt x="216" y="812" on="1"/>
        <pt x="263" y="991" on="1"/>
        <pt x="411" y="991" on="1"/>
      </contour>
      <contour>
        <pt x="524" y="811" on="1"/>
        <pt x="409" y="812" on="1"/>
        <pt x="456" y="991" on="1"/>
        <pt x="604" y="991" on="1"/>
      </contour>
      <contour>
        <pt x="373" y="-10" on="1"/>
        <pt x="314" y="-10" on="0"/>
        <pt x="204" y="23" on="0"/>
        <pt x="117" y="95" on="0"/>
        <pt x="66" y="211" on="0"/>
        <pt x="66" y="293" on="1"/>
        <pt x="66" y="740" on="1"/>
        <pt x="239" y="740" on="1"/>
        <pt x="239" y="293" on="1"/>
        <pt x="239" y="234" on="0"/>
        <pt x="304" y="153" on="0"/>
        <pt x="373" y="153" on="1"/>
        <pt x="442" y="153" on="0"/>
        <pt x="507" y="234" on="0"/>
        <pt x="507" y="293" on="1"/>
        <pt x="507" y="740" on="1"/>
        <pt x="680" y="740" on="1"/>
        <pt x="680" y="293" on="1"/>
        <pt x="680" y="211" on="0"/>
        <pt x="629" y="95" on="0"/>
        <pt x="542" y="23" on="0"/>
        <pt x="432" y="-10" on="0"/>
      </contour>
    </TTGlyph>
    <TTGlyph name="Umacron" xMin="66" yMin="-10" xMax="680" yMax="918">
      <contour>
        <pt x="206" y="822" on="1"/>
        <pt x="206" y="918" on="1"/>
        <pt x="538" y="918" on="1"/>
        <pt x="538" y="822" on="1"/>
      </contour>
      <contour>
        <pt x="373" y="-10" on="1"/>
        <pt x="314" y="-10" on="0"/>
        <pt x="204" y="23" on="0"/>
        <pt x="117" y="95" on="0"/>
        <pt x="66" y="211" on="0"/>
        <pt x="66" y="293" on="1"/>
        <pt x="66" y="740" on="1"/>
        <pt x="239" y="740" on="1"/>
        <pt x="239" y="293" on="1"/>
        <pt x="239" y="234" on="0"/>
        <pt x="304" y="153" on="0"/>
        <pt x="373" y="153" on="1"/>
        <pt x="442" y="153" on="0"/>
        <pt x="507" y="234" on="0"/>
        <pt x="507" y="293" on="1"/>
        <pt x="507" y="740" on="1"/>
        <pt x="680" y="740" on="1"/>
        <pt x="680" y="293" on="1"/>
        <pt x="680" y="211" on="0"/>
        <pt x="629" y="95" on="0"/>
        <pt x="542" y="23" on="0"/>
        <pt x="432" y="-10" on="0"/>
      </contour>
    </TTGlyph>
    <TTGlyph name="Uogonek" xMin="66" yMin="-194" xMax="680" yMax="740">
      <contour>
        <pt x="415" y="-194" on="1"/>
        <pt x="337" y="-194" on="0"/>
        <pt x="268" y="-132" on="0"/>
        <pt x="268" y="-90" on="1"/>
        <pt x="268" y="-60" on="0"/>
        <pt x="296" y="-19" on="0"/>
        <pt x="315" y="-6" on="1"/>
        <pt x="248" y="3" on="0"/>
        <pt x="134" y="71" on="0"/>
        <pt x="66" y="197" on="0"/>
        <pt x="66" y="293" on="1"/>
        <pt x="66" y="740" on="1"/>
        <pt x="239" y="740" on="1"/>
        <pt x="239" y="293" on="1"/>
        <pt x="239" y="234" on="0"/>
        <pt x="304" y="153" on="0"/>
        <pt x="373" y="153" on="1"/>
        <pt x="442" y="153" on="0"/>
        <pt x="507" y="234" on="0"/>
        <pt x="507" y="293" on="1"/>
        <pt x="507" y="740" on="1"/>
        <pt x="680" y="740" on="1"/>
        <pt x="680" y="293" on="1"/>
        <pt x="680" y="198" on="0"/>
        <pt x="613" y="73" on="0"/>
        <pt x="502" y="5" on="0"/>
        <pt x="437" y="-5" on="1"/>
        <pt x="432" y="-7" on="0"/>
        <pt x="409" y="-21" on="0"/>
        <pt x="388" y="-45" on="0"/>
        <pt x="388" y="-61" on="1"/>
        <pt x="388" y="-75" on="0"/>
        <pt x="413" y="-98" on="0"/>
        <pt x="441" y="-98" on="1"/>
        <pt x="454" y="-98" on="0"/>
        <pt x="474" y="-94" on="0"/>
        <pt x="474" y="-94" on="1"/>
        <pt x="474" y="-188" on="1"/>
        <pt x="474" y="-188" on="0"/>
        <pt x="441" y="-194" on="0"/>
      </contour>
    </TTGlyph>
    <TTGlyph name="Uring" xMin="66" yMin="-10" xMax="680" yMax="1069">
      <contour>
        <pt x="372" y="793" on="1"/>
        <pt x="334" y="793" on="0"/>
        <pt x="271" y="830" on="0"/>
        <pt x="233" y="893" on="0"/>
        <pt x="233" y="931" on="1"/>
        <pt x="233" y="969" on="0"/>
        <pt x="271" y="1032" on="0"/>
        <pt x="334" y="1069" on="0"/>
        <pt x="372" y="1069" on="1"/>
        <pt x="410" y="1069" on="0"/>
        <pt x="473" y="1032" on="0"/>
        <pt x="510" y="969" on="0"/>
        <pt x="510" y="931" on="1"/>
        <pt x="510" y="893" on="0"/>
        <pt x="473" y="830" on="0"/>
        <pt x="410" y="793" on="0"/>
      </contour>
      <contour>
        <pt x="372" y="878" on="1"/>
        <pt x="394" y="878" on="0"/>
        <pt x="425" y="909" on="0"/>
        <pt x="425" y="931" on="1"/>
        <pt x="425" y="953" on="0"/>
        <pt x="394" y="983" on="0"/>
        <pt x="372" y="983" on="1"/>
        <pt x="350" y="983" on="0"/>
        <pt x="319" y="953" on="0"/>
        <pt x="319" y="931" on="1"/>
        <pt x="319" y="909" on="0"/>
        <pt x="350" y="878" on="0"/>
      </contour>
      <contour>
        <pt x="373" y="-10" on="1"/>
        <pt x="314" y="-10" on="0"/>
        <pt x="204" y="23" on="0"/>
        <pt x="117" y="95" on="0"/>
        <pt x="66" y="211" on="0"/>
        <pt x="66" y="293" on="1"/>
        <pt x="66" y="740" on="1"/>
        <pt x="239" y="740" on="1"/>
        <pt x="239" y="293" on="1"/>
        <pt x="239" y="234" on="0"/>
        <pt x="304" y="153" on="0"/>
        <pt x="373" y="153" on="1"/>
        <pt x="442" y="153" on="0"/>
        <pt x="507" y="234" on="0"/>
        <pt x="507" y="293" on="1"/>
        <pt x="507" y="740" on="1"/>
        <pt x="680" y="740" on="1"/>
        <pt x="680" y="293" on="1"/>
        <pt x="680" y="211" on="0"/>
        <pt x="629" y="95" on="0"/>
        <pt x="542" y="23" on="0"/>
        <pt x="432" y="-10" on="0"/>
      </contour>
    </TTGlyph>
    <TTGlyph name="Utilde" xMin="66" yMin="-10" xMax="680" yMax="982">
      <contour>
        <pt x="448" y="823" on="1"/>
        <pt x="421" y="823" on="0"/>
        <pt x="381" y="841" on="0"/>
        <pt x="351" y="865" on="0"/>
        <pt x="325" y="883" on="0"/>
        <pt x="312" y="883" on="1"/>
        <pt x="296" y="883" on="0"/>
        <pt x="285" y="855" on="0"/>
        <pt x="285" y="829" on="1"/>
        <pt x="197" y="829" on="1"/>
        <pt x="197" y="863" on="0"/>
        <pt x="213" y="934" on="0"/>
        <pt x="258" y="982" on="0"/>
        <pt x="302" y="982" on="1"/>
        <pt x="329" y="982" on="0"/>
        <pt x="369" y="964" on="0"/>
        <pt x="400" y="940" on="0"/>
        <pt x="426" y="922" on="0"/>
        <pt x="439" y="922" on="1"/>
        <pt x="465" y="922" on="0"/>
        <pt x="465" y="976" on="1"/>
        <pt x="552" y="976" on="1"/>
        <pt x="552" y="942" on="0"/>
        <pt x="536" y="871" on="0"/>
        <pt x="491" y="823" on="0"/>
      </contour>
      <contour>
        <pt x="373" y="-10" on="1"/>
        <pt x="314" y="-10" on="0"/>
        <pt x="204" y="23" on="0"/>
        <pt x="117" y="95" on="0"/>
        <pt x="66" y="211" on="0"/>
        <pt x="66" y="293" on="1"/>
        <pt x="66" y="740" on="1"/>
        <pt x="239" y="740" on="1"/>
        <pt x="239" y="293" on="1"/>
        <pt x="239" y="234" on="0"/>
        <pt x="304" y="153" on="0"/>
        <pt x="373" y="153" on="1"/>
        <pt x="442" y="153" on="0"/>
        <pt x="507" y="234" on="0"/>
        <pt x="507" y="293" on="1"/>
        <pt x="507" y="740" on="1"/>
        <pt x="680" y="740" on="1"/>
        <pt x="680" y="293" on="1"/>
        <pt x="680" y="211" on="0"/>
        <pt x="629" y="95" on="0"/>
        <pt x="542" y="23" on="0"/>
        <pt x="432" y="-10" on="0"/>
      </contour>
    </TTGlyph>
    <TTGlyph name="V" xMin="14" yMin="0" xMax="744" yMax="740">
      <contour>
        <pt x="263" y="0" on="1"/>
        <pt x="14" y="740" on="1"/>
        <pt x="195" y="740" on="1"/>
        <pt x="379" y="164" on="1"/>
        <pt x="563" y="740" on="1"/>
        <pt x="744" y="740" on="1"/>
        <pt x="495" y="0" on="1"/>
      </contour>
    </TTGlyph>
    <TTGlyph name="W" xMin="24" yMin="0" xMax="1050" yMax="740">
      <contour>
        <pt x="204" y="0" on="1"/>
        <pt x="24" y="740" on="1"/>
        <pt x="196" y="740" on="1"/>
        <pt x="319" y="223" on="1"/>
        <pt x="448" y="740" on="1"/>
        <pt x="626" y="740" on="1"/>
        <pt x="755" y="223" on="1"/>
        <pt x="878" y="740" on="1"/>
        <pt x="1050" y="740" on="1"/>
        <pt x="870" y="0" on="1"/>
        <pt x="645" y="0" on="1"/>
        <pt x="537" y="439" on="1"/>
        <pt x="429" y="0" on="1"/>
      </contour>
    </TTGlyph>
    <TTGlyph name="Wacute" xMin="13" yMin="0" xMax="1039" yMax="991">
      <contour>
        <pt x="589" y="811" on="1"/>
        <pt x="466" y="812" on="1"/>
        <pt x="545" y="991" on="1"/>
        <pt x="701" y="991" on="1"/>
      </contour>
      <contour>
        <pt x="193" y="0" on="1"/>
        <pt x="13" y="740" on="1"/>
        <pt x="185" y="740" on="1"/>
        <pt x="308" y="223" on="1"/>
        <pt x="437" y="740" on="1"/>
        <pt x="615" y="740" on="1"/>
        <pt x="744" y="223" on="1"/>
        <pt x="867" y="740" on="1"/>
        <pt x="1039" y="740" on="1"/>
        <pt x="859" y="0" on="1"/>
        <pt x="634" y="0" on="1"/>
        <pt x="526" y="439" on="1"/>
        <pt x="418" y="0" on="1"/>
      </contour>
    </TTGlyph>
    <TTGlyph name="Wcircumflex" xMin="13" yMin="0" xMax="1039" yMax="987">
      <contour>
        <pt x="328" y="802" on="1"/>
        <pt x="460" y="987" on="1"/>
        <pt x="594" y="987" on="1"/>
        <pt x="726" y="802" on="1"/>
        <pt x="596" y="802" on="1"/>
        <pt x="527" y="905" on="1"/>
        <pt x="458" y="802" on="1"/>
      </contour>
      <contour>
        <pt x="193" y="0" on="1"/>
        <pt x="13" y="740" on="1"/>
        <pt x="185" y="740" on="1"/>
        <pt x="308" y="223" on="1"/>
        <pt x="437" y="740" on="1"/>
        <pt x="615" y="740" on="1"/>
        <pt x="744" y="223" on="1"/>
        <pt x="867" y="740" on="1"/>
        <pt x="1039" y="740" on="1"/>
        <pt x="859" y="0" on="1"/>
        <pt x="634" y="0" on="1"/>
        <pt x="526" y="439" on="1"/>
        <pt x="418" y="0" on="1"/>
      </contour>
    </TTGlyph>
    <TTGlyph name="Wdieresis" xMin="13" yMin="0" xMax="1039" yMax="975">
      <contour>
        <pt x="645" y="794" on="1"/>
        <pt x="604" y="794" on="0"/>
        <pt x="551" y="848" on="0"/>
        <pt x="551" y="885" on="1"/>
        <pt x="551" y="922" on="0"/>
        <pt x="604" y="975" on="0"/>
        <pt x="645" y="975" on="1"/>
        <pt x="686" y="975" on="0"/>
        <pt x="740" y="922" on="0"/>
        <pt x="740" y="885" on="1"/>
        <pt x="740" y="848" on="0"/>
        <pt x="686" y="794" on="0"/>
      </contour>
      <contour>
        <pt x="407" y="794" on="1"/>
        <pt x="365" y="794" on="0"/>
        <pt x="312" y="848" on="0"/>
        <pt x="312" y="885" on="1"/>
        <pt x="312" y="922" on="0"/>
        <pt x="365" y="975" on="0"/>
        <pt x="407" y="975" on="1"/>
        <pt x="447" y="975" on="0"/>
        <pt x="501" y="922" on="0"/>
        <pt x="501" y="885" on="1"/>
        <pt x="501" y="848" on="0"/>
        <pt x="447" y="794" on="0"/>
      </contour>
      <contour>
        <pt x="193" y="0" on="1"/>
        <pt x="13" y="740" on="1"/>
        <pt x="185" y="740" on="1"/>
        <pt x="308" y="223" on="1"/>
        <pt x="437" y="740" on="1"/>
        <pt x="615" y="740" on="1"/>
        <pt x="744" y="223" on="1"/>
        <pt x="867" y="740" on="1"/>
        <pt x="1039" y="740" on="1"/>
        <pt x="859" y="0" on="1"/>
        <pt x="634" y="0" on="1"/>
        <pt x="526" y="439" on="1"/>
        <pt x="418" y="0" on="1"/>
      </contour>
    </TTGlyph>
    <TTGlyph name="Wgrave" xMin="13" yMin="0" xMax="1039" yMax="991">
      <contour>
        <pt x="467" y="811" on="1"/>
        <pt x="355" y="991" on="1"/>
        <pt x="511" y="991" on="1"/>
        <pt x="590" y="812" on="1"/>
      </contour>
      <contour>
        <pt x="193" y="0" on="1"/>
        <pt x="13" y="740" on="1"/>
        <pt x="185" y="740" on="1"/>
        <pt x="308" y="223" on="1"/>
        <pt x="437" y="740" on="1"/>
        <pt x="615" y="740" on="1"/>
        <pt x="744" y="223" on="1"/>
        <pt x="867" y="740" on="1"/>
        <pt x="1039" y="740" on="1"/>
        <pt x="859" y="0" on="1"/>
        <pt x="634" y="0" on="1"/>
        <pt x="526" y="439" on="1"/>
        <pt x="418" y="0" on="1"/>
      </contour>
    </TTGlyph>
    <TTGlyph name="X" xMin="47" yMin="0" xMax="739" yMax="740">
      <contour>
        <pt x="47" y="0" on="1"/>
        <pt x="272" y="370" on="1"/>
        <pt x="48" y="740" on="1"/>
        <pt x="254" y="740" on="1"/>
        <pt x="392" y="497" on="1"/>
        <pt x="532" y="740" on="1"/>
        <pt x="738" y="740" on="1"/>
        <pt x="510" y="370" on="1"/>
        <pt x="739" y="0" on="1"/>
        <pt x="532" y="0" on="1"/>
        <pt x="392" y="243" on="1"/>
        <pt x="254" y="0" on="1"/>
      </contour>
    </TTGlyph>
    <TTGlyph name="Y" xMin="21" yMin="0" xMax="715" yMax="740">
      <contour>
        <pt x="282" y="0" on="1"/>
        <pt x="282" y="250" on="1"/>
        <pt x="21" y="740" on="1"/>
        <pt x="210" y="740" on="1"/>
        <pt x="368" y="427" on="1"/>
        <pt x="525" y="740" on="1"/>
        <pt x="715" y="740" on="1"/>
        <pt x="455" y="250" on="1"/>
        <pt x="455" y="0" on="1"/>
      </contour>
    </TTGlyph>
    <TTGlyph name="Yacute" xMin="21" yMin="0" xMax="715" yMax="991">
      <contour>
        <pt x="431" y="811" on="1"/>
        <pt x="309" y="812" on="1"/>
        <pt x="387" y="991" on="1"/>
        <pt x="543" y="991" on="1"/>
      </contour>
      <contour>
        <pt x="282" y="0" on="1"/>
        <pt x="282" y="250" on="1"/>
        <pt x="21" y="740" on="1"/>
        <pt x="210" y="740" on="1"/>
        <pt x="368" y="427" on="1"/>
        <pt x="525" y="740" on="1"/>
        <pt x="715" y="740" on="1"/>
        <pt x="455" y="250" on="1"/>
        <pt x="455" y="0" on="1"/>
      </contour>
    </TTGlyph>
    <TTGlyph name="Ycircumflex" xMin="21" yMin="0" xMax="715" yMax="986">
      <contour>
        <pt x="170" y="802" on="1"/>
        <pt x="302" y="986" on="1"/>
        <pt x="436" y="986" on="1"/>
        <pt x="568" y="802" on="1"/>
        <pt x="438" y="802" on="1"/>
        <pt x="370" y="905" on="1"/>
        <pt x="300" y="802" on="1"/>
      </contour>
      <contour>
        <pt x="282" y="0" on="1"/>
        <pt x="282" y="250" on="1"/>
        <pt x="21" y="740" on="1"/>
        <pt x="210" y="740" on="1"/>
        <pt x="368" y="427" on="1"/>
        <pt x="525" y="740" on="1"/>
        <pt x="715" y="740" on="1"/>
        <pt x="455" y="250" on="1"/>
        <pt x="455" y="0" on="1"/>
      </contour>
    </TTGlyph>
    <TTGlyph name="Ydieresis" xMin="21" yMin="0" xMax="715" yMax="975">
      <contour>
        <pt x="488" y="794" on="1"/>
        <pt x="446" y="794" on="0"/>
        <pt x="394" y="847" on="0"/>
        <pt x="394" y="884" on="1"/>
        <pt x="394" y="922" on="0"/>
        <pt x="446" y="975" on="0"/>
        <pt x="488" y="975" on="1"/>
        <pt x="528" y="975" on="0"/>
        <pt x="582" y="922" on="0"/>
        <pt x="582" y="884" on="1"/>
        <pt x="582" y="847" on="0"/>
        <pt x="528" y="794" on="0"/>
      </contour>
      <contour>
        <pt x="249" y="794" on="1"/>
        <pt x="208" y="794" on="0"/>
        <pt x="155" y="847" on="0"/>
        <pt x="155" y="884" on="1"/>
        <pt x="155" y="922" on="0"/>
        <pt x="208" y="975" on="0"/>
        <pt x="249" y="975" on="1"/>
        <pt x="290" y="975" on="0"/>
        <pt x="343" y="922" on="0"/>
        <pt x="343" y="884" on="1"/>
        <pt x="343" y="847" on="0"/>
        <pt x="290" y="794" on="0"/>
      </contour>
      <contour>
        <pt x="282" y="0" on="1"/>
        <pt x="282" y="250" on="1"/>
        <pt x="21" y="740" on="1"/>
        <pt x="210" y="740" on="1"/>
        <pt x="368" y="427" on="1"/>
        <pt x="525" y="740" on="1"/>
        <pt x="715" y="740" on="1"/>
        <pt x="455" y="250" on="1"/>
        <pt x="455" y="0" on="1"/>
      </contour>
    </TTGlyph>
    <TTGlyph name="Ygrave" xMin="21" yMin="0" xMax="715" yMax="991">
      <contour>
        <pt x="310" y="811" on="1"/>
        <pt x="198" y="991" on="1"/>
        <pt x="353" y="991" on="1"/>
        <pt x="432" y="812" on="1"/>
      </contour>
      <contour>
        <pt x="282" y="0" on="1"/>
        <pt x="282" y="250" on="1"/>
        <pt x="21" y="740" on="1"/>
        <pt x="210" y="740" on="1"/>
        <pt x="368" y="427" on="1"/>
        <pt x="525" y="740" on="1"/>
        <pt x="715" y="740" on="1"/>
        <pt x="455" y="250" on="1"/>
        <pt x="455" y="0" on="1"/>
      </contour>
    </TTGlyph>
    <TTGlyph name="Z" xMin="44" yMin="0" xMax="624" yMax="740">
      <contour>
        <pt x="44" y="0" on="1"/>
        <pt x="44" y="121" on="1"/>
        <pt x="397" y="589" on="1"/>
        <pt x="44" y="589" on="1"/>
        <pt x="44" y="740" on="1"/>
        <pt x="624" y="740" on="1"/>
        <pt x="624" y="619" on="1"/>
        <pt x="269" y="152" on="1"/>
        <pt x="624" y="152" on="1"/>
        <pt x="624" y="0" on="1"/>
      </contour>
    </TTGlyph>
    <TTGlyph name="Zacute" xMin="44" yMin="0" xMax="624" yMax="991">
      <contour>
        <pt x="382" y="811" on="1"/>
        <pt x="259" y="812" on="1"/>
        <pt x="338" y="991" on="1"/>
        <pt x="494" y="991" on="1"/>
      </contour>
      <contour>
        <pt x="44" y="0" on="1"/>
        <pt x="44" y="121" on="1"/>
        <pt x="397" y="589" on="1"/>
        <pt x="44" y="589" on="1"/>
        <pt x="44" y="740" on="1"/>
        <pt x="624" y="740" on="1"/>
        <pt x="624" y="619" on="1"/>
        <pt x="269" y="152" on="1"/>
        <pt x="624" y="152" on="1"/>
        <pt x="624" y="0" on="1"/>
      </contour>
    </TTGlyph>
    <TTGlyph name="Zcaron" xMin="44" yMin="0" xMax="624" yMax="986">
      <contour>
        <pt x="252" y="801" on="1"/>
        <pt x="120" y="986" on="1"/>
        <pt x="250" y="986" on="1"/>
        <pt x="320" y="883" on="1"/>
        <pt x="388" y="986" on="1"/>
        <pt x="518" y="986" on="1"/>
        <pt x="386" y="801" on="1"/>
      </contour>
      <contour>
        <pt x="44" y="0" on="1"/>
        <pt x="44" y="121" on="1"/>
        <pt x="397" y="589" on="1"/>
        <pt x="44" y="589" on="1"/>
        <pt x="44" y="740" on="1"/>
        <pt x="624" y="740" on="1"/>
        <pt x="624" y="619" on="1"/>
        <pt x="269" y="152" on="1"/>
        <pt x="624" y="152" on="1"/>
        <pt x="624" y="0" on="1"/>
      </contour>
    </TTGlyph>
    <TTGlyph name="Zdotaccent" xMin="44" yMin="0" xMax="624" yMax="993">
      <contour>
        <pt x="320" y="802" on="1"/>
        <pt x="276" y="802" on="0"/>
        <pt x="220" y="859" on="0"/>
        <pt x="220" y="898" on="1"/>
        <pt x="220" y="937" on="0"/>
        <pt x="276" y="993" on="0"/>
        <pt x="320" y="993" on="1"/>
        <pt x="363" y="993" on="0"/>
        <pt x="419" y="937" on="0"/>
        <pt x="419" y="898" on="1"/>
        <pt x="419" y="858" on="0"/>
        <pt x="363" y="802" on="0"/>
      </contour>
      <contour>
        <pt x="44" y="0" on="1"/>
        <pt x="44" y="121" on="1"/>
        <pt x="397" y="589" on="1"/>
        <pt x="44" y="589" on="1"/>
        <pt x="44" y="740" on="1"/>
        <pt x="624" y="740" on="1"/>
        <pt x="624" y="619" on="1"/>
        <pt x="269" y="152" on="1"/>
        <pt x="624" y="152" on="1"/>
        <pt x="624" y="0" on="1"/>
      </contour>
    </TTGlyph>
    <TTGlyph name="a" xMin="48" yMin="-10" xMax="609" yMax="540">
      <contour>
        <pt x="278" y="540" on="1"/>
        <pt x="330" y="540" on="0"/>
        <pt x="395" y="506" on="0"/>
        <pt x="428" y="471" on="0"/>
        <pt x="430" y="467" on="1"/>
        <pt x="438" y="467" on="1"/>
        <pt x="438" y="530" on="1"/>
        <pt x="609" y="530" on="1"/>
        <pt x="609" y="0" on="1"/>
        <pt x="438" y="0" on="1"/>
        <pt x="438" y="63" on="1"/>
        <pt x="430" y="63" on="1"/>
        <pt x="428" y="59" on="0"/>
        <pt x="395" y="23" on="0"/>
        <pt x="330" y="-10" on="0"/>
        <pt x="278" y="-10" on="1"/>
        <pt x="220" y="-10" on="0"/>
        <pt x="134" y="37" on="0"/>
        <pt x="76" y="116" on="0"/>
        <pt x="48" y="214" on="0"/>
        <pt x="48" y="265" on="1"/>
        <pt x="48" y="316" on="0"/>
        <pt x="76" y="414" on="0"/>
        <pt x="134" y="493" on="0"/>
        <pt x="220" y="540" on="0"/>
      </contour>
      <contour>
        <pt x="332" y="403" on="1"/>
        <pt x="295" y="403" on="0"/>
        <pt x="245" y="362" on="0"/>
        <pt x="221" y="299" on="0"/>
        <pt x="221" y="265" on="1"/>
        <pt x="221" y="231" on="0"/>
        <pt x="245" y="168" on="0"/>
        <pt x="295" y="127" on="0"/>
        <pt x="332" y="127" on="1"/>
        <pt x="369" y="127" on="0"/>
        <pt x="418" y="168" on="0"/>
        <pt x="443" y="231" on="0"/>
        <pt x="443" y="265" on="1"/>
        <pt x="443" y="299" on="0"/>
        <pt x="418" y="362" on="0"/>
        <pt x="369" y="403" on="0"/>
      </contour>
    </TTGlyph>
    <TTGlyph name="a.ss01" xMin="39" yMin="-10" xMax="538" yMax="540">
      <contour>
        <pt x="363" y="62" on="1"/>
        <pt x="355" y="49" on="0"/>
        <pt x="320" y="15" on="0"/>
        <pt x="261" y="-10" on="0"/>
        <pt x="214" y="-10" on="1"/>
        <pt x="135" y="-10" on="0"/>
        <pt x="39" y="71" on="0"/>
        <pt x="39" y="142" on="1"/>
        <pt x="39" y="220" on="0"/>
        <pt x="156" y="300" on="0"/>
        <pt x="252" y="311" on="1"/>
        <pt x="371" y="325" on="1"/>
        <pt x="371" y="344" on="1"/>
        <pt x="371" y="375" on="0"/>
        <pt x="333" y="415" on="0"/>
        <pt x="295" y="415" on="1"/>
        <pt x="267" y="415" on="0"/>
        <pt x="235" y="397" on="0"/>
        <pt x="220" y="373" on="0"/>
        <pt x="216" y="355" on="0"/>
        <pt x="216" y="355" on="1"/>
        <pt x="57" y="355" on="1"/>
        <pt x="57" y="355" on="0"/>
        <pt x="63" y="393" on="0"/>
        <pt x="87" y="448" on="0"/>
        <pt x="138" y="503" on="0"/>
        <pt x="229" y="540" on="0"/>
        <pt x="299" y="540" on="1"/>
        <pt x="387" y="540" on="0"/>
        <pt x="492" y="481" on="0"/>
        <pt x="538" y="392" on="0"/>
        <pt x="538" y="347" on="1"/>
        <pt x="538" y="0" on="1"/>
        <pt x="371" y="0" on="1"/>
        <pt x="371" y="62" on="1"/>
      </contour>
      <contour>
        <pt x="203" y="157" on="1"/>
        <pt x="203" y="131" on="0"/>
        <pt x="243" y="103" on="0"/>
        <pt x="274" y="103" on="1"/>
        <pt x="315" y="103" on="0"/>
        <pt x="371" y="159" on="0"/>
        <pt x="371" y="208" on="1"/>
        <pt x="371" y="224" on="1"/>
        <pt x="273" y="212" on="1"/>
        <pt x="241" y="208" on="0"/>
        <pt x="203" y="182" on="0"/>
      </contour>
    </TTGlyph>
    <TTGlyph name="aacute" xMin="49" yMin="-10" xMax="610" yMax="781">
      <contour>
        <pt x="396" y="601" on="1"/>
        <pt x="273" y="602" on="1"/>
        <pt x="352" y="781" on="1"/>
        <pt x="508" y="781" on="1"/>
      </contour>
      <contour>
        <pt x="279" y="540" on="1"/>
        <pt x="331" y="540" on="0"/>
        <pt x="396" y="506" on="0"/>
        <pt x="429" y="471" on="0"/>
        <pt x="431" y="467" on="1"/>
        <pt x="439" y="467" on="1"/>
        <pt x="439" y="530" on="1"/>
        <pt x="610" y="530" on="1"/>
        <pt x="610" y="0" on="1"/>
        <pt x="439" y="0" on="1"/>
        <pt x="439" y="63" on="1"/>
        <pt x="431" y="63" on="1"/>
        <pt x="429" y="59" on="0"/>
        <pt x="396" y="23" on="0"/>
        <pt x="331" y="-10" on="0"/>
        <pt x="279" y="-10" on="1"/>
        <pt x="221" y="-10" on="0"/>
        <pt x="135" y="37" on="0"/>
        <pt x="77" y="116" on="0"/>
        <pt x="49" y="214" on="0"/>
        <pt x="49" y="265" on="1"/>
        <pt x="49" y="316" on="0"/>
        <pt x="77" y="414" on="0"/>
        <pt x="135" y="493" on="0"/>
        <pt x="221" y="540" on="0"/>
      </contour>
      <contour>
        <pt x="333" y="403" on="1"/>
        <pt x="296" y="403" on="0"/>
        <pt x="246" y="362" on="0"/>
        <pt x="222" y="299" on="0"/>
        <pt x="222" y="265" on="1"/>
        <pt x="222" y="231" on="0"/>
        <pt x="246" y="168" on="0"/>
        <pt x="296" y="127" on="0"/>
        <pt x="333" y="127" on="1"/>
        <pt x="370" y="127" on="0"/>
        <pt x="419" y="168" on="0"/>
        <pt x="444" y="231" on="0"/>
        <pt x="444" y="265" on="1"/>
        <pt x="444" y="299" on="0"/>
        <pt x="419" y="362" on="0"/>
        <pt x="370" y="403" on="0"/>
      </contour>
    </TTGlyph>
    <TTGlyph name="aacute.ss01" xMin="41" yMin="-10" xMax="541" yMax="781">
      <contour>
        <pt x="364" y="601" on="1"/>
        <pt x="242" y="602" on="1"/>
        <pt x="320" y="781" on="1"/>
        <pt x="476" y="781" on="1"/>
      </contour>
      <contour>
        <pt x="366" y="62" on="1"/>
        <pt x="357" y="49" on="0"/>
        <pt x="322" y="15" on="0"/>
        <pt x="263" y="-10" on="0"/>
        <pt x="217" y="-10" on="1"/>
        <pt x="137" y="-10" on="0"/>
        <pt x="41" y="71" on="0"/>
        <pt x="41" y="142" on="1"/>
        <pt x="41" y="220" on="0"/>
        <pt x="159" y="300" on="0"/>
        <pt x="254" y="311" on="1"/>
        <pt x="373" y="325" on="1"/>
        <pt x="373" y="344" on="1"/>
        <pt x="373" y="375" on="0"/>
        <pt x="335" y="415" on="0"/>
        <pt x="297" y="415" on="1"/>
        <pt x="269" y="415" on="0"/>
        <pt x="237" y="397" on="0"/>
        <pt x="223" y="373" on="0"/>
        <pt x="218" y="355" on="0"/>
        <pt x="218" y="355" on="1"/>
        <pt x="59" y="355" on="1"/>
        <pt x="59" y="355" on="0"/>
        <pt x="65" y="393" on="0"/>
        <pt x="89" y="448" on="0"/>
        <pt x="141" y="503" on="0"/>
        <pt x="231" y="540" on="0"/>
        <pt x="301" y="540" on="1"/>
        <pt x="389" y="540" on="0"/>
        <pt x="494" y="481" on="0"/>
        <pt x="541" y="392" on="0"/>
        <pt x="541" y="347" on="1"/>
        <pt x="541" y="0" on="1"/>
        <pt x="373" y="0" on="1"/>
        <pt x="373" y="62" on="1"/>
      </contour>
      <contour>
        <pt x="206" y="157" on="1"/>
        <pt x="206" y="131" on="0"/>
        <pt x="246" y="103" on="0"/>
        <pt x="276" y="103" on="1"/>
        <pt x="318" y="103" on="0"/>
        <pt x="373" y="159" on="0"/>
        <pt x="373" y="208" on="1"/>
        <pt x="373" y="224" on="1"/>
        <pt x="275" y="212" on="1"/>
        <pt x="243" y="208" on="0"/>
        <pt x="206" y="182" on="0"/>
      </contour>
    </TTGlyph>
    <TTGlyph name="abreve" xMin="49" yMin="-10" xMax="610" yMax="774">
      <contour>
        <pt x="333" y="595" on="1"/>
        <pt x="276" y="595" on="0"/>
        <pt x="204" y="631" on="0"/>
        <pt x="165" y="684" on="0"/>
        <pt x="149" y="738" on="0"/>
        <pt x="146" y="774" on="0"/>
        <pt x="146" y="774" on="1"/>
        <pt x="256" y="774" on="1"/>
        <pt x="256" y="774" on="0"/>
        <pt x="259" y="749" on="0"/>
        <pt x="273" y="716" on="0"/>
        <pt x="305" y="691" on="0"/>
        <pt x="333" y="691" on="1"/>
        <pt x="362" y="691" on="0"/>
        <pt x="394" y="716" on="0"/>
        <pt x="408" y="749" on="0"/>
        <pt x="411" y="774" on="0"/>
        <pt x="411" y="774" on="1"/>
        <pt x="521" y="774" on="1"/>
        <pt x="521" y="774" on="0"/>
        <pt x="518" y="738" on="0"/>
        <pt x="502" y="684" on="0"/>
        <pt x="463" y="631" on="0"/>
        <pt x="391" y="595" on="0"/>
      </contour>
      <contour>
        <pt x="279" y="540" on="1"/>
        <pt x="331" y="540" on="0"/>
        <pt x="396" y="506" on="0"/>
        <pt x="429" y="471" on="0"/>
        <pt x="431" y="467" on="1"/>
        <pt x="439" y="467" on="1"/>
        <pt x="439" y="530" on="1"/>
        <pt x="610" y="530" on="1"/>
        <pt x="610" y="0" on="1"/>
        <pt x="439" y="0" on="1"/>
        <pt x="439" y="63" on="1"/>
        <pt x="431" y="63" on="1"/>
        <pt x="429" y="59" on="0"/>
        <pt x="396" y="23" on="0"/>
        <pt x="331" y="-10" on="0"/>
        <pt x="279" y="-10" on="1"/>
        <pt x="221" y="-10" on="0"/>
        <pt x="135" y="37" on="0"/>
        <pt x="77" y="116" on="0"/>
        <pt x="49" y="214" on="0"/>
        <pt x="49" y="265" on="1"/>
        <pt x="49" y="316" on="0"/>
        <pt x="77" y="414" on="0"/>
        <pt x="135" y="493" on="0"/>
        <pt x="221" y="540" on="0"/>
      </contour>
      <contour>
        <pt x="333" y="403" on="1"/>
        <pt x="296" y="403" on="0"/>
        <pt x="246" y="362" on="0"/>
        <pt x="222" y="299" on="0"/>
        <pt x="222" y="265" on="1"/>
        <pt x="222" y="231" on="0"/>
        <pt x="246" y="168" on="0"/>
        <pt x="296" y="127" on="0"/>
        <pt x="333" y="127" on="1"/>
        <pt x="370" y="127" on="0"/>
        <pt x="419" y="168" on="0"/>
        <pt x="444" y="231" on="0"/>
        <pt x="444" y="265" on="1"/>
        <pt x="444" y="299" on="0"/>
        <pt x="419" y="362" on="0"/>
        <pt x="370" y="403" on="0"/>
      </contour>
    </TTGlyph>
    <TTGlyph name="abreve.ss01" xMin="41" yMin="-10" xMax="541" yMax="774">
      <contour>
        <pt x="302" y="595" on="1"/>
        <pt x="244" y="595" on="0"/>
        <pt x="172" y="631" on="0"/>
        <pt x="133" y="684" on="0"/>
        <pt x="117" y="738" on="0"/>
        <pt x="115" y="774" on="0"/>
        <pt x="115" y="774" on="1"/>
        <pt x="224" y="774" on="1"/>
        <pt x="224" y="774" on="0"/>
        <pt x="227" y="749" on="0"/>
        <pt x="241" y="716" on="0"/>
        <pt x="273" y="691" on="0"/>
        <pt x="302" y="691" on="1"/>
        <pt x="331" y="691" on="0"/>
        <pt x="363" y="716" on="0"/>
        <pt x="376" y="749" on="0"/>
        <pt x="380" y="774" on="0"/>
        <pt x="380" y="774" on="1"/>
        <pt x="489" y="774" on="1"/>
        <pt x="489" y="774" on="0"/>
        <pt x="486" y="738" on="0"/>
        <pt x="470" y="684" on="0"/>
        <pt x="431" y="631" on="0"/>
        <pt x="359" y="595" on="0"/>
      </contour>
      <contour>
        <pt x="366" y="62" on="1"/>
        <pt x="357" y="49" on="0"/>
        <pt x="322" y="15" on="0"/>
        <pt x="263" y="-10" on="0"/>
        <pt x="217" y="-10" on="1"/>
        <pt x="137" y="-10" on="0"/>
        <pt x="41" y="71" on="0"/>
        <pt x="41" y="142" on="1"/>
        <pt x="41" y="220" on="0"/>
        <pt x="159" y="300" on="0"/>
        <pt x="254" y="311" on="1"/>
        <pt x="373" y="325" on="1"/>
        <pt x="373" y="344" on="1"/>
        <pt x="373" y="375" on="0"/>
        <pt x="335" y="415" on="0"/>
        <pt x="297" y="415" on="1"/>
        <pt x="269" y="415" on="0"/>
        <pt x="237" y="397" on="0"/>
        <pt x="223" y="373" on="0"/>
        <pt x="218" y="355" on="0"/>
        <pt x="218" y="355" on="1"/>
        <pt x="59" y="355" on="1"/>
        <pt x="59" y="355" on="0"/>
        <pt x="65" y="393" on="0"/>
        <pt x="89" y="448" on="0"/>
        <pt x="141" y="503" on="0"/>
        <pt x="231" y="540" on="0"/>
        <pt x="301" y="540" on="1"/>
        <pt x="389" y="540" on="0"/>
        <pt x="494" y="481" on="0"/>
        <pt x="541" y="392" on="0"/>
        <pt x="541" y="347" on="1"/>
        <pt x="541" y="0" on="1"/>
        <pt x="373" y="0" on="1"/>
        <pt x="373" y="62" on="1"/>
      </contour>
      <contour>
        <pt x="206" y="157" on="1"/>
        <pt x="206" y="131" on="0"/>
        <pt x="246" y="103" on="0"/>
        <pt x="276" y="103" on="1"/>
        <pt x="318" y="103" on="0"/>
        <pt x="373" y="159" on="0"/>
        <pt x="373" y="208" on="1"/>
        <pt x="373" y="224" on="1"/>
        <pt x="275" y="212" on="1"/>
        <pt x="243" y="208" on="0"/>
        <pt x="206" y="182" on="0"/>
      </contour>
    </TTGlyph>
    <TTGlyph name="acircumflex" xMin="49" yMin="-10" xMax="610" yMax="777">
      <contour>
        <pt x="135" y="592" on="1"/>
        <pt x="267" y="777" on="1"/>
        <pt x="401" y="777" on="1"/>
        <pt x="533" y="592" on="1"/>
        <pt x="403" y="592" on="1"/>
        <pt x="334" y="695" on="1"/>
        <pt x="265" y="592" on="1"/>
      </contour>
      <contour>
        <pt x="279" y="540" on="1"/>
        <pt x="331" y="540" on="0"/>
        <pt x="396" y="506" on="0"/>
        <pt x="429" y="471" on="0"/>
        <pt x="431" y="467" on="1"/>
        <pt x="439" y="467" on="1"/>
        <pt x="439" y="530" on="1"/>
        <pt x="610" y="530" on="1"/>
        <pt x="610" y="0" on="1"/>
        <pt x="439" y="0" on="1"/>
        <pt x="439" y="63" on="1"/>
        <pt x="431" y="63" on="1"/>
        <pt x="429" y="59" on="0"/>
        <pt x="396" y="23" on="0"/>
        <pt x="331" y="-10" on="0"/>
        <pt x="279" y="-10" on="1"/>
        <pt x="221" y="-10" on="0"/>
        <pt x="135" y="37" on="0"/>
        <pt x="77" y="116" on="0"/>
        <pt x="49" y="214" on="0"/>
        <pt x="49" y="265" on="1"/>
        <pt x="49" y="316" on="0"/>
        <pt x="77" y="414" on="0"/>
        <pt x="135" y="493" on="0"/>
        <pt x="221" y="540" on="0"/>
      </contour>
      <contour>
        <pt x="333" y="403" on="1"/>
        <pt x="296" y="403" on="0"/>
        <pt x="246" y="362" on="0"/>
        <pt x="222" y="299" on="0"/>
        <pt x="222" y="265" on="1"/>
        <pt x="222" y="231" on="0"/>
        <pt x="246" y="168" on="0"/>
        <pt x="296" y="127" on="0"/>
        <pt x="333" y="127" on="1"/>
        <pt x="370" y="127" on="0"/>
        <pt x="419" y="168" on="0"/>
        <pt x="444" y="231" on="0"/>
        <pt x="444" y="265" on="1"/>
        <pt x="444" y="299" on="0"/>
        <pt x="419" y="362" on="0"/>
        <pt x="370" y="403" on="0"/>
      </contour>
    </TTGlyph>
    <TTGlyph name="acircumflex.ss01" xMin="41" yMin="-10" xMax="541" yMax="777">
      <contour>
        <pt x="103" y="592" on="1"/>
        <pt x="235" y="777" on="1"/>
        <pt x="369" y="777" on="1"/>
        <pt x="501" y="592" on="1"/>
        <pt x="371" y="592" on="1"/>
        <pt x="303" y="695" on="1"/>
        <pt x="233" y="592" on="1"/>
      </contour>
      <contour>
        <pt x="366" y="62" on="1"/>
        <pt x="357" y="49" on="0"/>
        <pt x="322" y="15" on="0"/>
        <pt x="263" y="-10" on="0"/>
        <pt x="217" y="-10" on="1"/>
        <pt x="137" y="-10" on="0"/>
        <pt x="41" y="71" on="0"/>
        <pt x="41" y="142" on="1"/>
        <pt x="41" y="220" on="0"/>
        <pt x="159" y="300" on="0"/>
        <pt x="254" y="311" on="1"/>
        <pt x="373" y="325" on="1"/>
        <pt x="373" y="344" on="1"/>
        <pt x="373" y="375" on="0"/>
        <pt x="335" y="415" on="0"/>
        <pt x="297" y="415" on="1"/>
        <pt x="269" y="415" on="0"/>
        <pt x="237" y="397" on="0"/>
        <pt x="223" y="373" on="0"/>
        <pt x="218" y="355" on="0"/>
        <pt x="218" y="355" on="1"/>
        <pt x="59" y="355" on="1"/>
        <pt x="59" y="355" on="0"/>
        <pt x="65" y="393" on="0"/>
        <pt x="89" y="448" on="0"/>
        <pt x="141" y="503" on="0"/>
        <pt x="231" y="540" on="0"/>
        <pt x="301" y="540" on="1"/>
        <pt x="389" y="540" on="0"/>
        <pt x="494" y="481" on="0"/>
        <pt x="541" y="392" on="0"/>
        <pt x="541" y="347" on="1"/>
        <pt x="541" y="0" on="1"/>
        <pt x="373" y="0" on="1"/>
        <pt x="373" y="62" on="1"/>
      </contour>
      <contour>
        <pt x="206" y="157" on="1"/>
        <pt x="206" y="131" on="0"/>
        <pt x="246" y="103" on="0"/>
        <pt x="276" y="103" on="1"/>
        <pt x="318" y="103" on="0"/>
        <pt x="373" y="159" on="0"/>
        <pt x="373" y="208" on="1"/>
        <pt x="373" y="224" on="1"/>
        <pt x="275" y="212" on="1"/>
        <pt x="243" y="208" on="0"/>
        <pt x="206" y="182" on="0"/>
      </contour>
    </TTGlyph>
    <TTGlyph name="acute" xMin="40" yMin="601" xMax="274" yMax="781">
      <contour>
        <pt x="162" y="601" on="1"/>
        <pt x="40" y="602" on="1"/>
        <pt x="119" y="781" on="1"/>
        <pt x="274" y="781" on="1"/>
      </contour>
    </TTGlyph>
    <TTGlyph name="acutecomb" xMin="14" yMin="601" xMax="248" yMax="781">
      <contour>
        <pt x="136" y="601" on="1"/>
        <pt x="14" y="602" on="1"/>
        <pt x="93" y="781" on="1"/>
        <pt x="248" y="781" on="1"/>
      </contour>
    </TTGlyph>
    <TTGlyph name="adieresis" xMin="49" yMin="-10" xMax="610" yMax="765">
      <contour>
        <pt x="452" y="585" on="1"/>
        <pt x="411" y="585" on="0"/>
        <pt x="358" y="638" on="0"/>
        <pt x="358" y="674" on="1"/>
        <pt x="358" y="713" on="0"/>
        <pt x="411" y="765" on="0"/>
        <pt x="452" y="765" on="1"/>
        <pt x="493" y="765" on="0"/>
        <pt x="546" y="713" on="0"/>
        <pt x="546" y="674" on="1"/>
        <pt x="546" y="638" on="0"/>
        <pt x="493" y="585" on="0"/>
      </contour>
      <contour>
        <pt x="214" y="585" on="1"/>
        <pt x="172" y="585" on="0"/>
        <pt x="120" y="638" on="0"/>
        <pt x="120" y="674" on="1"/>
        <pt x="120" y="713" on="0"/>
        <pt x="172" y="765" on="0"/>
        <pt x="214" y="765" on="1"/>
        <pt x="254" y="765" on="0"/>
        <pt x="308" y="713" on="0"/>
        <pt x="308" y="674" on="1"/>
        <pt x="308" y="638" on="0"/>
        <pt x="254" y="585" on="0"/>
      </contour>
      <contour>
        <pt x="279" y="540" on="1"/>
        <pt x="331" y="540" on="0"/>
        <pt x="396" y="506" on="0"/>
        <pt x="429" y="471" on="0"/>
        <pt x="431" y="467" on="1"/>
        <pt x="439" y="467" on="1"/>
        <pt x="439" y="530" on="1"/>
        <pt x="610" y="530" on="1"/>
        <pt x="610" y="0" on="1"/>
        <pt x="439" y="0" on="1"/>
        <pt x="439" y="63" on="1"/>
        <pt x="431" y="63" on="1"/>
        <pt x="429" y="59" on="0"/>
        <pt x="396" y="23" on="0"/>
        <pt x="331" y="-10" on="0"/>
        <pt x="279" y="-10" on="1"/>
        <pt x="221" y="-10" on="0"/>
        <pt x="135" y="37" on="0"/>
        <pt x="77" y="116" on="0"/>
        <pt x="49" y="214" on="0"/>
        <pt x="49" y="265" on="1"/>
        <pt x="49" y="316" on="0"/>
        <pt x="77" y="414" on="0"/>
        <pt x="135" y="493" on="0"/>
        <pt x="221" y="540" on="0"/>
      </contour>
      <contour>
        <pt x="333" y="403" on="1"/>
        <pt x="296" y="403" on="0"/>
        <pt x="246" y="362" on="0"/>
        <pt x="222" y="299" on="0"/>
        <pt x="222" y="265" on="1"/>
        <pt x="222" y="231" on="0"/>
        <pt x="246" y="168" on="0"/>
        <pt x="296" y="127" on="0"/>
        <pt x="333" y="127" on="1"/>
        <pt x="370" y="127" on="0"/>
        <pt x="419" y="168" on="0"/>
        <pt x="444" y="231" on="0"/>
        <pt x="444" y="265" on="1"/>
        <pt x="444" y="299" on="0"/>
        <pt x="419" y="362" on="0"/>
        <pt x="370" y="403" on="0"/>
      </contour>
    </TTGlyph>
    <TTGlyph name="adieresis.ss01" xMin="41" yMin="-10" xMax="541" yMax="765">
      <contour>
        <pt x="421" y="584" on="1"/>
        <pt x="379" y="584" on="0"/>
        <pt x="327" y="638" on="0"/>
        <pt x="327" y="675" on="1"/>
        <pt x="327" y="712" on="0"/>
        <pt x="379" y="765" on="0"/>
        <pt x="421" y="765" on="1"/>
        <pt x="461" y="765" on="0"/>
        <pt x="515" y="712" on="0"/>
        <pt x="515" y="675" on="1"/>
        <pt x="515" y="638" on="0"/>
        <pt x="461" y="584" on="0"/>
      </contour>
      <contour>
        <pt x="182" y="584" on="1"/>
        <pt x="141" y="584" on="0"/>
        <pt x="88" y="638" on="0"/>
        <pt x="88" y="675" on="1"/>
        <pt x="88" y="712" on="0"/>
        <pt x="141" y="765" on="0"/>
        <pt x="182" y="765" on="1"/>
        <pt x="223" y="765" on="0"/>
        <pt x="276" y="712" on="0"/>
        <pt x="276" y="675" on="1"/>
        <pt x="276" y="638" on="0"/>
        <pt x="223" y="584" on="0"/>
      </contour>
      <contour>
        <pt x="366" y="62" on="1"/>
        <pt x="357" y="49" on="0"/>
        <pt x="322" y="15" on="0"/>
        <pt x="263" y="-10" on="0"/>
        <pt x="217" y="-10" on="1"/>
        <pt x="137" y="-10" on="0"/>
        <pt x="41" y="71" on="0"/>
        <pt x="41" y="142" on="1"/>
        <pt x="41" y="220" on="0"/>
        <pt x="159" y="300" on="0"/>
        <pt x="254" y="311" on="1"/>
        <pt x="373" y="325" on="1"/>
        <pt x="373" y="344" on="1"/>
        <pt x="373" y="375" on="0"/>
        <pt x="335" y="415" on="0"/>
        <pt x="297" y="415" on="1"/>
        <pt x="269" y="415" on="0"/>
        <pt x="237" y="397" on="0"/>
        <pt x="223" y="373" on="0"/>
        <pt x="218" y="355" on="0"/>
        <pt x="218" y="355" on="1"/>
        <pt x="59" y="355" on="1"/>
        <pt x="59" y="355" on="0"/>
        <pt x="65" y="393" on="0"/>
        <pt x="89" y="448" on="0"/>
        <pt x="141" y="503" on="0"/>
        <pt x="231" y="540" on="0"/>
        <pt x="301" y="540" on="1"/>
        <pt x="389" y="540" on="0"/>
        <pt x="494" y="481" on="0"/>
        <pt x="541" y="392" on="0"/>
        <pt x="541" y="347" on="1"/>
        <pt x="541" y="0" on="1"/>
        <pt x="373" y="0" on="1"/>
        <pt x="373" y="62" on="1"/>
      </contour>
      <contour>
        <pt x="206" y="157" on="1"/>
        <pt x="206" y="131" on="0"/>
        <pt x="246" y="103" on="0"/>
        <pt x="276" y="103" on="1"/>
        <pt x="318" y="103" on="0"/>
        <pt x="373" y="159" on="0"/>
        <pt x="373" y="208" on="1"/>
        <pt x="373" y="224" on="1"/>
        <pt x="275" y="212" on="1"/>
        <pt x="243" y="208" on="0"/>
        <pt x="206" y="182" on="0"/>
      </contour>
    </TTGlyph>
    <TTGlyph name="ae" xMin="40" yMin="-10" xMax="905" yMax="540">
      <contour>
        <pt x="234" y="-10" on="1"/>
        <pt x="148" y="-10" on="0"/>
        <pt x="40" y="75" on="0"/>
        <pt x="40" y="152" on="1"/>
        <pt x="40" y="226" on="0"/>
        <pt x="149" y="313" on="0"/>
        <pt x="260" y="315" on="1"/>
        <pt x="377" y="318" on="1"/>
        <pt x="377" y="337" on="1"/>
        <pt x="377" y="370" on="0"/>
        <pt x="338" y="413" on="0"/>
        <pt x="297" y="413" on="1"/>
        <pt x="269" y="413" on="0"/>
        <pt x="237" y="395" on="0"/>
        <pt x="220" y="373" on="0"/>
        <pt x="215" y="355" on="0"/>
        <pt x="215" y="355" on="1"/>
        <pt x="54" y="355" on="1"/>
        <pt x="54" y="355" on="0"/>
        <pt x="62" y="393" on="0"/>
        <pt x="88" y="448" on="0"/>
        <pt x="139" y="503" on="0"/>
        <pt x="225" y="540" on="0"/>
        <pt x="290" y="540" on="1"/>
        <pt x="355" y="540" on="0"/>
        <pt x="432" y="506" on="0"/>
        <pt x="467" y="469" on="0"/>
        <pt x="469" y="463" on="1"/>
        <pt x="473" y="463" on="1"/>
        <pt x="475" y="468" on="0"/>
        <pt x="514" y="506" on="0"/>
        <pt x="591" y="540" on="0"/>
        <pt x="652" y="540" on="1"/>
        <pt x="724" y="540" on="0"/>
        <pt x="839" y="478" on="0"/>
        <pt x="905" y="354" on="0"/>
        <pt x="905" y="260" on="1"/>
        <pt x="905" y="220" on="1"/>
        <pt x="545" y="220" on="1"/>
        <pt x="548" y="180" on="0"/>
        <pt x="605" y="118" on="0"/>
        <pt x="655" y="118" on="1"/>
        <pt x="693" y="118" on="0"/>
        <pt x="733" y="146" on="0"/>
        <pt x="748" y="174" on="0"/>
        <pt x="748" y="174" on="1"/>
        <pt x="902" y="174" on="1"/>
        <pt x="902" y="174" on="0"/>
        <pt x="892" y="137" on="0"/>
        <pt x="863" y="82" on="0"/>
        <pt x="809" y="27" on="0"/>
        <pt x="720" y="-10" on="0"/>
        <pt x="655" y="-10" on="1"/>
        <pt x="597" y="-10" on="0"/>
        <pt x="515" y="19" on="0"/>
        <pt x="464" y="59" on="0"/>
        <pt x="439" y="91" on="0"/>
        <pt x="438" y="94" on="1"/>
        <pt x="433" y="94" on="1"/>
        <pt x="433" y="94" on="0"/>
        <pt x="414" y="63" on="0"/>
        <pt x="369" y="21" on="0"/>
        <pt x="292" y="-10" on="0"/>
      </contour>
      <contour>
        <pt x="545" y="319" on="1"/>
        <pt x="745" y="319" on="1"/>
        <pt x="743" y="369" on="0"/>
        <pt x="688" y="416" on="0"/>
        <pt x="645" y="416" on="1"/>
        <pt x="606" y="416" on="0"/>
        <pt x="548" y="367" on="0"/>
      </contour>
      <contour>
        <pt x="279" y="103" on="1"/>
        <pt x="323" y="103" on="0"/>
        <pt x="377" y="157" on="0"/>
        <pt x="377" y="200" on="1"/>
        <pt x="377" y="218" on="1"/>
        <pt x="278" y="214" on="1"/>
        <pt x="239" y="213" on="0"/>
        <pt x="204" y="182" on="0"/>
        <pt x="204" y="159" on="1"/>
        <pt x="204" y="133" on="0"/>
        <pt x="247" y="103" on="0"/>
      </contour>
    </TTGlyph>
    <TTGlyph name="agrave" xMin="49" yMin="-10" xMax="610" yMax="781">
      <contour>
        <pt x="274" y="601" on="1"/>
        <pt x="162" y="781" on="1"/>
        <pt x="318" y="781" on="1"/>
        <pt x="397" y="602" on="1"/>
      </contour>
      <contour>
        <pt x="279" y="540" on="1"/>
        <pt x="331" y="540" on="0"/>
        <pt x="396" y="506" on="0"/>
        <pt x="429" y="471" on="0"/>
        <pt x="431" y="467" on="1"/>
        <pt x="439" y="467" on="1"/>
        <pt x="439" y="530" on="1"/>
        <pt x="610" y="530" on="1"/>
        <pt x="610" y="0" on="1"/>
        <pt x="439" y="0" on="1"/>
        <pt x="439" y="63" on="1"/>
        <pt x="431" y="63" on="1"/>
        <pt x="429" y="59" on="0"/>
        <pt x="396" y="23" on="0"/>
        <pt x="331" y="-10" on="0"/>
        <pt x="279" y="-10" on="1"/>
        <pt x="221" y="-10" on="0"/>
        <pt x="135" y="37" on="0"/>
        <pt x="77" y="116" on="0"/>
        <pt x="49" y="214" on="0"/>
        <pt x="49" y="265" on="1"/>
        <pt x="49" y="316" on="0"/>
        <pt x="77" y="414" on="0"/>
        <pt x="135" y="493" on="0"/>
        <pt x="221" y="540" on="0"/>
      </contour>
      <contour>
        <pt x="333" y="403" on="1"/>
        <pt x="296" y="403" on="0"/>
        <pt x="246" y="362" on="0"/>
        <pt x="222" y="299" on="0"/>
        <pt x="222" y="265" on="1"/>
        <pt x="222" y="231" on="0"/>
        <pt x="246" y="168" on="0"/>
        <pt x="296" y="127" on="0"/>
        <pt x="333" y="127" on="1"/>
        <pt x="370" y="127" on="0"/>
        <pt x="419" y="168" on="0"/>
        <pt x="444" y="231" on="0"/>
        <pt x="444" y="265" on="1"/>
        <pt x="444" y="299" on="0"/>
        <pt x="419" y="362" on="0"/>
        <pt x="370" y="403" on="0"/>
      </contour>
    </TTGlyph>
    <TTGlyph name="agrave.ss01" xMin="41" yMin="-10" xMax="541" yMax="781">
      <contour>
        <pt x="243" y="601" on="1"/>
        <pt x="131" y="781" on="1"/>
        <pt x="286" y="781" on="1"/>
        <pt x="365" y="602" on="1"/>
      </contour>
      <contour>
        <pt x="366" y="62" on="1"/>
        <pt x="357" y="49" on="0"/>
        <pt x="322" y="15" on="0"/>
        <pt x="263" y="-10" on="0"/>
        <pt x="217" y="-10" on="1"/>
        <pt x="137" y="-10" on="0"/>
        <pt x="41" y="71" on="0"/>
        <pt x="41" y="142" on="1"/>
        <pt x="41" y="220" on="0"/>
        <pt x="159" y="300" on="0"/>
        <pt x="254" y="311" on="1"/>
        <pt x="373" y="325" on="1"/>
        <pt x="373" y="344" on="1"/>
        <pt x="373" y="375" on="0"/>
        <pt x="335" y="415" on="0"/>
        <pt x="297" y="415" on="1"/>
        <pt x="269" y="415" on="0"/>
        <pt x="237" y="397" on="0"/>
        <pt x="223" y="373" on="0"/>
        <pt x="218" y="355" on="0"/>
        <pt x="218" y="355" on="1"/>
        <pt x="59" y="355" on="1"/>
        <pt x="59" y="355" on="0"/>
        <pt x="65" y="393" on="0"/>
        <pt x="89" y="448" on="0"/>
        <pt x="141" y="503" on="0"/>
        <pt x="231" y="540" on="0"/>
        <pt x="301" y="540" on="1"/>
        <pt x="389" y="540" on="0"/>
        <pt x="494" y="481" on="0"/>
        <pt x="541" y="392" on="0"/>
        <pt x="541" y="347" on="1"/>
        <pt x="541" y="0" on="1"/>
        <pt x="373" y="0" on="1"/>
        <pt x="373" y="62" on="1"/>
      </contour>
      <contour>
        <pt x="206" y="157" on="1"/>
        <pt x="206" y="131" on="0"/>
        <pt x="246" y="103" on="0"/>
        <pt x="276" y="103" on="1"/>
        <pt x="318" y="103" on="0"/>
        <pt x="373" y="159" on="0"/>
        <pt x="373" y="208" on="1"/>
        <pt x="373" y="224" on="1"/>
        <pt x="275" y="212" on="1"/>
        <pt x="243" y="208" on="0"/>
        <pt x="206" y="182" on="0"/>
      </contour>
    </TTGlyph>
    <TTGlyph name="amacron" xMin="49" yMin="-10" xMax="610" yMax="708">
      <contour>
        <pt x="167" y="612" on="1"/>
        <pt x="167" y="708" on="1"/>
        <pt x="500" y="708" on="1"/>
        <pt x="500" y="612" on="1"/>
      </contour>
      <contour>
        <pt x="279" y="540" on="1"/>
        <pt x="331" y="540" on="0"/>
        <pt x="396" y="506" on="0"/>
        <pt x="429" y="471" on="0"/>
        <pt x="431" y="467" on="1"/>
        <pt x="439" y="467" on="1"/>
        <pt x="439" y="530" on="1"/>
        <pt x="610" y="530" on="1"/>
        <pt x="610" y="0" on="1"/>
        <pt x="439" y="0" on="1"/>
        <pt x="439" y="63" on="1"/>
        <pt x="431" y="63" on="1"/>
        <pt x="429" y="59" on="0"/>
        <pt x="396" y="23" on="0"/>
        <pt x="331" y="-10" on="0"/>
        <pt x="279" y="-10" on="1"/>
        <pt x="221" y="-10" on="0"/>
        <pt x="135" y="37" on="0"/>
        <pt x="77" y="116" on="0"/>
        <pt x="49" y="214" on="0"/>
        <pt x="49" y="265" on="1"/>
        <pt x="49" y="316" on="0"/>
        <pt x="77" y="414" on="0"/>
        <pt x="135" y="493" on="0"/>
        <pt x="221" y="540" on="0"/>
      </contour>
      <contour>
        <pt x="333" y="403" on="1"/>
        <pt x="296" y="403" on="0"/>
        <pt x="246" y="362" on="0"/>
        <pt x="222" y="299" on="0"/>
        <pt x="222" y="265" on="1"/>
        <pt x="222" y="231" on="0"/>
        <pt x="246" y="168" on="0"/>
        <pt x="296" y="127" on="0"/>
        <pt x="333" y="127" on="1"/>
        <pt x="370" y="127" on="0"/>
        <pt x="419" y="168" on="0"/>
        <pt x="444" y="231" on="0"/>
        <pt x="444" y="265" on="1"/>
        <pt x="444" y="299" on="0"/>
        <pt x="419" y="362" on="0"/>
        <pt x="370" y="403" on="0"/>
      </contour>
    </TTGlyph>
    <TTGlyph name="amacron.ss01" xMin="41" yMin="-10" xMax="541" yMax="708">
      <contour>
        <pt x="135" y="612" on="1"/>
        <pt x="135" y="708" on="1"/>
        <pt x="468" y="708" on="1"/>
        <pt x="468" y="612" on="1"/>
      </contour>
      <contour>
        <pt x="366" y="62" on="1"/>
        <pt x="357" y="49" on="0"/>
        <pt x="322" y="15" on="0"/>
        <pt x="263" y="-10" on="0"/>
        <pt x="217" y="-10" on="1"/>
        <pt x="137" y="-10" on="0"/>
        <pt x="41" y="71" on="0"/>
        <pt x="41" y="142" on="1"/>
        <pt x="41" y="220" on="0"/>
        <pt x="159" y="300" on="0"/>
        <pt x="254" y="311" on="1"/>
        <pt x="373" y="325" on="1"/>
        <pt x="373" y="344" on="1"/>
        <pt x="373" y="375" on="0"/>
        <pt x="335" y="415" on="0"/>
        <pt x="297" y="415" on="1"/>
        <pt x="269" y="415" on="0"/>
        <pt x="237" y="397" on="0"/>
        <pt x="223" y="373" on="0"/>
        <pt x="218" y="355" on="0"/>
        <pt x="218" y="355" on="1"/>
        <pt x="59" y="355" on="1"/>
        <pt x="59" y="355" on="0"/>
        <pt x="65" y="393" on="0"/>
        <pt x="89" y="448" on="0"/>
        <pt x="141" y="503" on="0"/>
        <pt x="231" y="540" on="0"/>
        <pt x="301" y="540" on="1"/>
        <pt x="389" y="540" on="0"/>
        <pt x="494" y="481" on="0"/>
        <pt x="541" y="392" on="0"/>
        <pt x="541" y="347" on="1"/>
        <pt x="541" y="0" on="1"/>
        <pt x="373" y="0" on="1"/>
        <pt x="373" y="62" on="1"/>
      </contour>
      <contour>
        <pt x="206" y="157" on="1"/>
        <pt x="206" y="131" on="0"/>
        <pt x="246" y="103" on="0"/>
        <pt x="276" y="103" on="1"/>
        <pt x="318" y="103" on="0"/>
        <pt x="373" y="159" on="0"/>
        <pt x="373" y="208" on="1"/>
        <pt x="373" y="224" on="1"/>
        <pt x="275" y="212" on="1"/>
        <pt x="243" y="208" on="0"/>
        <pt x="206" y="182" on="0"/>
      </contour>
    </TTGlyph>
    <TTGlyph name="ampersand" xMin="41" yMin="-10" xMax="747" yMax="750">
      <contour>
        <pt x="311" y="-10" on="1"/>
        <pt x="235" y="-10" on="0"/>
        <pt x="113" y="44" on="0"/>
        <pt x="41" y="144" on="0"/>
        <pt x="41" y="215" on="1"/>
        <pt x="41" y="281" on="0"/>
        <pt x="107" y="376" on="0"/>
        <pt x="171" y="413" on="1"/>
        <pt x="149" y="440" on="0"/>
        <pt x="112" y="513" on="0"/>
        <pt x="112" y="564" on="1"/>
        <pt x="112" y="626" on="0"/>
        <pt x="172" y="708" on="0"/>
        <pt x="266" y="750" on="0"/>
        <pt x="318" y="750" on="1"/>
        <pt x="369" y="750" on="0"/>
        <pt x="461" y="711" on="0"/>
        <pt x="518" y="634" on="0"/>
        <pt x="518" y="579" on="1"/>
        <pt x="518" y="511" on="0"/>
        <pt x="439" y="423" on="0"/>
        <pt x="383" y="392" on="1"/>
        <pt x="500" y="268" on="1"/>
        <pt x="510" y="298" on="0"/>
        <pt x="521" y="374" on="0"/>
        <pt x="521" y="419" on="1"/>
        <pt x="654" y="419" on="1"/>
        <pt x="654" y="338" on="0"/>
        <pt x="626" y="209" on="0"/>
        <pt x="600" y="160" on="1"/>
        <pt x="747" y="2" on="1"/>
        <pt x="539" y="2" on="1"/>
        <pt x="500" y="45" on="1"/>
        <pt x="459" y="17" on="0"/>
        <pt x="362" y="-10" on="0"/>
      </contour>
      <contour>
        <pt x="252" y="570" on="1"/>
        <pt x="252" y="545" on="0"/>
        <pt x="283" y="498" on="0"/>
        <pt x="303" y="477" on="1"/>
        <pt x="334" y="492" on="0"/>
        <pt x="380" y="538" on="0"/>
        <pt x="380" y="574" on="1"/>
        <pt x="380" y="604" on="0"/>
        <pt x="341" y="637" on="0"/>
        <pt x="317" y="637" on="1"/>
        <pt x="293" y="637" on="0"/>
        <pt x="252" y="603" on="0"/>
      </contour>
      <contour>
        <pt x="195" y="227" on="1"/>
        <pt x="195" y="184" on="0"/>
        <pt x="260" y="120" on="0"/>
        <pt x="320" y="120" on="1"/>
        <pt x="343" y="120" on="0"/>
        <pt x="389" y="132" on="0"/>
        <pt x="410" y="145" on="1"/>
        <pt x="252" y="322" on="1"/>
        <pt x="225" y="302" on="0"/>
        <pt x="195" y="256" on="0"/>
      </contour>
    </TTGlyph>
    <TTGlyph name="aogonek" xMin="49" yMin="-189" xMax="646" yMax="540">
      <contour>
        <pt x="279" y="540" on="1"/>
        <pt x="331" y="540" on="0"/>
        <pt x="396" y="506" on="0"/>
        <pt x="429" y="471" on="0"/>
        <pt x="431" y="467" on="1"/>
        <pt x="439" y="467" on="1"/>
        <pt x="439" y="530" on="1"/>
        <pt x="610" y="530" on="1"/>
        <pt x="610" y="0" on="1"/>
        <pt x="610" y="0" on="0"/>
        <pt x="585" y="-13" on="0"/>
        <pt x="560" y="-38" on="0"/>
        <pt x="560" y="-57" on="1"/>
        <pt x="560" y="-71" on="0"/>
        <pt x="584" y="-93" on="0"/>
        <pt x="613" y="-93" on="1"/>
        <pt x="625" y="-93" on="0"/>
        <pt x="646" y="-90" on="0"/>
        <pt x="646" y="-90" on="1"/>
        <pt x="646" y="-184" on="1"/>
        <pt x="646" y="-184" on="0"/>
        <pt x="612" y="-189" on="0"/>
        <pt x="586" y="-189" on="1"/>
        <pt x="509" y="-189" on="0"/>
        <pt x="439" y="-127" on="0"/>
        <pt x="439" y="-86" on="1"/>
        <pt x="439" y="-55" on="0"/>
        <pt x="469" y="-13" on="0"/>
        <pt x="488" y="0" on="1"/>
        <pt x="439" y="0" on="1"/>
        <pt x="439" y="63" on="1"/>
        <pt x="431" y="63" on="1"/>
        <pt x="429" y="59" on="0"/>
        <pt x="396" y="23" on="0"/>
        <pt x="331" y="-10" on="0"/>
        <pt x="279" y="-10" on="1"/>
        <pt x="221" y="-10" on="0"/>
        <pt x="135" y="37" on="0"/>
        <pt x="77" y="116" on="0"/>
        <pt x="49" y="214" on="0"/>
        <pt x="49" y="265" on="1"/>
        <pt x="49" y="316" on="0"/>
        <pt x="77" y="414" on="0"/>
        <pt x="135" y="493" on="0"/>
        <pt x="221" y="540" on="0"/>
      </contour>
      <contour>
        <pt x="333" y="403" on="1"/>
        <pt x="296" y="403" on="0"/>
        <pt x="246" y="362" on="0"/>
        <pt x="222" y="299" on="0"/>
        <pt x="222" y="265" on="1"/>
        <pt x="222" y="231" on="0"/>
        <pt x="246" y="168" on="0"/>
        <pt x="296" y="127" on="0"/>
        <pt x="333" y="127" on="1"/>
        <pt x="370" y="127" on="0"/>
        <pt x="419" y="168" on="0"/>
        <pt x="444" y="231" on="0"/>
        <pt x="444" y="265" on="1"/>
        <pt x="444" y="299" on="0"/>
        <pt x="419" y="362" on="0"/>
        <pt x="370" y="403" on="0"/>
      </contour>
    </TTGlyph>
    <TTGlyph name="aogonek.ss01" xMin="41" yMin="-189" xMax="577" yMax="540">
      <contour>
        <pt x="517" y="-189" on="1"/>
        <pt x="440" y="-189" on="0"/>
        <pt x="370" y="-127" on="0"/>
        <pt x="370" y="-86" on="1"/>
        <pt x="370" y="-55" on="0"/>
        <pt x="400" y="-13" on="0"/>
        <pt x="419" y="0" on="1"/>
        <pt x="373" y="0" on="1"/>
        <pt x="373" y="62" on="1"/>
        <pt x="366" y="62" on="1"/>
        <pt x="357" y="49" on="0"/>
        <pt x="322" y="15" on="0"/>
        <pt x="263" y="-10" on="0"/>
        <pt x="217" y="-10" on="1"/>
        <pt x="137" y="-10" on="0"/>
        <pt x="41" y="71" on="0"/>
        <pt x="41" y="142" on="1"/>
        <pt x="41" y="220" on="0"/>
        <pt x="159" y="300" on="0"/>
        <pt x="254" y="311" on="1"/>
        <pt x="373" y="325" on="1"/>
        <pt x="373" y="344" on="1"/>
        <pt x="373" y="375" on="0"/>
        <pt x="335" y="415" on="0"/>
        <pt x="297" y="415" on="1"/>
        <pt x="269" y="415" on="0"/>
        <pt x="237" y="397" on="0"/>
        <pt x="223" y="373" on="0"/>
        <pt x="218" y="355" on="0"/>
        <pt x="218" y="355" on="1"/>
        <pt x="59" y="355" on="1"/>
        <pt x="59" y="355" on="0"/>
        <pt x="65" y="393" on="0"/>
        <pt x="89" y="448" on="0"/>
        <pt x="141" y="503" on="0"/>
        <pt x="231" y="540" on="0"/>
        <pt x="301" y="540" on="1"/>
        <pt x="389" y="540" on="0"/>
        <pt x="494" y="481" on="0"/>
        <pt x="541" y="392" on="0"/>
        <pt x="541" y="347" on="1"/>
        <pt x="541" y="0" on="1"/>
        <pt x="541" y="0" on="0"/>
        <pt x="516" y="-13" on="0"/>
        <pt x="491" y="-38" on="0"/>
        <pt x="491" y="-57" on="1"/>
        <pt x="491" y="-71" on="0"/>
        <pt x="515" y="-93" on="0"/>
        <pt x="544" y="-93" on="1"/>
        <pt x="556" y="-93" on="0"/>
        <pt x="577" y="-90" on="0"/>
        <pt x="577" y="-90" on="1"/>
        <pt x="577" y="-184" on="1"/>
        <pt x="577" y="-184" on="0"/>
        <pt x="543" y="-189" on="0"/>
      </contour>
      <contour>
        <pt x="206" y="157" on="1"/>
        <pt x="206" y="131" on="0"/>
        <pt x="246" y="103" on="0"/>
        <pt x="276" y="103" on="1"/>
        <pt x="318" y="103" on="0"/>
        <pt x="373" y="159" on="0"/>
        <pt x="373" y="208" on="1"/>
        <pt x="373" y="224" on="1"/>
        <pt x="275" y="212" on="1"/>
        <pt x="243" y="208" on="0"/>
        <pt x="206" y="182" on="0"/>
      </contour>
    </TTGlyph>
    <TTGlyph name="approxequal" xMin="116" yMin="157" xMax="489" yMax="543">
      <contour>
        <pt x="379" y="385" on="1"/>
        <pt x="351" y="385" on="0"/>
        <pt x="309" y="403" on="0"/>
        <pt x="277" y="427" on="0"/>
        <pt x="249" y="445" on="0"/>
        <pt x="234" y="445" on="1"/>
        <pt x="217" y="445" on="0"/>
        <pt x="205" y="416" on="0"/>
        <pt x="205" y="391" on="1"/>
        <pt x="116" y="391" on="1"/>
        <pt x="116" y="424" on="0"/>
        <pt x="133" y="495" on="0"/>
        <pt x="180" y="543" on="0"/>
        <pt x="226" y="543" on="1"/>
        <pt x="254" y="543" on="0"/>
        <pt x="297" y="525" on="0"/>
        <pt x="330" y="501" on="0"/>
        <pt x="358" y="483" on="0"/>
        <pt x="371" y="483" on="1"/>
        <pt x="400" y="483" on="0"/>
        <pt x="400" y="537" on="1"/>
        <pt x="489" y="537" on="1"/>
        <pt x="489" y="503" on="0"/>
        <pt x="472" y="433" on="0"/>
        <pt x="425" y="385" on="0"/>
      </contour>
      <contour>
        <pt x="379" y="157" on="1"/>
        <pt x="351" y="157" on="0"/>
        <pt x="309" y="175" on="0"/>
        <pt x="277" y="199" on="0"/>
        <pt x="249" y="218" on="0"/>
        <pt x="234" y="218" on="1"/>
        <pt x="217" y="218" on="0"/>
        <pt x="205" y="188" on="0"/>
        <pt x="205" y="163" on="1"/>
        <pt x="116" y="163" on="1"/>
        <pt x="116" y="197" on="0"/>
        <pt x="133" y="267" on="0"/>
        <pt x="180" y="315" on="0"/>
        <pt x="226" y="315" on="1"/>
        <pt x="254" y="315" on="0"/>
        <pt x="297" y="297" on="0"/>
        <pt x="330" y="273" on="0"/>
        <pt x="358" y="255" on="0"/>
        <pt x="371" y="255" on="1"/>
        <pt x="400" y="255" on="0"/>
        <pt x="400" y="310" on="1"/>
        <pt x="489" y="310" on="1"/>
        <pt x="489" y="276" on="0"/>
        <pt x="472" y="205" on="0"/>
        <pt x="425" y="157" on="0"/>
      </contour>
    </TTGlyph>
    <TTGlyph name="aring" xMin="49" yMin="-10" xMax="610" yMax="859">
      <contour>
        <pt x="333" y="583" on="1"/>
        <pt x="295" y="583" on="0"/>
        <pt x="232" y="620" on="0"/>
        <pt x="195" y="683" on="0"/>
        <pt x="195" y="721" on="1"/>
        <pt x="195" y="759" on="0"/>
        <pt x="232" y="822" on="0"/>
        <pt x="295" y="859" on="0"/>
        <pt x="333" y="859" on="1"/>
        <pt x="372" y="859" on="0"/>
        <pt x="434" y="822" on="0"/>
        <pt x="472" y="759" on="0"/>
        <pt x="472" y="721" on="1"/>
        <pt x="472" y="683" on="0"/>
        <pt x="434" y="620" on="0"/>
        <pt x="372" y="583" on="0"/>
      </contour>
      <contour>
        <pt x="333" y="668" on="1"/>
        <pt x="355" y="668" on="0"/>
        <pt x="386" y="699" on="0"/>
        <pt x="386" y="721" on="1"/>
        <pt x="386" y="743" on="0"/>
        <pt x="355" y="773" on="0"/>
        <pt x="333" y="773" on="1"/>
        <pt x="311" y="773" on="0"/>
        <pt x="280" y="743" on="0"/>
        <pt x="280" y="721" on="1"/>
        <pt x="280" y="699" on="0"/>
        <pt x="311" y="668" on="0"/>
      </contour>
      <contour>
        <pt x="279" y="540" on="1"/>
        <pt x="331" y="540" on="0"/>
        <pt x="396" y="506" on="0"/>
        <pt x="429" y="471" on="0"/>
        <pt x="431" y="467" on="1"/>
        <pt x="439" y="467" on="1"/>
        <pt x="439" y="530" on="1"/>
        <pt x="610" y="530" on="1"/>
        <pt x="610" y="0" on="1"/>
        <pt x="439" y="0" on="1"/>
        <pt x="439" y="63" on="1"/>
        <pt x="431" y="63" on="1"/>
        <pt x="429" y="59" on="0"/>
        <pt x="396" y="23" on="0"/>
        <pt x="331" y="-10" on="0"/>
        <pt x="279" y="-10" on="1"/>
        <pt x="221" y="-10" on="0"/>
        <pt x="135" y="37" on="0"/>
        <pt x="77" y="116" on="0"/>
        <pt x="49" y="214" on="0"/>
        <pt x="49" y="265" on="1"/>
        <pt x="49" y="316" on="0"/>
        <pt x="77" y="414" on="0"/>
        <pt x="135" y="493" on="0"/>
        <pt x="221" y="540" on="0"/>
      </contour>
      <contour>
        <pt x="333" y="403" on="1"/>
        <pt x="296" y="403" on="0"/>
        <pt x="246" y="362" on="0"/>
        <pt x="222" y="299" on="0"/>
        <pt x="222" y="265" on="1"/>
        <pt x="222" y="231" on="0"/>
        <pt x="246" y="168" on="0"/>
        <pt x="296" y="127" on="0"/>
        <pt x="333" y="127" on="1"/>
        <pt x="370" y="127" on="0"/>
        <pt x="419" y="168" on="0"/>
        <pt x="444" y="231" on="0"/>
        <pt x="444" y="265" on="1"/>
        <pt x="444" y="299" on="0"/>
        <pt x="419" y="362" on="0"/>
        <pt x="370" y="403" on="0"/>
      </contour>
    </TTGlyph>
    <TTGlyph name="aring.ss01" xMin="41" yMin="-10" xMax="541" yMax="859">
      <contour>
        <pt x="302" y="583" on="1"/>
        <pt x="264" y="583" on="0"/>
        <pt x="201" y="620" on="0"/>
        <pt x="163" y="683" on="0"/>
        <pt x="163" y="721" on="1"/>
        <pt x="163" y="759" on="0"/>
        <pt x="201" y="822" on="0"/>
        <pt x="264" y="859" on="0"/>
        <pt x="302" y="859" on="1"/>
        <pt x="340" y="859" on="0"/>
        <pt x="403" y="822" on="0"/>
        <pt x="440" y="759" on="0"/>
        <pt x="440" y="721" on="1"/>
        <pt x="440" y="683" on="0"/>
        <pt x="403" y="620" on="0"/>
        <pt x="340" y="583" on="0"/>
      </contour>
      <contour>
        <pt x="302" y="668" on="1"/>
        <pt x="324" y="668" on="0"/>
        <pt x="355" y="699" on="0"/>
        <pt x="355" y="721" on="1"/>
        <pt x="355" y="743" on="0"/>
        <pt x="324" y="773" on="0"/>
        <pt x="302" y="773" on="1"/>
        <pt x="280" y="773" on="0"/>
        <pt x="249" y="743" on="0"/>
        <pt x="249" y="721" on="1"/>
        <pt x="249" y="699" on="0"/>
        <pt x="280" y="668" on="0"/>
      </contour>
      <contour>
        <pt x="366" y="62" on="1"/>
        <pt x="357" y="49" on="0"/>
        <pt x="322" y="15" on="0"/>
        <pt x="263" y="-10" on="0"/>
        <pt x="217" y="-10" on="1"/>
        <pt x="137" y="-10" on="0"/>
        <pt x="41" y="71" on="0"/>
        <pt x="41" y="142" on="1"/>
        <pt x="41" y="220" on="0"/>
        <pt x="159" y="300" on="0"/>
        <pt x="254" y="311" on="1"/>
        <pt x="373" y="325" on="1"/>
        <pt x="373" y="344" on="1"/>
        <pt x="373" y="375" on="0"/>
        <pt x="335" y="415" on="0"/>
        <pt x="297" y="415" on="1"/>
        <pt x="269" y="415" on="0"/>
        <pt x="237" y="397" on="0"/>
        <pt x="223" y="373" on="0"/>
        <pt x="218" y="355" on="0"/>
        <pt x="218" y="355" on="1"/>
        <pt x="59" y="355" on="1"/>
        <pt x="59" y="355" on="0"/>
        <pt x="65" y="393" on="0"/>
        <pt x="89" y="448" on="0"/>
        <pt x="141" y="503" on="0"/>
        <pt x="231" y="540" on="0"/>
        <pt x="301" y="540" on="1"/>
        <pt x="389" y="540" on="0"/>
        <pt x="494" y="481" on="0"/>
        <pt x="541" y="392" on="0"/>
        <pt x="541" y="347" on="1"/>
        <pt x="541" y="0" on="1"/>
        <pt x="373" y="0" on="1"/>
        <pt x="373" y="62" on="1"/>
      </contour>
      <contour>
        <pt x="206" y="157" on="1"/>
        <pt x="206" y="131" on="0"/>
        <pt x="246" y="103" on="0"/>
        <pt x="276" y="103" on="1"/>
        <pt x="318" y="103" on="0"/>
        <pt x="373" y="159" on="0"/>
        <pt x="373" y="208" on="1"/>
        <pt x="373" y="224" on="1"/>
        <pt x="275" y="212" on="1"/>
        <pt x="243" y="208" on="0"/>
        <pt x="206" y="182" on="0"/>
      </contour>
    </TTGlyph>
    <TTGlyph name="asciicircum" xMin="116" yMin="555" xMax="514" yMax="740">
      <contour>
        <pt x="116" y="555" on="1"/>
        <pt x="248" y="740" on="1"/>
        <pt x="382" y="740" on="1"/>
        <pt x="514" y="555" on="1"/>
        <pt x="384" y="555" on="1"/>
        <pt x="315" y="658" on="1"/>
        <pt x="246" y="555" on="1"/>
      </contour>
    </TTGlyph>
    <TTGlyph name="asciitilde" xMin="62" yMin="313" xMax="436" yMax="471">
      <contour>
        <pt x="326" y="313" on="1"/>
        <pt x="297" y="313" on="0"/>
        <pt x="255" y="331" on="0"/>
        <pt x="223" y="355" on="0"/>
        <pt x="195" y="374" on="0"/>
        <pt x="181" y="374" on="1"/>
        <pt x="164" y="374" on="0"/>
        <pt x="151" y="344" on="0"/>
        <pt x="151" y="319" on="1"/>
        <pt x="62" y="319" on="1"/>
        <pt x="62" y="353" on="0"/>
        <pt x="79" y="423" on="0"/>
        <pt x="127" y="471" on="0"/>
        <pt x="172" y="471" on="1"/>
        <pt x="201" y="471" on="0"/>
        <pt x="243" y="453" on="0"/>
        <pt x="276" y="429" on="0"/>
        <pt x="304" y="411" on="0"/>
        <pt x="318" y="411" on="1"/>
        <pt x="346" y="411" on="0"/>
        <pt x="346" y="466" on="1"/>
        <pt x="436" y="466" on="1"/>
        <pt x="436" y="432" on="0"/>
        <pt x="418" y="361" on="0"/>
        <pt x="371" y="313" on="0"/>
      </contour>
    </TTGlyph>
    <TTGlyph name="asterisk" xMin="40" yMin="322" xMax="479" yMax="740">
      <contour>
        <pt x="183" y="322" on="1"/>
        <pt x="87" y="392" on="1"/>
        <pt x="168" y="500" on="1"/>
        <pt x="40" y="538" on="1"/>
        <pt x="76" y="651" on="1"/>
        <pt x="203" y="605" on="1"/>
        <pt x="200" y="740" on="1"/>
        <pt x="318" y="740" on="1"/>
        <pt x="315" y="605" on="1"/>
        <pt x="442" y="651" on="1"/>
        <pt x="479" y="538" on="1"/>
        <pt x="350" y="500" on="1"/>
        <pt x="431" y="392" on="1"/>
        <pt x="335" y="322" on="1"/>
        <pt x="259" y="433" on="1"/>
      </contour>
    </TTGlyph>
    <TTGlyph name="at" xMin="35" yMin="-180" xMax="988" yMax="758">
      <contour>
        <pt x="525" y="-180" on="1"/>
        <pt x="401" y="-180" on="0"/>
        <pt x="217" y="-101" on="0"/>
        <pt x="95" y="31" on="0"/>
        <pt x="35" y="197" on="0"/>
        <pt x="35" y="284" on="1"/>
        <pt x="35" y="373" on="0"/>
        <pt x="97" y="542" on="0"/>
        <pt x="219" y="678" on="0"/>
        <pt x="401" y="758" on="0"/>
        <pt x="520" y="758" on="1"/>
        <pt x="614" y="758" on="0"/>
        <pt x="783" y="699" on="0"/>
        <pt x="913" y="586" on="0"/>
        <pt x="988" y="424" on="0"/>
        <pt x="988" y="321" on="1"/>
        <pt x="988" y="247" on="0"/>
        <pt x="944" y="128" on="0"/>
        <pt x="853" y="58" on="0"/>
        <pt x="782" y="58" on="1"/>
        <pt x="728" y="58" on="0"/>
        <pt x="660" y="92" on="0"/>
        <pt x="628" y="131" on="0"/>
        <pt x="626" y="137" on="1"/>
        <pt x="617" y="137" on="1"/>
        <pt x="616" y="134" on="0"/>
        <pt x="600" y="110" on="0"/>
        <pt x="566" y="80" on="0"/>
        <pt x="511" y="58" on="0"/>
        <pt x="471" y="58" on="1"/>
        <pt x="407" y="58" on="0"/>
        <pt x="321" y="123" on="0"/>
        <pt x="279" y="225" on="0"/>
        <pt x="279" y="280" on="1"/>
        <pt x="279" y="335" on="0"/>
        <pt x="320" y="435" on="0"/>
        <pt x="403" y="498" on="0"/>
        <pt x="467" y="498" on="1"/>
        <pt x="509" y="498" on="0"/>
        <pt x="561" y="474" on="0"/>
        <pt x="587" y="447" on="0"/>
        <pt x="589" y="443" on="1"/>
        <pt x="595" y="443" on="1"/>
        <pt x="595" y="490" on="1"/>
        <pt x="734" y="490" on="1"/>
        <pt x="734" y="319" on="1"/>
        <pt x="734" y="252" on="0"/>
        <pt x="761" y="172" on="0"/>
        <pt x="797" y="172" on="1"/>
        <pt x="830" y="172" on="0"/>
        <pt x="861" y="241" on="0"/>
        <pt x="861" y="304" on="1"/>
        <pt x="861" y="392" on="0"/>
        <pt x="804" y="519" on="0"/>
        <pt x="707" y="600" on="0"/>
        <pt x="585" y="639" on="0"/>
        <pt x="520" y="639" on="1"/>
        <pt x="433" y="639" on="0"/>
        <pt x="302" y="579" on="0"/>
        <pt x="213" y="477" on="0"/>
        <pt x="169" y="352" on="0"/>
        <pt x="169" y="286" on="1"/>
        <pt x="169" y="221" on="0"/>
        <pt x="212" y="98" on="0"/>
        <pt x="300" y="0" on="0"/>
        <pt x="433" y="-58" on="0"/>
        <pt x="523" y="-58" on="1"/>
        <pt x="589" y="-58" on="0"/>
        <pt x="694" y="-32" on="0"/>
        <pt x="756" y="-6" on="0"/>
        <pt x="756" y="-6" on="1"/>
        <pt x="800" y="-118" on="1"/>
        <pt x="800" y="-118" on="0"/>
        <pt x="735" y="-149" on="0"/>
        <pt x="612" y="-180" on="0"/>
      </contour>
      <contour>
        <pt x="510" y="171" on="1"/>
        <pt x="539" y="171" on="0"/>
        <pt x="579" y="203" on="0"/>
        <pt x="598" y="251" on="0"/>
        <pt x="598" y="278" on="1"/>
        <pt x="598" y="318" on="0"/>
        <pt x="554" y="384" on="0"/>
        <pt x="510" y="384" on="1"/>
        <pt x="466" y="384" on="0"/>
        <pt x="421" y="318" on="0"/>
        <pt x="421" y="278" on="1"/>
        <pt x="421" y="251" on="0"/>
        <pt x="441" y="203" on="0"/>
        <pt x="480" y="171" on="0"/>
      </contour>
    </TTGlyph>
    <TTGlyph name="atilde" xMin="49" yMin="-10" xMax="610" yMax="772">
      <contour>
        <pt x="409" y="613" on="1"/>
        <pt x="382" y="613" on="0"/>
        <pt x="343" y="631" on="0"/>
        <pt x="313" y="655" on="0"/>
        <pt x="287" y="673" on="0"/>
        <pt x="273" y="673" on="1"/>
        <pt x="258" y="673" on="0"/>
        <pt x="246" y="645" on="0"/>
        <pt x="246" y="619" on="1"/>
        <pt x="159" y="619" on="1"/>
        <pt x="159" y="653" on="0"/>
        <pt x="175" y="724" on="0"/>
        <pt x="220" y="772" on="0"/>
        <pt x="263" y="772" on="1"/>
        <pt x="291" y="772" on="0"/>
        <pt x="331" y="754" on="0"/>
        <pt x="362" y="730" on="0"/>
        <pt x="387" y="712" on="0"/>
        <pt x="400" y="712" on="1"/>
        <pt x="426" y="712" on="0"/>
        <pt x="426" y="766" on="1"/>
        <pt x="514" y="766" on="1"/>
        <pt x="514" y="732" on="0"/>
        <pt x="498" y="661" on="0"/>
        <pt x="453" y="613" on="0"/>
      </contour>
      <contour>
        <pt x="279" y="540" on="1"/>
        <pt x="331" y="540" on="0"/>
        <pt x="396" y="506" on="0"/>
        <pt x="429" y="471" on="0"/>
        <pt x="431" y="467" on="1"/>
        <pt x="439" y="467" on="1"/>
        <pt x="439" y="530" on="1"/>
        <pt x="610" y="530" on="1"/>
        <pt x="610" y="0" on="1"/>
        <pt x="439" y="0" on="1"/>
        <pt x="439" y="63" on="1"/>
        <pt x="431" y="63" on="1"/>
        <pt x="429" y="59" on="0"/>
        <pt x="396" y="23" on="0"/>
        <pt x="331" y="-10" on="0"/>
        <pt x="279" y="-10" on="1"/>
        <pt x="221" y="-10" on="0"/>
        <pt x="135" y="37" on="0"/>
        <pt x="77" y="116" on="0"/>
        <pt x="49" y="214" on="0"/>
        <pt x="49" y="265" on="1"/>
        <pt x="49" y="316" on="0"/>
        <pt x="77" y="414" on="0"/>
        <pt x="135" y="493" on="0"/>
        <pt x="221" y="540" on="0"/>
      </contour>
      <contour>
        <pt x="333" y="403" on="1"/>
        <pt x="296" y="403" on="0"/>
        <pt x="246" y="362" on="0"/>
        <pt x="222" y="299" on="0"/>
        <pt x="222" y="265" on="1"/>
        <pt x="222" y="231" on="0"/>
        <pt x="246" y="168" on="0"/>
        <pt x="296" y="127" on="0"/>
        <pt x="333" y="127" on="1"/>
        <pt x="370" y="127" on="0"/>
        <pt x="419" y="168" on="0"/>
        <pt x="444" y="231" on="0"/>
        <pt x="444" y="265" on="1"/>
        <pt x="444" y="299" on="0"/>
        <pt x="419" y="362" on="0"/>
        <pt x="370" y="403" on="0"/>
      </contour>
    </TTGlyph>
    <TTGlyph name="atilde.ss01" xMin="41" yMin="-10" xMax="541" yMax="772">
      <contour>
        <pt x="378" y="613" on="1"/>
        <pt x="351" y="613" on="0"/>
        <pt x="311" y="631" on="0"/>
        <pt x="281" y="655" on="0"/>
        <pt x="255" y="673" on="0"/>
        <pt x="242" y="673" on="1"/>
        <pt x="226" y="673" on="0"/>
        <pt x="214" y="645" on="0"/>
        <pt x="214" y="619" on="1"/>
        <pt x="127" y="619" on="1"/>
        <pt x="127" y="653" on="0"/>
        <pt x="143" y="724" on="0"/>
        <pt x="188" y="772" on="0"/>
        <pt x="232" y="772" on="1"/>
        <pt x="259" y="772" on="0"/>
        <pt x="299" y="754" on="0"/>
        <pt x="330" y="730" on="0"/>
        <pt x="356" y="712" on="0"/>
        <pt x="369" y="712" on="1"/>
        <pt x="395" y="712" on="0"/>
        <pt x="395" y="766" on="1"/>
        <pt x="482" y="766" on="1"/>
        <pt x="482" y="732" on="0"/>
        <pt x="466" y="661" on="0"/>
        <pt x="421" y="613" on="0"/>
      </contour>
      <contour>
        <pt x="366" y="62" on="1"/>
        <pt x="357" y="49" on="0"/>
        <pt x="322" y="15" on="0"/>
        <pt x="263" y="-10" on="0"/>
        <pt x="217" y="-10" on="1"/>
        <pt x="137" y="-10" on="0"/>
        <pt x="41" y="71" on="0"/>
        <pt x="41" y="142" on="1"/>
        <pt x="41" y="220" on="0"/>
        <pt x="159" y="300" on="0"/>
        <pt x="254" y="311" on="1"/>
        <pt x="373" y="325" on="1"/>
        <pt x="373" y="344" on="1"/>
        <pt x="373" y="375" on="0"/>
        <pt x="335" y="415" on="0"/>
        <pt x="297" y="415" on="1"/>
        <pt x="269" y="415" on="0"/>
        <pt x="237" y="397" on="0"/>
        <pt x="223" y="373" on="0"/>
        <pt x="218" y="355" on="0"/>
        <pt x="218" y="355" on="1"/>
        <pt x="59" y="355" on="1"/>
        <pt x="59" y="355" on="0"/>
        <pt x="65" y="393" on="0"/>
        <pt x="89" y="448" on="0"/>
        <pt x="141" y="503" on="0"/>
        <pt x="231" y="540" on="0"/>
        <pt x="301" y="540" on="1"/>
        <pt x="389" y="540" on="0"/>
        <pt x="494" y="481" on="0"/>
        <pt x="541" y="392" on="0"/>
        <pt x="541" y="347" on="1"/>
        <pt x="541" y="0" on="1"/>
        <pt x="373" y="0" on="1"/>
        <pt x="373" y="62" on="1"/>
      </contour>
      <contour>
        <pt x="206" y="157" on="1"/>
        <pt x="206" y="131" on="0"/>
        <pt x="246" y="103" on="0"/>
        <pt x="276" y="103" on="1"/>
        <pt x="318" y="103" on="0"/>
        <pt x="373" y="159" on="0"/>
        <pt x="373" y="208" on="1"/>
        <pt x="373" y="224" on="1"/>
        <pt x="275" y="212" on="1"/>
        <pt x="243" y="208" on="0"/>
        <pt x="206" y="182" on="0"/>
      </contour>
    </TTGlyph>
    <TTGlyph name="b" xMin="64" yMin="-10" xMax="625" yMax="760">
      <contour>
        <pt x="394" y="-10" on="1"/>
        <pt x="343" y="-10" on="0"/>
        <pt x="277" y="24" on="0"/>
        <pt x="245" y="59" on="0"/>
        <pt x="243" y="63" on="1"/>
        <pt x="235" y="63" on="1"/>
        <pt x="235" y="0" on="1"/>
        <pt x="64" y="0" on="1"/>
        <pt x="64" y="760" on="1"/>
        <pt x="235" y="760" on="1"/>
        <pt x="235" y="467" on="1"/>
        <pt x="243" y="467" on="1"/>
        <pt x="245" y="471" on="0"/>
        <pt x="277" y="507" on="0"/>
        <pt x="343" y="540" on="0"/>
        <pt x="394" y="540" on="1"/>
        <pt x="453" y="540" on="0"/>
        <pt x="539" y="493" on="0"/>
        <pt x="596" y="414" on="0"/>
        <pt x="625" y="316" on="0"/>
        <pt x="625" y="265" on="1"/>
        <pt x="625" y="214" on="0"/>
        <pt x="596" y="116" on="0"/>
        <pt x="539" y="37" on="0"/>
        <pt x="453" y="-10" on="0"/>
      </contour>
      <contour>
        <pt x="341" y="127" on="1"/>
        <pt x="378" y="127" on="0"/>
        <pt x="428" y="168" on="0"/>
        <pt x="452" y="231" on="0"/>
        <pt x="452" y="265" on="1"/>
        <pt x="452" y="299" on="0"/>
        <pt x="428" y="362" on="0"/>
        <pt x="378" y="403" on="0"/>
        <pt x="341" y="403" on="1"/>
        <pt x="304" y="403" on="0"/>
        <pt x="254" y="362" on="0"/>
        <pt x="230" y="299" on="0"/>
        <pt x="230" y="265" on="1"/>
        <pt x="230" y="231" on="0"/>
        <pt x="254" y="168" on="0"/>
        <pt x="304" y="127" on="0"/>
      </contour>
    </TTGlyph>
    <TTGlyph name="backslash" xMin="13" yMin="-191" xMax="514" yMax="831">
      <contour>
        <pt x="514" y="-191" on="1"/>
        <pt x="362" y="-191" on="1"/>
        <pt x="13" y="831" on="1"/>
        <pt x="165" y="831" on="1"/>
      </contour>
    </TTGlyph>
    <TTGlyph name="bar" xMin="152" yMin="-252" xMax="291" yMax="958">
      <contour>
        <pt x="152" y="-252" on="1"/>
        <pt x="152" y="958" on="1"/>
        <pt x="291" y="958" on="1"/>
        <pt x="291" y="-252" on="1"/>
      </contour>
    </TTGlyph>
    <TTGlyph name="braceleft" xMin="28" yMin="-217" xMax="458" yMax="858">
      <contour>
        <pt x="349" y="-217" on="1"/>
        <pt x="245" y="-217" on="0"/>
        <pt x="134" y="-106" on="0"/>
        <pt x="134" y="-2" on="1"/>
        <pt x="134" y="187" on="1"/>
        <pt x="134" y="248" on="0"/>
        <pt x="73" y="248" on="1"/>
        <pt x="28" y="248" on="1"/>
        <pt x="28" y="393" on="1"/>
        <pt x="73" y="393" on="1"/>
        <pt x="134" y="393" on="0"/>
        <pt x="134" y="454" on="1"/>
        <pt x="134" y="643" on="1"/>
        <pt x="134" y="747" on="0"/>
        <pt x="245" y="858" on="0"/>
        <pt x="349" y="858" on="1"/>
        <pt x="458" y="858" on="1"/>
        <pt x="458" y="712" on="1"/>
        <pt x="370" y="712" on="1"/>
        <pt x="309" y="712" on="0"/>
        <pt x="309" y="651" on="1"/>
        <pt x="309" y="454" on="1"/>
        <pt x="309" y="398" on="0"/>
        <pt x="275" y="339" on="0"/>
        <pt x="224" y="324" on="1"/>
        <pt x="224" y="317" on="1"/>
        <pt x="275" y="301" on="0"/>
        <pt x="309" y="240" on="0"/>
        <pt x="309" y="187" on="1"/>
        <pt x="309" y="-10" on="1"/>
        <pt x="309" y="-71" on="0"/>
        <pt x="370" y="-71" on="1"/>
        <pt x="458" y="-71" on="1"/>
        <pt x="458" y="-217" on="1"/>
      </contour>
    </TTGlyph>
    <TTGlyph name="braceleft.case" xMin="28" yMin="-189" xMax="458" yMax="886">
      <contour>
        <pt x="349" y="-189" on="1"/>
        <pt x="245" y="-189" on="0"/>
        <pt x="134" y="-78" on="0"/>
        <pt x="134" y="26" on="1"/>
        <pt x="134" y="215" on="1"/>
        <pt x="134" y="276" on="0"/>
        <pt x="73" y="276" on="1"/>
        <pt x="28" y="276" on="1"/>
        <pt x="28" y="421" on="1"/>
        <pt x="73" y="421" on="1"/>
        <pt x="134" y="421" on="0"/>
        <pt x="134" y="482" on="1"/>
        <pt x="134" y="671" on="1"/>
        <pt x="134" y="775" on="0"/>
        <pt x="245" y="886" on="0"/>
        <pt x="349" y="886" on="1"/>
        <pt x="458" y="886" on="1"/>
        <pt x="458" y="740" on="1"/>
        <pt x="370" y="740" on="1"/>
        <pt x="309" y="740" on="0"/>
        <pt x="309" y="679" on="1"/>
        <pt x="309" y="482" on="1"/>
        <pt x="309" y="426" on="0"/>
        <pt x="275" y="367" on="0"/>
        <pt x="224" y="352" on="1"/>
        <pt x="224" y="345" on="1"/>
        <pt x="275" y="329" on="0"/>
        <pt x="309" y="268" on="0"/>
        <pt x="309" y="215" on="1"/>
        <pt x="309" y="18" on="1"/>
        <pt x="309" y="-43" on="0"/>
        <pt x="370" y="-43" on="1"/>
        <pt x="458" y="-43" on="1"/>
        <pt x="458" y="-189" on="1"/>
      </contour>
    </TTGlyph>
    <TTGlyph name="braceright" xMin="40" yMin="-217" xMax="470" yMax="858">
      <contour>
        <pt x="149" y="858" on="1"/>
        <pt x="253" y="858" on="0"/>
        <pt x="364" y="747" on="0"/>
        <pt x="364" y="643" on="1"/>
        <pt x="364" y="454" on="1"/>
        <pt x="364" y="393" on="0"/>
        <pt x="425" y="393" on="1"/>
        <pt x="470" y="393" on="1"/>
        <pt x="470" y="248" on="1"/>
        <pt x="425" y="248" on="1"/>
        <pt x="364" y="248" on="0"/>
        <pt x="364" y="187" on="1"/>
        <pt x="364" y="-2" on="1"/>
        <pt x="364" y="-106" on="0"/>
        <pt x="253" y="-217" on="0"/>
        <pt x="149" y="-217" on="1"/>
        <pt x="40" y="-217" on="1"/>
        <pt x="40" y="-71" on="1"/>
        <pt x="128" y="-71" on="1"/>
        <pt x="189" y="-71" on="0"/>
        <pt x="189" y="-10" on="1"/>
        <pt x="189" y="187" on="1"/>
        <pt x="189" y="242" on="0"/>
        <pt x="223" y="301" on="0"/>
        <pt x="274" y="317" on="1"/>
        <pt x="274" y="324" on="1"/>
        <pt x="223" y="340" on="0"/>
        <pt x="189" y="401" on="0"/>
        <pt x="189" y="454" on="1"/>
        <pt x="189" y="651" on="1"/>
        <pt x="189" y="712" on="0"/>
        <pt x="128" y="712" on="1"/>
        <pt x="40" y="712" on="1"/>
        <pt x="40" y="858" on="1"/>
      </contour>
    </TTGlyph>
    <TTGlyph name="braceright.case" xMin="40" yMin="-189" xMax="470" yMax="886">
      <contour>
        <pt x="149" y="886" on="1"/>
        <pt x="253" y="886" on="0"/>
        <pt x="364" y="775" on="0"/>
        <pt x="364" y="671" on="1"/>
        <pt x="364" y="482" on="1"/>
        <pt x="364" y="421" on="0"/>
        <pt x="425" y="421" on="1"/>
        <pt x="470" y="421" on="1"/>
        <pt x="470" y="276" on="1"/>
        <pt x="425" y="276" on="1"/>
        <pt x="364" y="276" on="0"/>
        <pt x="364" y="215" on="1"/>
        <pt x="364" y="26" on="1"/>
        <pt x="364" y="-78" on="0"/>
        <pt x="253" y="-189" on="0"/>
        <pt x="149" y="-189" on="1"/>
        <pt x="40" y="-189" on="1"/>
        <pt x="40" y="-43" on="1"/>
        <pt x="128" y="-43" on="1"/>
        <pt x="189" y="-43" on="0"/>
        <pt x="189" y="18" on="1"/>
        <pt x="189" y="215" on="1"/>
        <pt x="189" y="270" on="0"/>
        <pt x="223" y="329" on="0"/>
        <pt x="274" y="345" on="1"/>
        <pt x="274" y="352" on="1"/>
        <pt x="223" y="368" on="0"/>
        <pt x="189" y="429" on="0"/>
        <pt x="189" y="482" on="1"/>
        <pt x="189" y="679" on="1"/>
        <pt x="189" y="740" on="0"/>
        <pt x="128" y="740" on="1"/>
        <pt x="40" y="740" on="1"/>
        <pt x="40" y="886" on="1"/>
      </contour>
    </TTGlyph>
    <TTGlyph name="bracketleft" xMin="64" yMin="-217" xMax="423" yMax="858">
      <contour>
        <pt x="64" y="-217" on="1"/>
        <pt x="64" y="858" on="1"/>
        <pt x="423" y="858" on="1"/>
        <pt x="423" y="712" on="1"/>
        <pt x="239" y="712" on="1"/>
        <pt x="239" y="-71" on="1"/>
        <pt x="423" y="-71" on="1"/>
        <pt x="423" y="-217" on="1"/>
      </contour>
    </TTGlyph>
    <TTGlyph name="bracketleft.case" xMin="96" yMin="-189" xMax="455" yMax="886">
      <contour>
        <pt x="96" y="-189" on="1"/>
        <pt x="96" y="886" on="1"/>
        <pt x="455" y="886" on="1"/>
        <pt x="455" y="740" on="1"/>
        <pt x="271" y="740" on="1"/>
        <pt x="271" y="-43" on="1"/>
        <pt x="455" y="-43" on="1"/>
        <pt x="455" y="-189" on="1"/>
      </contour>
    </TTGlyph>
</ttFont>
